<svg width="813" height="293" viewBox="0 0 813 293" fill="none" xmlns="http://www.w3.org/2000/svg">
<path d="M224.823 7.2C222.723 7.2 220.823 7.5 218.823 8.2C207.423 12.2 188.623 30.7 188.623 51.8C188.623 60.1 191.923 67.6 200.523 70.8C202.723 71.6 204.823 72 207.223 72C218.723 72 228.823 61.7 235.623 49.3C239.423 42.3 242.023 33.7 242.023 26.3C242.023 19.2 239.423 13.1 232.923 10.2C231.223 8.39999 228.423 7.2 224.823 7.2ZM203.923 66.5C200.123 66.5 197.623 62.6 197.623 55.6C197.623 49.1 199.823 40.5 204.923 32.6C214.023 18.7 225.823 12.1 230.223 13.7C232.323 14.5 233.323 17.7 233.323 22.5C233.323 28.6 231.323 37 226.523 45.9C219.423 58.9 210.123 66.5 203.923 66.5ZM261.034 21.7C264.734 24 269.234 26.5 271.734 27.6C273.934 28.5 276.234 28.3 277.634 27.7C279.134 27.1 279.234 26.3 278.034 25.3C275.834 23.4 272.134 20.8 269.234 19.3C268.034 18.7 266.434 18.4 265.234 18.4C263.534 18.4 262.034 18.7 261.134 19.3C260.434 19.8 259.334 20.7 261.034 21.7ZM282.334 61C283.834 58.1 283.434 55.2 283.034 54.3C282.234 52.4 280.534 52.7 279.534 54.4C275.934 60.7 270.834 67.6 267.534 67.6C266.234 67.6 265.634 66.6 265.634 64.8C265.634 60.9 269.534 54.1 272.434 49.4C275.934 43.6 278.034 39.2 278.034 35.8C278.034 33.6 277.534 32 276.534 30.6C275.334 28.9 273.734 29.3 272.334 31.2C268.734 35.8 266.134 42.6 260.234 52.2C255.134 60.2 249.834 67 247.234 67C245.034 67 245.334 63.3 247.134 59.3C250.634 51.6 257.934 40 257.934 35.9C257.934 34.4 257.534 32.7 256.434 31.3C255.234 29.8 253.434 29.6 252.134 31.3C245.934 40 240.834 50 238.634 56.3C237.734 58.7 237.334 61 237.334 63.2C237.334 67.5 239.334 71.3 244.434 71.3C249.534 71.3 254.034 68.2 257.434 64.4C257.834 68.9 260.834 71.8 266.734 71.8C272.934 71.8 279.434 66.7 282.334 61ZM328.937 24.1C329.337 24.7 329.837 25.3 330.437 25.9C332.437 27.9 334.437 28.4 336.637 27.8C337.737 27.5 338.437 26.6 337.837 25.5C336.837 23.8 335.037 20.5 333.937 18.6C333.337 17.5 332.237 16.9 330.737 16.9C330.137 16.9 329.537 17.1 329.137 17.4C326.737 18.8 324.537 20.5 317.637 25.5C316.337 26.4 316.537 27.6 318.237 28C319.437 28.2 321.737 28.3 323.937 27L328.937 24.1ZM326.537 35.9C327.637 36.8 325.537 41.5 322.637 45.4C320.637 48.1 317.437 51.1 315.037 51.1C314.337 51.1 313.637 50.9 312.837 50.4C317.637 40.8 325.037 34.7 326.537 35.9ZM334.037 39.9C334.037 38.6 333.637 37.1 333.037 36.2C331.637 34.2 329.637 32.6 326.837 31C325.837 30.4 324.737 30.2 323.337 30.2C317.537 30.2 309.437 35.5 304.237 46.1C302.137 50.1 301.137 54 301.137 57.6C301.137 65.6 306.237 71.7 315.537 71.6C323.337 71.5 331.337 66.8 335.537 60.7C337.337 58 337.237 55.1 336.937 54.2C336.137 52.2 334.837 52.4 333.737 54C329.637 60.2 322.937 67.6 315.337 67.6C312.337 67.6 310.537 64.5 310.537 60.1C310.537 58.3 310.837 56.2 311.437 54.2C313.737 55.7 316.137 56.4 318.537 56.4C327.337 56.4 334.037 45.9 334.037 39.9ZM332.768 60.3C332.768 67.2 337.368 71.5 342.668 71.5C351.068 71.5 357.768 62.9 359.168 59.9C360.268 57.6 360.668 56.1 360.168 54C359.468 51.3 357.168 51.5 356.068 53.9C352.568 61.4 347.368 67.7 343.468 67.7C341.768 67.7 340.768 65.6 340.768 62.6C340.768 60.4 341.368 57.8 342.568 55.1C346.068 47.5 351.768 37.6 355.568 31.1C357.768 30.8 360.368 30.6 362.168 30.8C364.568 31.1 365.268 29.9 364.268 28.1C363.568 26.9 361.868 25.3 358.768 24.9C359.968 22.1 360.368 19.8 360.368 18C360.368 16.8 359.968 15.1 359.268 13.9C358.168 12 356.968 11.9 355.468 14.1C353.168 17.4 351.068 20.7 347.968 26.1C345.768 26.3 343.068 26.4 340.768 26.3C338.468 26.2 337.468 27.2 338.868 29.3C339.668 30.5 341.468 31.6 344.568 32C340.568 39.2 336.768 47.1 334.768 52C333.368 55.3 332.768 58.1 332.768 60.3ZM378.002 35.9C379.102 36.8 377.002 41.5 374.102 45.4C372.102 48.1 368.902 51.1 366.502 51.1C365.802 51.1 365.102 50.9 364.302 50.4C369.102 40.8 376.502 34.7 378.002 35.9ZM385.502 39.9C385.502 38.6 385.102 37.1 384.502 36.2C383.102 34.2 381.102 32.6 378.302 31C377.302 30.4 376.202 30.2 374.802 30.2C369.002 30.2 360.902 35.5 355.702 46.1C353.602 50.1 352.602 54 352.602 57.6C352.602 65.6 357.702 71.7 367.002 71.6C374.802 71.5 382.802 66.8 387.002 60.7C388.802 58 388.702 55.1 388.402 54.2C387.602 52.2 386.302 52.4 385.202 54C381.102 60.2 374.402 67.6 366.802 67.6C363.802 67.6 362.002 64.5 362.002 60.1C362.002 58.3 362.302 56.2 362.902 54.2C365.202 55.7 367.602 56.4 370.002 56.4C378.802 56.4 385.502 45.9 385.502 39.9ZM396.145 66.9C393.945 66.9 391.845 63.4 390.645 58.7C393.645 54.4 396.445 50.1 398.845 46.3C399.045 49 399.145 52.2 399.145 55.4C399.145 61.9 398.245 66.9 396.145 66.9ZM382.445 57.3C382.445 59.6 383.045 62 384.145 63.9C387.545 70.2 393.545 71.8 399.545 71.6C407.045 71.3 414.045 67.5 417.845 60.5C419.645 57.4 419.345 54.6 418.845 53.6C418.145 52 416.645 51.3 415.745 53.6C413.945 58.5 411.145 61.8 407.045 64.6C408.145 62.4 408.645 59.6 408.745 57.1C408.945 51.7 407.645 45.2 407.645 38.1C407.645 36.8 407.745 35.1 407.845 33.9C410.945 28.8 410.345 26.6 407.645 26.6C406.145 26.6 404.345 27.3 402.745 28.7C400.445 30.6 399.245 32.9 398.845 36.5C396.245 40.8 392.745 46 389.445 50.7C389.145 48.3 387.645 47.8 385.645 49.5C383.445 51.4 382.445 54.3 382.445 57.3ZM434.663 49.5C435.663 49.5 436.663 49.5 437.763 49.6C439.763 49.7 440.263 48.8 439.963 47.5C439.263 44.4 437.163 41.9 431.563 41.9C426.963 41.9 421.763 42.7 414.563 42.7C413.063 42.7 412.163 43.7 412.363 44.7C413.163 47.9 415.263 50.2 420.463 50.4C424.363 50.6 429.363 49.5 434.663 49.5ZM454.383 43C454.883 41 455.083 39.2 455.083 37.6C455.083 34.6 453.983 32.2 451.683 30.2C450.083 28.9 448.683 29.4 448.083 31.2C444.583 41.6 441.983 55.5 441.583 62.4C441.283 67.7 442.983 70 447.083 71.9C448.583 72.6 449.683 71.8 450.383 70.7C457.583 59.3 464.383 51.3 473.483 40.4C476.883 36.3 477.983 33.6 477.683 31.4C477.383 29 476.183 28.6 473.983 30.7C468.083 36.8 457.183 51.1 449.983 62.2C450.883 56.9 451.883 52.9 454.383 43ZM550.977 54.3C549.877 52.4 548.477 52.5 547.577 54.4C543.977 61.1 538.077 67.6 534.677 67.6C533.377 67.6 532.777 66.6 532.777 64.8C532.777 63.1 533.377 61 534.377 58.9C536.777 53.1 541.577 46.5 543.477 42.4C544.677 40 545.077 37.9 545.077 36C545.077 33.8 544.377 32 543.377 30.8C542.077 29.3 540.477 29.6 539.277 31.4C535.577 36.7 533.477 42.7 527.377 52.3C522.277 60.6 517.177 66.9 514.377 66.9C513.477 66.9 513.177 65.9 513.177 64.5C513.177 63 513.577 61.2 514.277 59.3C516.277 54.6 518.477 50.6 521.877 45.1C523.977 41.4 525.177 38.4 525.177 36C525.177 34.6 524.577 32.6 523.377 31.2C521.977 29.6 520.677 29.7 519.477 31.5L515.777 36.9C512.677 41.4 508.077 45.8 503.577 46.6C503.977 40.5 502.377 37.9 500.377 35.8C499.877 35.3 499.377 34.9 498.877 34.3C496.677 31.4 494.677 30.4 491.277 30.6C485.077 31.1 478.477 37.1 474.777 43.5C472.177 48 470.677 53.2 470.677 57.4C470.677 60.6 471.477 63.7 473.377 66.2C476.177 70 479.977 71.3 483.277 71.3C491.677 71.3 499.977 60.2 502.677 50.6C504.777 50.6 506.777 50.2 508.777 49.5C507.577 51.8 506.577 54.3 505.877 56.3C505.077 58.7 504.677 61.1 504.677 63.2C504.677 67.5 506.577 71.3 511.777 71.3C516.777 71.3 521.377 68 524.677 64.4C525.277 68.6 528.177 71.7 533.877 71.7C540.077 71.7 547.177 66.7 550.077 60.9C551.577 58 551.577 55.3 550.977 54.3ZM496.077 44.9C494.977 43.6 494.477 41 494.477 39.2C494.477 37.6 495.377 36.8 495.977 36.8C496.677 36.8 497.477 37.4 497.477 38.9C497.477 40.2 497.077 42.6 496.077 44.9ZM478.477 61.9C478.477 58.2 479.977 52.7 482.577 48C484.477 44.8 486.277 42.3 488.377 40.3C489.277 43.1 491.877 46.6 494.477 48.3C493.677 50.6 492.777 52.9 491.177 55.7C487.377 62.5 483.077 66.1 480.577 66.1C478.977 66.1 478.477 64.7 478.477 61.9ZM558.352 66.9C556.152 66.9 554.052 63.4 552.852 58.7C555.852 54.4 558.652 50.1 561.052 46.3C561.252 49 561.352 52.2 561.352 55.4C561.352 61.9 560.452 66.9 558.352 66.9ZM544.652 57.3C544.652 59.6 545.252 62 546.352 63.9C549.752 70.2 555.752 71.8 561.752 71.6C569.252 71.3 576.252 67.5 580.052 60.5C581.852 57.4 581.552 54.6 581.052 53.6C580.352 52 578.852 51.3 577.952 53.6C576.152 58.5 573.352 61.8 569.252 64.6C570.352 62.4 570.852 59.6 570.952 57.1C571.152 51.7 569.852 45.2 569.852 38.1C569.852 36.8 569.952 35.1 570.052 33.9C573.152 28.8 572.552 26.6 569.852 26.6C568.352 26.6 566.552 27.3 564.952 28.7C562.652 30.6 561.452 32.9 561.052 36.5C558.452 40.8 554.952 46 551.652 50.7C551.352 48.3 549.852 47.8 547.852 49.5C545.652 51.4 544.652 54.3 544.652 57.3ZM614.6 25.8C614.6 27.4 615.1 29.1 615.8 30.2C617.2 32.3 618.3 32.3 619.6 29.9C624.3 20.2 631.1 12.3 635.8 12.3C637.6 12.3 638.7 13.7 638.7 16.3C638.7 18.7 637.9 21.6 636.9 23.8C634 30 628.7 35.2 623.2 38.4C615.7 42.8 612.2 46.1 610.3 50.2C609.5 52.1 609.3 53.7 609.3 54.9C609.3 57.2 610.3 59.1 611.2 60C612.9 61.6 614.3 61.5 614.9 59.5C616.1 54.6 619.3 49.1 625.6 45.5C633.1 41.2 640.6 36.4 644.3 28.9C645.8 25.7 646.5 22.5 646.5 19.8C646.5 15.3 644.3 11.3 640.8 8.9C638.7 7.6 636.2 6.9 633.7 6.9C627.6 6.9 621.3 10.9 617.4 17.2C615.4 20.4 614.6 23.5 614.6 25.8ZM605.7 61.6C604.6 62.8 604 64.3 604 65.9C604 67.1 604.3 68.3 605 69.5C606.9 72.7 610.4 72.9 612.2 71C613.2 70 613.7 68.7 613.7 67.2C613.7 66.5 613.5 65.3 613 64.1C611.6 60.7 607.9 59.4 605.7 61.6Z" fill="black"/>
<path d="M313.648 228.428C312.717 249.502 306.793 265.456 295.875 276.289C284.957 287.122 269.553 292.539 249.664 292.539C228.759 292.539 212.721 285.684 201.549 271.973C190.462 258.177 184.918 238.542 184.918 213.066V181.963C184.918 156.572 190.673 137.021 202.184 123.311C213.694 109.515 229.69 102.617 250.172 102.617C270.315 102.617 285.592 108.245 296.002 119.502C306.497 130.758 312.464 146.924 313.902 167.998H276.451C276.113 154.964 274.081 145.993 270.357 141.084C266.718 136.09 259.99 133.594 250.172 133.594C240.185 133.594 233.118 137.106 228.971 144.131C224.824 151.071 222.623 162.539 222.369 178.535V213.447C222.369 231.813 224.4 244.424 228.463 251.279C232.61 258.135 239.677 261.562 249.664 261.562C259.482 261.562 266.253 259.193 269.977 254.453C273.701 249.629 275.816 240.954 276.324 228.428H313.648ZM373.951 225V290H336.627V105.156H399.596C417.877 105.156 432.434 110.827 443.268 122.168C454.186 133.509 459.645 148.236 459.645 166.348C459.645 184.46 454.27 198.763 443.521 209.258C432.773 219.753 417.877 225 398.834 225H373.951ZM373.951 193.896H399.596C406.705 193.896 412.206 191.569 416.1 186.914C419.993 182.259 421.939 175.488 421.939 166.602C421.939 157.376 419.951 150.055 415.973 144.639C411.995 139.137 406.663 136.344 399.977 136.26H373.951V193.896ZM614.273 290H577.076V210.908H521.979V290H484.654V105.156H521.979V179.932H577.076V105.156H614.273V290Z" fill="black"/>
</svg>
