<svg width="681" height="386" viewBox="0 0 681 386" fill="none" xmlns="http://www.w3.org/2000/svg">
<g clip-path="url(#clip0)">
<rect width="681" height="386" fill="white"/>
<path d="M178.484 251.797L198.82 164.141H226.047L191.184 285H165.783L131.169 164.141H158.23L178.484 251.797ZM261.823 264.746H304.655V285H237.419V164.141H261.823V264.746ZM378.117 260.264H344.831L338.357 285H312.541L350.31 164.141H372.639L410.656 285H384.592L378.117 260.264ZM350.144 239.927H372.722L361.433 196.846L350.144 239.927ZM422.028 285V164.141H453.986C468.098 164.141 479.332 168.623 487.688 177.588C496.099 186.553 500.388 198.838 500.554 214.443V234.033C500.554 249.915 496.348 262.394 487.937 271.47C479.581 280.49 468.042 285 453.322 285H422.028ZM446.433 184.478V264.746H453.737C461.872 264.746 467.6 262.616 470.92 258.354C474.24 254.038 475.984 246.623 476.15 236.108V215.107C476.15 203.818 474.572 195.96 471.418 191.533C468.264 187.051 462.896 184.699 455.315 184.478H446.433ZM533.674 247.812C533.674 240.065 534.421 233.923 535.915 229.385C537.465 224.792 540.204 220.42 544.133 216.27C548.283 211.676 551.05 207.913 552.434 204.98C553.817 202.048 554.509 199.087 554.509 196.099C554.509 186.857 551.521 182.236 545.544 182.236C542.888 182.236 540.674 183.509 538.903 186.055C537.133 188.6 536.192 192.031 536.081 196.348H512.59C512.701 185.612 515.689 177.284 521.555 171.362C527.476 165.441 535.472 162.48 545.544 162.48C555.837 162.48 563.833 165.358 569.533 171.113C575.233 176.813 578.083 184.81 578.083 195.103C578.083 203.625 574.569 211.981 567.541 220.171L560.651 227.974C558.383 230.685 556.778 233.507 555.837 236.44C554.896 239.318 554.371 243.109 554.26 247.812H533.674ZM531.516 273.213C531.516 269.45 532.706 266.379 535.085 263.999C537.52 261.619 540.591 260.43 544.299 260.43C548.117 260.43 551.216 261.647 553.596 264.082C555.975 266.462 557.165 269.505 557.165 273.213C557.165 276.865 556.003 279.909 553.679 282.344C551.355 284.779 548.228 285.996 544.299 285.996C540.425 285.996 537.326 284.779 535.002 282.344C532.678 279.909 531.516 276.865 531.516 273.213Z" fill="black"/>
<path d="M157.348 103.256C156.388 106.904 155.356 110.528 154.252 114.128C153.196 117.728 152.068 121.352 150.868 125H142.516C141.652 122.984 140.716 120.584 139.708 117.8C138.7 115.016 137.644 111.992 136.54 108.728C135.484 105.416 134.38 101.936 133.228 98.288C132.124 94.592 131.044 90.872 129.988 87.128H141.292C141.676 88.856 142.084 90.752 142.516 92.816C142.996 94.832 143.476 96.92 143.956 99.08C144.484 101.24 145.012 103.424 145.54 105.632C146.116 107.792 146.692 109.88 147.268 111.896C147.892 109.784 148.492 107.624 149.068 105.416C149.692 103.208 150.268 101.048 150.796 98.936C151.372 96.776 151.9 94.712 152.38 92.744C152.908 90.728 153.364 88.856 153.748 87.128H161.524C161.908 88.856 162.34 90.728 162.82 92.744C163.3 94.712 163.804 96.776 164.332 98.936C164.86 101.048 165.412 103.208 165.988 105.416C166.564 107.624 167.164 109.784 167.788 111.896C168.364 109.88 168.94 107.792 169.516 105.632C170.092 103.424 170.62 101.24 171.1 99.08C171.628 96.92 172.108 94.832 172.54 92.816C173.02 90.752 173.452 88.856 173.836 87.128H184.996C183.94 90.872 182.836 94.592 181.684 98.288C180.58 101.936 179.476 105.416 178.372 108.728C177.316 111.992 176.26 115.016 175.204 117.8C174.196 120.584 173.26 122.984 172.396 125H164.044C162.844 121.352 161.668 117.728 160.516 114.128C159.364 110.528 158.308 106.904 157.348 103.256ZM190.769 125V70.856L201.497 69.128V87.272C202.217 87.032 203.129 86.816 204.233 86.624C205.385 86.384 206.489 86.264 207.545 86.264C210.617 86.264 213.161 86.696 215.177 87.56C217.241 88.376 218.873 89.552 220.073 91.088C221.321 92.624 222.185 94.448 222.665 96.56C223.193 98.672 223.457 101.024 223.457 103.616V125H212.729V104.912C212.729 101.456 212.273 99.008 211.361 97.568C210.497 96.128 208.865 95.408 206.465 95.408C205.505 95.408 204.593 95.504 203.729 95.696C202.913 95.84 202.169 96.008 201.497 96.2V125H190.769ZM231.367 106.352C231.367 102.992 231.871 100.064 232.879 97.568C233.935 95.024 235.303 92.912 236.983 91.232C238.663 89.552 240.583 88.28 242.743 87.416C244.951 86.552 247.207 86.12 249.511 86.12C254.887 86.12 259.135 87.776 262.255 91.088C265.375 94.352 266.935 99.176 266.935 105.56C266.935 106.184 266.911 106.88 266.863 107.648C266.815 108.368 266.767 109.016 266.719 109.592H242.383C242.623 111.8 243.655 113.552 245.479 114.848C247.303 116.144 249.751 116.792 252.823 116.792C254.791 116.792 256.711 116.624 258.583 116.288C260.503 115.904 262.063 115.448 263.263 114.92L264.703 123.632C264.127 123.92 263.359 124.208 262.399 124.496C261.439 124.784 260.359 125.024 259.159 125.216C258.007 125.456 256.759 125.648 255.415 125.792C254.071 125.936 252.727 126.008 251.383 126.008C247.975 126.008 244.999 125.504 242.455 124.496C239.959 123.488 237.871 122.12 236.191 120.392C234.559 118.616 233.335 116.528 232.519 114.128C231.751 111.728 231.367 109.136 231.367 106.352ZM256.567 102.248C256.519 101.336 256.351 100.448 256.063 99.584C255.823 98.72 255.415 97.952 254.839 97.28C254.311 96.608 253.615 96.056 252.751 95.624C251.935 95.192 250.903 94.976 249.655 94.976C248.455 94.976 247.423 95.192 246.559 95.624C245.695 96.008 244.975 96.536 244.399 97.208C243.823 97.88 243.367 98.672 243.031 99.584C242.743 100.448 242.527 101.336 242.383 102.248H256.567ZM298.038 96.632C297.078 96.392 295.95 96.152 294.654 95.912C293.358 95.624 291.966 95.48 290.478 95.48C289.806 95.48 288.99 95.552 288.03 95.696C287.118 95.792 286.422 95.912 285.942 96.056V125H275.214V89.144C277.134 88.472 279.39 87.848 281.982 87.272C284.622 86.648 287.55 86.336 290.766 86.336C291.342 86.336 292.038 86.384 292.854 86.48C293.67 86.528 294.486 86.624 295.302 86.768C296.118 86.864 296.934 87.008 297.75 87.2C298.566 87.344 299.262 87.536 299.838 87.776L298.038 96.632ZM303.086 106.352C303.086 102.992 303.59 100.064 304.598 97.568C305.654 95.024 307.022 92.912 308.702 91.232C310.382 89.552 312.302 88.28 314.462 87.416C316.67 86.552 318.926 86.12 321.23 86.12C326.606 86.12 330.854 87.776 333.974 91.088C337.094 94.352 338.654 99.176 338.654 105.56C338.654 106.184 338.63 106.88 338.582 107.648C338.534 108.368 338.486 109.016 338.438 109.592H314.102C314.342 111.8 315.374 113.552 317.198 114.848C319.022 116.144 321.47 116.792 324.542 116.792C326.51 116.792 328.43 116.624 330.302 116.288C332.222 115.904 333.782 115.448 334.982 114.92L336.422 123.632C335.846 123.92 335.078 124.208 334.118 124.496C333.158 124.784 332.078 125.024 330.878 125.216C329.726 125.456 328.478 125.648 327.134 125.792C325.79 125.936 324.446 126.008 323.102 126.008C319.694 126.008 316.718 125.504 314.174 124.496C311.678 123.488 309.59 122.12 307.91 120.392C306.278 118.616 305.054 116.528 304.238 114.128C303.47 111.728 303.086 109.136 303.086 106.352ZM328.286 102.248C328.238 101.336 328.07 100.448 327.782 99.584C327.542 98.72 327.134 97.952 326.558 97.28C326.03 96.608 325.334 96.056 324.47 95.624C323.654 95.192 322.622 94.976 321.374 94.976C320.174 94.976 319.142 95.192 318.278 95.624C317.414 96.008 316.694 96.536 316.118 97.208C315.542 97.88 315.086 98.672 314.75 99.584C314.462 100.448 314.246 101.336 314.102 102.248H328.286ZM397.854 87.128C395.694 94.424 393.438 101.264 391.086 107.648C388.734 114.032 386.166 120.224 383.382 126.224C382.374 128.384 381.366 130.208 380.358 131.696C379.35 133.232 378.246 134.48 377.046 135.44C375.846 136.448 374.478 137.168 372.942 137.6C371.454 138.08 369.702 138.32 367.686 138.32C366.006 138.32 364.446 138.152 363.006 137.816C361.614 137.528 360.462 137.192 359.55 136.808L361.422 128.24C362.526 128.624 363.51 128.888 364.374 129.032C365.238 129.176 366.15 129.248 367.11 129.248C369.03 129.248 370.494 128.72 371.502 127.664C372.558 126.656 373.446 125.24 374.166 123.416C371.718 118.616 369.27 113.24 366.822 107.288C364.374 101.288 362.07 94.568 359.91 87.128H371.286C371.766 89 372.318 91.04 372.942 93.248C373.614 95.408 374.31 97.616 375.03 99.872C375.75 102.08 376.47 104.24 377.19 106.352C377.958 108.464 378.678 110.384 379.35 112.112C379.974 110.384 380.622 108.464 381.294 106.352C381.966 104.24 382.614 102.08 383.238 99.872C383.91 97.616 384.534 95.408 385.11 93.248C385.734 91.04 386.286 89 386.766 87.128H397.854ZM438.044 105.992C438.044 108.968 437.612 111.704 436.748 114.2C435.884 116.648 434.636 118.76 433.004 120.536C431.372 122.264 429.404 123.608 427.1 124.568C424.844 125.528 422.3 126.008 419.468 126.008C416.684 126.008 414.14 125.528 411.836 124.568C409.58 123.608 407.636 122.264 406.004 120.536C404.372 118.76 403.1 116.648 402.188 114.2C401.276 111.704 400.82 108.968 400.82 105.992C400.82 103.016 401.276 100.304 402.188 97.856C403.148 95.408 404.444 93.32 406.076 91.592C407.756 89.864 409.724 88.52 411.98 87.56C414.284 86.6 416.78 86.12 419.468 86.12C422.204 86.12 424.7 86.6 426.956 87.56C429.26 88.52 431.228 89.864 432.86 91.592C434.492 93.32 435.764 95.408 436.676 97.856C437.588 100.304 438.044 103.016 438.044 105.992ZM427.1 105.992C427.1 102.68 426.428 100.088 425.084 98.216C423.788 96.296 421.916 95.336 419.468 95.336C417.02 95.336 415.124 96.296 413.78 98.216C412.436 100.088 411.764 102.68 411.764 105.992C411.764 109.304 412.436 111.944 413.78 113.912C415.124 115.832 417.02 116.792 419.468 116.792C421.916 116.792 423.788 115.832 425.084 113.912C426.428 111.944 427.1 109.304 427.1 105.992ZM478.683 123.704C476.859 124.232 474.507 124.712 471.627 125.144C468.747 125.624 465.723 125.864 462.555 125.864C459.339 125.864 456.651 125.432 454.491 124.568C452.379 123.704 450.699 122.504 449.451 120.968C448.203 119.384 447.315 117.512 446.787 115.352C446.259 113.192 445.995 110.816 445.995 108.224V87.128H456.723V106.928C456.723 110.384 457.179 112.88 458.091 114.416C459.003 115.952 460.707 116.72 463.203 116.72C463.971 116.72 464.787 116.696 465.651 116.648C466.515 116.552 467.283 116.456 467.955 116.36V87.128H478.683V123.704ZM520.522 117.512C521.578 117.512 522.586 117.488 523.546 117.44C524.506 117.392 525.274 117.32 525.85 117.224V109.088C525.418 108.992 524.77 108.896 523.906 108.8C523.042 108.704 522.25 108.656 521.53 108.656C520.522 108.656 519.562 108.728 518.65 108.872C517.786 108.968 517.018 109.184 516.346 109.52C515.674 109.856 515.146 110.312 514.762 110.888C514.378 111.464 514.186 112.184 514.186 113.048C514.186 114.728 514.738 115.904 515.842 116.576C516.994 117.2 518.554 117.512 520.522 117.512ZM519.658 86.12C522.826 86.12 525.466 86.48 527.578 87.2C529.69 87.92 531.37 88.952 532.618 90.296C533.914 91.64 534.826 93.272 535.354 95.192C535.882 97.112 536.146 99.248 536.146 101.6V123.92C534.61 124.256 532.474 124.64 529.738 125.072C527.002 125.552 523.69 125.792 519.802 125.792C517.354 125.792 515.122 125.576 513.106 125.144C511.138 124.712 509.434 124.016 507.994 123.056C506.554 122.048 505.45 120.752 504.682 119.168C503.914 117.584 503.53 115.64 503.53 113.336C503.53 111.128 503.962 109.256 504.826 107.72C505.738 106.184 506.938 104.96 508.426 104.048C509.914 103.136 511.618 102.488 513.538 102.104C515.458 101.672 517.45 101.456 519.514 101.456C520.906 101.456 522.13 101.528 523.186 101.672C524.29 101.768 525.178 101.912 525.85 102.104V101.096C525.85 99.272 525.298 97.808 524.194 96.704C523.09 95.6 521.17 95.048 518.434 95.048C516.61 95.048 514.81 95.192 513.034 95.48C511.258 95.72 509.722 96.08 508.426 96.56L507.058 87.92C507.682 87.728 508.45 87.536 509.362 87.344C510.322 87.104 511.354 86.912 512.458 86.768C513.562 86.576 514.714 86.432 515.914 86.336C517.162 86.192 518.41 86.12 519.658 86.12ZM545.487 77.696L556.215 75.968V87.128H569.103V96.056H556.215V109.376C556.215 111.632 556.599 113.432 557.367 114.776C558.183 116.12 559.791 116.792 562.191 116.792C563.343 116.792 564.519 116.696 565.719 116.504C566.967 116.264 568.095 115.952 569.103 115.568L570.615 123.92C569.319 124.448 567.879 124.904 566.295 125.288C564.711 125.672 562.767 125.864 560.463 125.864C557.535 125.864 555.111 125.48 553.191 124.712C551.271 123.896 549.735 122.792 548.583 121.4C547.431 119.96 546.615 118.232 546.135 116.216C545.703 114.2 545.487 111.968 545.487 109.52V77.696Z" fill="black"/>
</g>
<defs>
<clipPath id="clip0">
<rect width="681" height="386" fill="white"/>
</clipPath>
</defs>
</svg>
