  0
SECTION
  2
HEADER
  9
$ACADVER
  1
AC1018
  9
$ACADMAINTVER
 70
     0
  9
$DWGCODEPAGE
  3
ANSI_932
  9
$INSBASE
 10
0.0
 20
0.0
 30
0.0
  9
$EXTMIN
 10
1.000000000000000E+20
 20
1.000000000000000E+20
 30
1.000000000000000E+20
  9
$EXTMAX
 10
-1.000000000000000E+20
 20
-1.000000000000000E+20
 30
-1.000000000000000E+20
  9
$LIMMIN
 10
0.0
 20
0.0
  9
$LIMMAX
 10
12.0
 20
9.0
  9
$ORTHOMODE
 70
     0
  9
$REGENMODE
 70
     1
  9
$FILLMODE
 70
     1
  9
$QTEXTMODE
 70
     0
  9
$MIRRTEXT
 70
     1
  9
$LTSCALE
 40
1.0
  9
$ATTMODE
 70
     1
  9
$TEXTSIZE
 40
0.2
  9
$TRACEWID
 40
0.05
  9
$TEXTSTYLE
  7
Standard
  9
$CLAYER
  8
0
  9
$CELTYPE
  6
ByLayer
  9
$CECOLOR
 62
   256
  9
$CELTSCALE
 40
1.0
  9
$DISPSILH
 70
     0
  9
$DIMSCALE
 40
1.0
  9
$DIMASZ
 40
0.18
  9
$DIMEXO
 40
0.0625
  9
$DIMDLI
 40
0.38
  9
$DIMRND
 40
0.0
  9
$DIMDLE
 40
0.0
  9
$DIMEXE
 40
0.18
  9
$DIMTP
 40
0.0
  9
$DIMTM
 40
0.0
  9
$DIMTXT
 40
0.18
  9
$DIMCEN
 40
0.09
  9
$DIMTSZ
 40
0.0
  9
$DIMTOL
 70
     0
  9
$DIMLIM
 70
     0
  9
$DIMTIH
 70
     1
  9
$DIMTOH
 70
     1
  9
$DIMSE1
 70
     0
  9
$DIMSE2
 70
     0
  9
$DIMTAD
 70
     0
  9
$DIMZIN
 70
     0
  9
$DIMBLK
  1

  9
$DIMASO
 70
     1
  9
$DIMSHO
 70
     1
  9
$DIMPOST
  1

  9
$DIMAPOST
  1

  9
$DIMALT
 70
     0
  9
$DIMALTD
 70
     2
  9
$DIMALTF
 40
25.4
  9
$DIMLFAC
 40
1.0
  9
$DIMTOFL
 70
     0
  9
$DIMTVP
 40
0.0
  9
$DIMTIX
 70
     0
  9
$DIMSOXD
 70
     0
  9
$DIMSAH
 70
     0
  9
$DIMBLK1
  1

  9
$DIMBLK2
  1

  9
$DIMSTYLE
  2
Standard
  9
$DIMCLRD
 70
     0
  9
$DIMCLRE
 70
     0
  9
$DIMCLRT
 70
     0
  9
$DIMTFAC
 40
1.0
  9
$DIMGAP
 40
0.09
  9
$DIMJUST
 70
     0
  9
$DIMSD1
 70
     0
  9
$DIMSD2
 70
     0
  9
$DIMTOLJ
 70
     1
  9
$DIMTZIN
 70
     0
  9
$DIMALTZ
 70
     0
  9
$DIMALTTZ
 70
     0
  9
$DIMUPT
 70
     0
  9
$DIMDEC
 70
     4
  9
$DIMTDEC
 70
     4
  9
$DIMALTU
 70
     2
  9
$DIMALTTD
 70
     2
  9
$DIMTXSTY
  7
Standard
  9
$DIMAUNIT
 70
     0
  9
$DIMADEC
 70
     0
  9
$DIMALTRND
 40
0.0
  9
$DIMAZIN
 70
     0
  9
$DIMDSEP
 70
    46
  9
$DIMATFIT
 70
     3
  9
$DIMFRAC
 70
     0
  9
$DIMLDRBLK
  1

  9
$DIMLUNIT
 70
     2
  9
$DIMLWD
 70
    -2
  9
$DIMLWE
 70
    -2
  9
$DIMTMOVE
 70
     0
  9
$LUNITS
 70
     2
  9
$LUPREC
 70
     4
  9
$SKETCHINC
 40
0.1
  9
$FILLETRAD
 40
0.5
  9
$AUNITS
 70
     0
  9
$AUPREC
 70
     0
  9
$MENU
  1
.
  9
$ELEVATION
 40
0.0
  9
$PELEVATION
 40
0.0
  9
$THICKNESS
 40
0.0
  9
$LIMCHECK
 70
     0
  9
$CHAMFERA
 40
0.5
  9
$CHAMFERB
 40
0.5
  9
$CHAMFERC
 40
1.0
  9
$CHAMFERD
 40
0.0
  9
$SKPOLY
 70
     0
  9
$TDCREATE
 40
2458389.804826389
  9
$TDUCREATE
 40
2458389.763159722
  9
$TDUPDATE
 40
2458389.8048264
  9
$TDUUPDATE
 40
2458389.763159734
  9
$TDINDWG
 40
0.0000000116
  9
$TDUSRTIMER
 40
0.0000000116
  9
$USRTIMER
 70
     1
  9
$ANGBASE
 50
0.0
  9
$ANGDIR
 70
     0
  9
$PDMODE
 70
     0
  9
$PDSIZE
 40
0.0
  9
$PLINEWID
 40
0.0
  9
$SPLFRAME
 70
     0
  9
$SPLINETYPE
 70
     6
  9
$SPLINESEGS
 70
     8
  9
$HANDSEED
  5
8B
  9
$SURFTAB1
 70
     6
  9
$SURFTAB2
 70
     6
  9
$SURFTYPE
 70
     6
  9
$SURFU
 70
     6
  9
$SURFV
 70
     6
  9
$UCSBASE
  2

  9
$UCSNAME
  2

  9
$UCSORG
 10
0.0
 20
0.0
 30
0.0
  9
$UCSXDIR
 10
1.0
 20
0.0
 30
0.0
  9
$UCSYDIR
 10
0.0
 20
1.0
 30
0.0
  9
$UCSORTHOREF
  2

  9
$UCSORTHOVIEW
 70
     0
  9
$UCSORGTOP
 10
0.0
 20
0.0
 30
0.0
  9
$UCSORGBOTTOM
 10
0.0
 20
0.0
 30
0.0
  9
$UCSORGLEFT
 10
0.0
 20
0.0
 30
0.0
  9
$UCSORGRIGHT
 10
0.0
 20
0.0
 30
0.0
  9
$UCSORGFRONT
 10
0.0
 20
0.0
 30
0.0
  9
$UCSORGBACK
 10
0.0
 20
0.0
 30
0.0
  9
$PUCSBASE
  2

  9
$PUCSNAME
  2

  9
$PUCSORG
 10
0.0
 20
0.0
 30
0.0
  9
$PUCSXDIR
 10
1.0
 20
0.0
 30
0.0
  9
$PUCSYDIR
 10
0.0
 20
1.0
 30
0.0
  9
$PUCSORTHOREF
  2

  9
$PUCSORTHOVIEW
 70
     0
  9
$PUCSORGTOP
 10
0.0
 20
0.0
 30
0.0
  9
$PUCSORGBOTTOM
 10
0.0
 20
0.0
 30
0.0
  9
$PUCSORGLEFT
 10
0.0
 20
0.0
 30
0.0
  9
$PUCSORGRIGHT
 10
0.0
 20
0.0
 30
0.0
  9
$PUCSORGFRONT
 10
0.0
 20
0.0
 30
0.0
  9
$PUCSORGBACK
 10
0.0
 20
0.0
 30
0.0
  9
$USERI1
 70
     0
  9
$USERI2
 70
     0
  9
$USERI3
 70
     0
  9
$USERI4
 70
     0
  9
$USERI5
 70
     0
  9
$USERR1
 40
0.0
  9
$USERR2
 40
0.0
  9
$USERR3
 40
0.0
  9
$USERR4
 40
0.0
  9
$USERR5
 40
0.0
  9
$WORLDVIEW
 70
     1
  9
$SHADEDGE
 70
     3
  9
$SHADEDIF
 70
    70
  9
$TILEMODE
 70
     1
  9
$MAXACTVP
 70
    64
  9
$PINSBASE
 10
0.0
 20
0.0
 30
0.0
  9
$PLIMCHECK
 70
     0
  9
$PEXTMIN
 10
1.000000000000000E+20
 20
1.000000000000000E+20
 30
1.000000000000000E+20
  9
$PEXTMAX
 10
-1.000000000000000E+20
 20
-1.000000000000000E+20
 30
-1.000000000000000E+20
  9
$PLIMMIN
 10
0.0
 20
0.0
  9
$PLIMMAX
 10
12.0
 20
9.0
  9
$UNITMODE
 70
     0
  9
$VISRETAIN
 70
     1
  9
$PLINEGEN
 70
     0
  9
$PSLTSCALE
 70
     1
  9
$TREEDEPTH
 70
  3020
  9
$CMLSTYLE
  2
Standard
  9
$CMLJUST
 70
     0
  9
$CMLSCALE
 40
1.0
  9
$PROXYGRAPHICS
 70
     1
  9
$MEASUREMENT
 70
     0
  9
$CELWEIGHT
370
    -1
  9
$ENDCAPS
280
     0
  9
$JOINSTYLE
280
     0
  9
$LWDISPLAY
290
     1
  9
$INSUNITS
 70
     1
  9
$HYPERLINKBASE
  1

  9
$STYLESHEET
  1

  9
$XEDIT
290
     1
  9
$CEPSNTYPE
380
     0
  9
$PSTYLEMODE
290
     1
  9
$FINGERPRINTGUID
  2
{D14DDC2B-C412-71CE-14A9-4CE383AA0325}
  9
$VERSIONGUID
  2
{FAEB1C32-E019-11D5-929B-00C0DF256EC4}
  9
$EXTNAMES
290
     1
  9
$PSVPSCALE
 40
0.0
  9
$OLESTARTUP
290
     0
  9
$SORTENTS
280
   127
  9
$INDEXCTL
280
     0
  9
$HIDETEXT
280
     1
  9
$XCLIPFRAME
290
     0
  9
$HALOGAP
280
     0
  9
$OBSCOLOR
 70
   257
  9
$OBSLTYPE
280
     0
  9
$INTERSECTIONDISPLAY
280
     0
  9
$INTERSECTIONCOLOR
 70
   257
  9
$DIMASSOC
280
     2
  9
$PROJECTNAME
  1

  0
ENDSEC
  0
SECTION
  2
CLASSES
  0
CLASS
  1
ACDBDICTIONARYWDFLT
  2
AcDbDictionaryWithDefault
  3
ObjectDBX Classes
 90
        0
 91
        3
280
     0
281
     0
  0
CLASS
  1
VISUALSTYLE
  2
AcDbVisualStyle
  3
ObjectDBX Classes
 90
     4095
 91
        3
280
     0
281
     0
  0
ENDSEC
  0
SECTION
  2
TABLES
  0
TABLE
  2
VPORT
  5
8
330
0
100
AcDbSymbolTable
 70
     1
  0
VPORT
  5
29
330
8
100
AcDbSymbolTableRecord
100
AcDbViewportTableRecord
  2
*Active
 70
     0
 10
0.0
 20
0.0
 11
1.0
 21
1.0
 12
0.0
 22
0.0
 13
0.0
 23
0.0
 14
0.5
 24
0.5
 15
0.5
 25
0.5
 16
0.0
 26
0.0
 36
1.0
 17
104.9514580985449
 27
148.3431533796239
 37
0.0
 40
136.1723120202969
 41
1.764248704663212
 42
50.0
 43
0.0
 44
0.0
 50
0.0
 51
0.0
 71
     0
 72
   100
 73
     1
 74
     3
 75
     0
 76
     0
 77
     0
 78
     0
281
     0
 65
     1
110
0.0
120
0.0
130
0.0
111
1.0
121
0.0
131
0.0
112
0.0
122
1.0
132
0.0
 79
     0
146
0.0
  0
ENDTAB
  0
TABLE
  2
LTYPE
  5
5
330
0
100
AcDbSymbolTable
 70
     1
  0
LTYPE
  5
14
330
5
100
AcDbSymbolTableRecord
100
AcDbLinetypeTableRecord
  2
ByBlock
 70
     0
  3

 72
    65
 73
     0
 40
0.0
  0
LTYPE
  5
15
330
5
100
AcDbSymbolTableRecord
100
AcDbLinetypeTableRecord
  2
ByLayer
 70
     0
  3

 72
    65
 73
     0
 40
0.0
  0
LTYPE
  5
16
330
5
100
AcDbSymbolTableRecord
100
AcDbLinetypeTableRecord
  2
Continuous
 70
     0
  3
Solid line
 72
    65
 73
     0
 40
0.0
  0
ENDTAB
  0
TABLE
  2
LAYER
  5
2
330
0
100
AcDbSymbolTable
 70
     2
  0
LAYER
  5
10
330
2
100
AcDbSymbolTableRecord
100
AcDbLayerTableRecord
  2
0
 70
     0
 62
     7
  6
Continuous
370
    -3
390
F
  0
LAYER
  5
3B
330
2
100
AcDbSymbolTableRecord
100
AcDbLayerTableRecord
  2
Layer 1
 70
     0
 62
     7
  6
Continuous
370
    -3
390
F
  0
ENDTAB
  0
TABLE
  2
STYLE
  5
3
330
0
100
AcDbSymbolTable
 70
     1
  0
STYLE
  5
11
330
3
100
AcDbSymbolTableRecord
100
AcDbTextStyleTableRecord
  2
Standard
 70
     0
 40
0.0
 41
1.0
 50
0.0
 71
     0
 42
0.2
  3
txt
  4

  0
ENDTAB
  0
TABLE
  2
VIEW
  5
6
330
0
100
AcDbSymbolTable
 70
     0
  0
ENDTAB
  0
TABLE
  2
UCS
  5
7
330
0
100
AcDbSymbolTable
 70
     0
  0
ENDTAB
  0
TABLE
  2
APPID
  5
9
330
0
100
AcDbSymbolTable
 70
     1
  0
APPID
  5
12
330
9
100
AcDbSymbolTableRecord
100
AcDbRegAppTableRecord
  2
ACAD
 70
     0
  0
ENDTAB
  0
TABLE
  2
DIMSTYLE
  5
A
330
0
100
AcDbSymbolTable
 70
     1
100
AcDbDimStyleTable
  0
DIMSTYLE
105
27
330
A
100
AcDbSymbolTableRecord
100
AcDbDimStyleTableRecord
  2
Standard
 70
     0
340
11
  0
ENDTAB
  0
TABLE
  2
BLOCK_RECORD
  5
1
330
0
100
AcDbSymbolTable
 70
     3
  0
BLOCK_RECORD
  5
1F
330
1
100
AcDbSymbolTableRecord
100
AcDbBlockTableRecord
  2
*Model_Space
340
22
  0
BLOCK_RECORD
  5
1B
330
1
100
AcDbSymbolTableRecord
100
AcDbBlockTableRecord
  2
*Paper_Space
340
1E
  0
BLOCK_RECORD
  5
23
330
1
100
AcDbSymbolTableRecord
100
AcDbBlockTableRecord
  2
*Paper_Space0
340
26
  0
BLOCK_RECORD
  5
3C
330
1
100
AcDbSymbolTableRecord
100
AcDbBlockTableRecord
  2
block 2
340
0
102
{BLKREFS
331
3D
102
}
  0
BLOCK_RECORD
  5
47
330
1
100
AcDbSymbolTableRecord
100
AcDbBlockTableRecord
  2
block 3
340
0
102
{BLKREFS
331
48
102
}
  0
ENDTAB
  0
ENDSEC
  0
SECTION
  2
BLOCKS
  0
BLOCK
  5
20
330
1F
100
AcDbEntity
  8
0
100
AcDbBlockBegin
  2
*Model_Space
 70
     0
 71
     0
 10
0.0
 20
0.0
 30
0.0
  3
*Model_Space
  1

  0
ENDBLK
  5
21
330
1F
100
AcDbEntity
  8
0
100
AcDbBlockEnd
  0
BLOCK
  5
1C
330
1B
100
AcDbEntity
 67
     1
  8
0
100
AcDbBlockBegin
  2
*Paper_Space
 70
     0
 71
     0
 10
0.0
 20
0.0
 30
0.0
  3
*Paper_Space
  1

  0
ENDBLK
  5
1D
330
1B
100
AcDbEntity
 67
     1
  8
0
100
AcDbBlockEnd
  0
BLOCK
  5
24
330
23
100
AcDbEntity
  8
0
100
AcDbBlockBegin
  2
*Paper_Space0
 70
     0
 71
     0
 10
0.0
 20
0.0
 30
0.0
  3
*Paper_Space0
  1

  0
ENDBLK
  5
25
330
23
100
AcDbEntity
  8
0
100
AcDbBlockEnd
  0
BLOCK
  5
3E
330
3C
100
AcDbEntity
  8
0
100
AcDbBlockBegin
  2
block 2
 70
     0
 71
     0
 10
0.0
 20
0.0
 30
0.0
  3
block 2
  1

  0
POLYLINE
  5
40
330
3C
100
AcDbEntity
  8
Layer 1
370
     0
100
AcDb2dPolyline
 66
     1
 10
0.0
 20
0.0
 30
0.0
  0
VERTEX
  5
41
330
40
100
AcDbEntity
  8
Layer 1
370
     0
100
AcDbVertex
100
AcDb2dVertex
 10
-15.16945444785691
 20
216.4293093897724
 30
0.0
  0
VERTEX
  5
42
330
40
100
AcDbEntity
  8
Layer 1
370
     0
100
AcDbVertex
100
AcDb2dVertex
 10
225.0723706449467
 20
216.4293093897724
 30
0.0
  0
VERTEX
  5
43
330
40
100
AcDbEntity
  8
Layer 1
370
     0
100
AcDbVertex
100
AcDb2dVertex
 10
225.0723706449467
 20
80.2569973694755
 30
0.0
  0
VERTEX
  5
44
330
40
100
AcDbEntity
  8
Layer 1
370
     0
100
AcDbVertex
100
AcDb2dVertex
 10
-15.16945444785691
 20
80.2569973694755
 30
0.0
  0
VERTEX
  5
45
330
40
100
AcDbEntity
  8
Layer 1
370
     0
100
AcDbVertex
100
AcDb2dVertex
 10
-15.16945444785691
 20
216.4293093897724
 30
0.0
  0
SEQEND
  5
46
330
40
100
AcDbEntity
  8
Layer 1
370
     0
  0
INSERT
  5
48
330
3C
100
AcDbEntity
  8
Layer 1
100
AcDbBlockReference
  2
block 3
 10
0.0
 20
0.0
 30
0.0
  0
ENDBLK
  5
3F
330
3C
100
AcDbEntity
  8
0
100
AcDbBlockEnd
  0
BLOCK
  5
49
330
47
100
AcDbEntity
  8
0
100
AcDbBlockBegin
  2
block 3
 70
     0
 71
     0
 10
0.0
 20
0.0
 30
0.0
  3
block 3
  1

  0
POLYLINE
  5
4B
330
47
100
AcDbEntity
  8
Layer 1
370
     0
100
AcDb2dPolyline
 66
     1
 10
0.0
 20
0.0
 30
0.0
  0
VERTEX
  5
4C
330
4B
100
AcDbEntity
  8
Layer 1
370
     0
100
AcDbVertex
100
AcDb2dVertex
 10
-15.16945444785691
 20
216.4293093897724
 30
0.0
  0
VERTEX
  5
4D
330
4B
100
AcDbEntity
  8
Layer 1
370
     0
100
AcDbVertex
100
AcDb2dVertex
 10
225.0723706449467
 20
216.4293093897724
 30
0.0
  0
VERTEX
  5
4E
330
4B
100
AcDbEntity
  8
Layer 1
370
     0
100
AcDbVertex
100
AcDb2dVertex
 10
225.0723706449467
 20
80.2569973694755
 30
0.0
  0
VERTEX
  5
4F
330
4B
100
AcDbEntity
  8
Layer 1
370
     0
100
AcDbVertex
100
AcDb2dVertex
 10
-15.16945444785691
 20
80.2569973694755
 30
0.0
  0
VERTEX
  5
50
330
4B
100
AcDbEntity
  8
Layer 1
370
     0
100
AcDbVertex
100
AcDb2dVertex
 10
-15.16945444785691
 20
216.4293093897724
 30
0.0
  0
SEQEND
  5
51
330
4B
100
AcDbEntity
  8
Layer 1
370
     0
  0
POLYLINE
  5
52
330
47
100
AcDbEntity
  8
Layer 1
370
     0
100
AcDb2dPolyline
 66
     1
 10
0.0
 20
0.0
 30
0.0
  0
VERTEX
  5
53
330
52
100
AcDbEntity
  8
Layer 1
370
     0
100
AcDbVertex
100
AcDb2dVertex
 10
47.79556374508149
 20
127.6009087984882
 30
0.0
  0
VERTEX
  5
54
330
52
100
AcDbEntity
  8
Layer 1
370
     0
100
AcDbVertex
100
AcDb2dVertex
 10
54.96963531626091
 20
158.5239340190644
 30
0.0
  0
VERTEX
  5
55
330
52
100
AcDbEntity
  8
Layer 1
370
     0
100
AcDbVertex
100
AcDb2dVertex
 10
64.5749123752339
 20
158.5239340190644
 30
0.0
  0
VERTEX
  5
56
330
52
100
AcDbEntity
  8
Layer 1
370
     0
100
AcDbVertex
100
AcDb2dVertex
 10
52.27591337931066
 20
115.8875764214185
 30
0.0
  0
VERTEX
  5
57
330
52
100
AcDbEntity
  8
Layer 1
370
     0
100
AcDbVertex
100
AcDb2dVertex
 10
43.31521411085231
 20
115.8875764214185
 30
0.0
  0
VERTEX
  5
58
330
52
100
AcDbEntity
  8
Layer 1
370
     0
100
AcDbVertex
100
AcDb2dVertex
 10
31.1040651077571
 20
158.5239340190644
 30
0.0
  0
VERTEX
  5
59
330
52
100
AcDbEntity
  8
Layer 1
370
     0
100
AcDbVertex
100
AcDb2dVertex
 10
40.65043099506894
 20
158.5239340190644
 30
0.0
  0
VERTEX
  5
5A
330
52
100
AcDbEntity
  8
Layer 1
370
     0
100
AcDbVertex
100
AcDb2dVertex
 10
47.79556374508149
 20
127.6009087984882
 30
0.0
  0
SEQEND
  5
5B
330
52
100
AcDbEntity
  8
Layer 1
370
     0
  0
POLYLINE
  5
5C
330
47
100
AcDbEntity
  8
Layer 1
370
     0
100
AcDb2dPolyline
 66
     1
 10
0.0
 20
0.0
 30
0.0
  0
VERTEX
  5
5D
330
5C
100
AcDbEntity
  8
Layer 1
370
     0
100
AcDbVertex
100
AcDb2dVertex
 10
77.19568350175074
 20
123.032709171431
 30
0.0
  0
VERTEX
  5
5E
330
5C
100
AcDbEntity
  8
Layer 1
370
     0
100
AcDbVertex
100
AcDb2dVertex
 10
92.3058822681707
 20
123.032709171431
 30
0.0
  0
VERTEX
  5
5F
330
5C
100
AcDbEntity
  8
Layer 1
370
     0
100
AcDbVertex
100
AcDb2dVertex
 10
92.3058822681707
 20
115.8875764214185
 30
0.0
  0
VERTEX
  5
60
330
5C
100
AcDbEntity
  8
Layer 1
370
     0
100
AcDbVertex
100
AcDb2dVertex
 10
68.58672871438027
 20
115.8875764214185
 30
0.0
  0
VERTEX
  5
61
330
5C
100
AcDbEntity
  8
Layer 1
370
     0
100
AcDbVertex
100
AcDb2dVertex
 10
68.58672871438027
 20
158.5239340190644
 30
0.0
  0
VERTEX
  5
62
330
5C
100
AcDbEntity
  8
Layer 1
370
     0
100
AcDbVertex
100
AcDb2dVertex
 10
77.19568350175074
 20
158.5239340190644
 30
0.0
  0
VERTEX
  5
63
330
5C
100
AcDbEntity
  8
Layer 1
370
     0
100
AcDbVertex
100
AcDb2dVertex
 10
77.19568350175074
 20
123.032709171431
 30
0.0
  0
SEQEND
  5
64
330
5C
100
AcDbEntity
  8
Layer 1
370
     0
  0
POLYLINE
  5
65
330
47
100
AcDbEntity
  8
Layer 1
370
     0
100
AcDb2dPolyline
 66
     1
 10
0.0
 20
0.0
 30
0.0
  0
VERTEX
  5
66
330
65
100
AcDbEntity
  8
Layer 1
370
     0
100
AcDbVertex
100
AcDb2dVertex
 10
118.2216301524375
 20
124.6140090423354
 30
0.0
  0
VERTEX
  5
67
330
65
100
AcDbEntity
  8
Layer 1
370
     0
100
AcDbVertex
100
AcDb2dVertex
 10
106.4790144444251
 20
124.6140090423354
 30
0.0
  0
VERTEX
  5
68
330
65
100
AcDbEntity
  8
Layer 1
370
     0
100
AcDbVertex
100
AcDb2dVertex
 10
104.1952591406723
 20
115.8875764214185
 30
0.0
  0
VERTEX
  5
69
330
65
100
AcDbEntity
  8
Layer 1
370
     0
100
AcDbVertex
100
AcDb2dVertex
 10
95.08779870772477
 20
115.8875764214185
 30
0.0
  0
VERTEX
  5
6A
330
65
100
AcDbEntity
  8
Layer 1
370
     0
100
AcDbVertex
100
AcDb2dVertex
 10
108.4120587964174
 20
158.5239340190644
 30
0.0
  0
VERTEX
  5
6B
330
65
100
AcDbEntity
  8
Layer 1
370
     0
100
AcDbVertex
100
AcDb2dVertex
 10
116.2892748199968
 20
158.5239340190644
 30
0.0
  0
VERTEX
  5
6C
330
65
100
AcDbEntity
  8
Layer 1
370
     0
100
AcDbVertex
100
AcDb2dVertex
 10
129.7006958819659
 20
115.8875764214185
 30
0.0
  0
VERTEX
  5
6D
330
65
100
AcDbEntity
  8
Layer 1
370
     0
100
AcDbVertex
100
AcDb2dVertex
 10
120.5060744757419
 20
115.8875764214185
 30
0.0
  0
VERTEX
  5
6E
330
65
100
AcDbEntity
  8
Layer 1
370
     0
100
AcDbVertex
100
AcDb2dVertex
 10
118.2216301524375
 20
124.6140090423354
 30
0.0
  0
SEQEND
  5
6F
330
65
100
AcDbEntity
  8
Layer 1
370
     0
  0
POLYLINE
  5
70
330
47
100
AcDbEntity
  8
Layer 1
370
     0
100
AcDb2dPolyline
 66
     1
 10
0.0
 20
0.0
 30
0.0
  0
VERTEX
  5
71
330
70
100
AcDbEntity
  8
Layer 1
370
     0
100
AcDbVertex
100
AcDb2dVertex
 10
108.353492134532
 20
131.7884251232906
 30
0.0
  0
VERTEX
  5
72
330
70
100
AcDbEntity
  8
Layer 1
370
     0
100
AcDbVertex
100
AcDb2dVertex
 10
116.3185581509395
 20
131.7884251232906
 30
0.0
  0
VERTEX
  5
73
330
70
100
AcDbEntity
  8
Layer 1
370
     0
100
AcDbVertex
100
AcDb2dVertex
 10
112.3360251427357
 20
146.9864738825386
 30
0.0
  0
VERTEX
  5
74
330
70
100
AcDbEntity
  8
Layer 1
370
     0
100
AcDbVertex
100
AcDb2dVertex
 10
108.353492134532
 20
131.7884251232906
 30
0.0
  0
SEQEND
  5
75
330
70
100
AcDbEntity
  8
Layer 1
370
     0
  0
SPLINE
  5
76
330
47
100
AcDbEntity
  8
Layer 1
370
     0
100
AcDbSpline
210
0.0
220
0.0
230
1.0
 70
    11
 71
     3
 72
    29
 73
    25
 74
     0
 42
0.0000000001
 43
0.0000000001
 40
0.0
 40
0.0
 40
0.0
 40
0.0
 40
1.0
 40
1.0
 40
1.0
 40
2.0
 40
2.0
 40
2.0
 40
3.0
 40
3.0
 40
3.0
 40
4.0
 40
4.0
 40
4.0
 40
5.0
 40
5.0
 40
5.0
 40
6.0
 40
6.0
 40
6.0
 40
7.0
 40
7.0
 40
7.0
 40
8.0
 40
8.0
 40
8.0
 40
8.0
 10
133.7125122211122
 20
115.8875764214185
 30
0.0
 10
133.7125122211122
 20
115.8875764214185
 30
0.0
 10
133.7125122211122
 20
158.5239340190644
 30
0.0
 10
133.7125122211122
 20
158.5239340190644
 30
0.0
 10
133.7125122211122
 20
158.5239340190644
 30
0.0
 10
144.9865946340419
 20
158.5239340190644
 30
0.0
 10
144.9865946340419
 20
158.5239340190644
 30
0.0
 10
149.9651054040723
 20
158.5239340190644
 30
0.0
 10
153.9280013550556
 20
156.9428064030479
 30
0.0
 10
156.8759715065434
 20
153.7802066612391
 30
0.0
 10
159.8432342054759
 20
150.6176069194302
 30
0.0
 10
161.3563211407726
 20
146.2836739399145
 30
0.0
 10
161.414887802658
 20
140.7784077226917
 30
0.0
 10
161.414887802658
 20
140.7784077226917
 30
0.0
 10
161.414887802658
 20
133.8675416202205
 30
0.0
 10
161.414887802658
 20
133.8675416202205
 30
0.0
 10
161.414887802658
 20
128.2647791364474
 30
0.0
 10
159.9310841983039
 20
123.8622887115482
 30
0.0
 10
156.9638214993715
 20
120.6607593650744
 30
0.0
 10
154.0158513478837
 20
117.4785225660452
 30
0.0
 10
149.9451238370761
 20
115.8875764214185
 30
0.0
 10
144.7523279865005
 20
115.8875764214185
 30
0.0
 10
144.7523279865005
 20
115.8875764214185
 30
0.0
 10
133.7125122211122
 20
115.8875764214185
 30
0.0
 10
133.7125122211122
 20
115.8875764214185
 30
0.0
  0
SPLINE
  5
77
330
47
100
AcDbEntity
  8
Layer 1
370
     0
100
AcDbSpline
210
0.0
220
0.0
230
1.0
 70
    11
 71
     3
 72
    29
 73
    25
 74
     0
 42
0.0000000001
 43
0.0000000001
 40
0.0
 40
0.0
 40
0.0
 40
0.0
 40
1.0
 40
1.0
 40
1.0
 40
2.0
 40
2.0
 40
2.0
 40
3.0
 40
3.0
 40
3.0
 40
4.0
 40
4.0
 40
4.0
 40
5.0
 40
5.0
 40
5.0
 40
6.0
 40
6.0
 40
6.0
 40
7.0
 40
7.0
 40
7.0
 40
8.0
 40
8.0
 40
8.0
 40
8.0
 10
142.3221560280343
 20
151.3495179381092
 30
0.0
 10
142.3221560280343
 20
151.3495179381092
 30
0.0
 10
142.3221560280343
 20
123.032709171431
 30
0.0
 10
142.3221560280343
 20
123.032709171431
 30
0.0
 10
142.3221560280343
 20
123.032709171431
 30
0.0
 10
144.8987446412139
 20
123.032709171431
 30
0.0
 10
144.8987446412139
 20
123.032709171431
 30
0.0
 10
147.7685110735959
 20
123.032709171431
 30
0.0
 10
149.7894054184163
 20
123.7840849924424
 30
0.0
 10
150.9607386561232
 20
125.2878701637927
 30
0.0
 10
152.1317273840544
 20
126.810258863036
 30
0.0
 10
152.7470218436264
 20
129.4261215906563
 30
0.0
 10
152.8055885055117
 20
133.1358028564295
 30
0.0
 10
152.8055885055117
 20
133.1358028564295
 30
0.0
 10
152.8055885055117
 20
140.5441410751503
 30
0.0
 10
152.8055885055117
 20
140.5441410751503
 30
0.0
 10
152.8055885055117
 20
144.526674083354
 30
0.0
 10
152.2488607078251
 20
147.2989442491858
 30
0.0
 10
151.1364386417793
 20
148.8606070628698
 30
0.0
 10
150.0236720659576
 20
150.4419069337742
 30
0.0
 10
148.1299018284061
 20
151.2714864738914
 30
0.0
 10
145.4554724389004
 20
151.3495179381092
 30
0.0
 10
145.4554724389004
 20
151.3495179381092
 30
0.0
 10
142.3221560280343
 20
151.3495179381092
 30
0.0
 10
142.3221560280343
 20
151.3495179381092
 30
0.0
  0
SPLINE
  5
78
330
47
100
AcDbEntity
  8
Layer 1
370
     0
100
AcDbSpline
210
0.0
220
0.0
230
1.0
 70
    11
 71
     3
 72
    56
 73
    52
 74
     0
 42
0.0000000001
 43
0.0000000001
 40
0.0
 40
0.0
 40
0.0
 40
0.0
 40
1.0
 40
1.0
 40
1.0
 40
2.0
 40
2.0
 40
2.0
 40
3.0
 40
3.0
 40
3.0
 40
4.0
 40
4.0
 40
4.0
 40
5.0
 40
5.0
 40
5.0
 40
6.0
 40
6.0
 40
6.0
 40
7.0
 40
7.0
 40
7.0
 40
8.0
 40
8.0
 40
8.0
 40
9.0
 40
9.0
 40
9.0
 40
10.0
 40
10.0
 40
10.0
 40
11.0
 40
11.0
 40
11.0
 40
12.0
 40
12.0
 40
12.0
 40
13.0
 40
13.0
 40
13.0
 40
14.0
 40
14.0
 40
14.0
 40
15.0
 40
15.0
 40
15.0
 40
16.0
 40
16.0
 40
16.0
 40
17.0
 40
17.0
 40
17.0
 40
17.0
 10
173.098936848785
 20
129.0065086837366
 30
0.0
 10
173.098936848785
 20
131.7398492449034
 30
0.0
 10
173.3624868272691
 20
133.9064712248855
 30
0.0
 10
173.8892422744615
 20
135.5074081530103
 30
0.0
 10
174.4363237984258
 20
137.1276376285797
 30
0.0
 10
175.4023292097582
 20
138.6700078948191
 30
0.0
 10
176.788636547562
 20
140.1341744419528
 30
0.0
 10
178.2524585849199
 20
141.754748427298
 30
0.0
 10
179.2287992895263
 20
143.0821445934406
 30
0.0
 10
179.7169696418295
 20
144.1167074501565
 30
0.0
 10
180.2047954843568
 20
145.1512703068724
 30
0.0
 10
180.4490529153963
 20
146.1958239470864
 30
0.0
 10
180.4490529153963
 20
147.2496793512469
 30
0.0
 10
180.4490529153963
 20
150.5102921242697
 30
0.0
 10
179.39485300146
 20
152.1405123833372
 30
0.0
 10
177.2864531735875
 20
152.1405123833372
 30
0.0
 10
176.3493865834219
 20
152.1405123833372
 30
0.0
 10
175.568382921692
 20
151.6914438905869
 30
0.0
 10
174.9434421883977
 20
150.7931346501984
 30
0.0
 10
174.3191904746551
 20
149.8953421744736
 30
0.0
 10
173.9870830507876
 20
148.6849070772137
 30
0.0
 10
173.9478089363468
 20
147.1621738681947
 30
0.0
 10
173.9478089363468
 20
147.1621738681947
 30
0.0
 10
165.6609707893458
 20
147.1621738681947
 30
0.0
 10
165.6609707893458
 20
147.1621738681947
 30
0.0
 10
165.6999003940107
 20
150.9495420884099
 30
0.0
 10
166.754100307947
 20
153.8873492015117
 30
0.0
 10
168.8235705311546
 20
155.9766287368275
 30
0.0
 10
170.9123333018067
 20
158.0653915074797
 30
0.0
 10
173.7331793460258
 20
159.1099451476937
 30
0.0
 10
177.2864531735875
 20
159.1099451476937
 30
0.0
 10
180.9175862104791
 20
159.1099451476937
 30
0.0
 10
183.7380877449223
 20
158.0946748384224
 30
0.0
 10
185.7489913062446
 20
156.0643064747677
 30
0.0
 10
187.7598948675668
 20
154.0535751683333
 30
0.0
 10
188.76517439334
 20
151.2323846143385
 30
0.0
 10
188.76517439334
 20
147.601079322559
 30
0.0
 10
188.76517439334
 20
144.5948870189616
 30
0.0
 10
187.5256282200254
 20
141.6472613772496
 30
0.0
 10
185.0465358733962
 20
138.7578578876471
 30
0.0
 10
185.0465358733962
 20
138.7578578876471
 30
0.0
 10
182.6156748953784
 20
136.00488026926
 30
0.0
 10
182.6156748953784
 20
136.00488026926
 30
0.0
 10
181.8157231959797
 20
135.0485211316498
 30
0.0
 10
181.2493491245708
 20
134.0532323893746
 30
0.0
 10
180.9175862104791
 20
133.0186695326587
 30
0.0
 10
180.5854787866116
 20
132.0030547136116
 30
0.0
 10
180.4001325272332
 20
130.6656677639709
 30
0.0
 10
180.3612029225683
 20
129.0065086837366
 30
0.0
 10
180.3612029225683
 20
129.0065086837366
 30
0.0
 10
173.098936848785
 20
129.0065086837366
 30
0.0
 10
173.098936848785
 20
129.0065086837366
 30
0.0
  0
SPLINE
  5
79
330
47
100
AcDbEntity
  8
Layer 1
370
     0
100
AcDbSpline
210
0.0
220
0.0
230
1.0
 70
    11
 71
     3
 72
    29
 73
    25
 74
     0
 42
0.0000000001
 43
0.0000000001
 40
0.0
 40
0.0
 40
0.0
 40
0.0
 40
1.0
 40
1.0
 40
1.0
 40
2.0
 40
2.0
 40
2.0
 40
3.0
 40
3.0
 40
3.0
 40
4.0
 40
4.0
 40
4.0
 40
5.0
 40
5.0
 40
5.0
 40
6.0
 40
6.0
 40
6.0
 40
7.0
 40
7.0
 40
7.0
 40
8.0
 40
8.0
 40
8.0
 40
8.0
 10
172.3375702442755
 20
120.0458094152782
 30
0.0
 10
172.3375702442755
 20
121.3732055814209
 30
0.0
 10
172.7571831511952
 20
122.4566888262998
 30
0.0
 10
173.5967534748105
 20
123.2962591499151
 30
0.0
 10
174.4556163458703
 20
124.1358294735303
 30
0.0
 10
175.5390995907493
 20
124.5554423804501
 30
0.0
 10
176.8472032094473
 20
124.5554423804501
 30
0.0
 10
178.1938919230346
 20
124.5554423804501
 30
0.0
 10
179.2873659514116
 20
124.126183199808
 30
0.0
 10
180.1269362750269
 20
123.2669758189724
 30
0.0
 10
180.9661620888664
 20
122.4274054953571
 30
0.0
 10
181.3857749957861
 20
121.3539130339763
 30
0.0
 10
181.3857749957861
 20
120.0458094152782
 30
0.0
 10
181.3857749957861
 20
118.7573428538006
 30
0.0
 10
180.9761528723645
 20
117.6835058826439
 30
0.0
 10
180.1562196059696
 20
116.824643011584
 30
0.0
 10
179.3362863395747
 20
115.9654356307484
 30
0.0
 10
178.2331660374753
 20
115.5361764501064
 30
0.0
 10
176.8472032094473
 20
115.5361764501064
 30
0.0
 10
175.480532928864
 20
115.5361764501064
 30
0.0
 10
174.3870589004869
 20
115.9654356307484
 30
0.0
 10
173.5674701438678
 20
116.824643011584
 30
0.0
 10
172.747536877473
 20
117.6835058826439
 30
0.0
 10
172.3375702442755
 20
118.7573428538006
 30
0.0
 10
172.3375702442755
 20
120.0458094152782
 30
0.0
  0
HATCH
  5
7A
330
47
100
AcDbEntity
  8
Layer 1
 62
     7
420
 16777215
100
AcDbHatch
 10
0.0
 20
0.0
 30
0.0
210
0.0
220
0.0
230
1.0
  2
SOLID
 70
     1
 71
     0
 91
        8
 92
        1
 93
        7
 72
     1
 10
47.79556374508149
 20
127.6009087984882
 11
54.96963531626091
 21
158.5239340190644
 72
     1
 10
54.96963531626091
 20
158.5239340190644
 11
64.5749123752339
 21
158.5239340190644
 72
     1
 10
64.5749123752339
 20
158.5239340190644
 11
52.27591337931066
 21
115.8875764214185
 72
     1
 10
52.27591337931066
 20
115.8875764214185
 11
43.31521411085231
 21
115.8875764214185
 72
     1
 10
43.31521411085231
 20
115.8875764214185
 11
31.1040651077571
 21
158.5239340190644
 72
     1
 10
31.1040651077571
 20
158.5239340190644
 11
40.65043099506894
 21
158.5239340190644
 72
     1
 10
40.65043099506894
 20
158.5239340190644
 11
47.79556374508149
 21
127.6009087984882
 97
        0
 92
        1
 93
        6
 72
     1
 10
77.19568350175074
 20
123.032709171431
 11
92.3058822681707
 21
123.032709171431
 72
     1
 10
92.3058822681707
 20
123.032709171431
 11
92.3058822681707
 21
115.8875764214185
 72
     1
 10
92.3058822681707
 20
115.8875764214185
 11
68.58672871438027
 21
115.8875764214185
 72
     1
 10
68.58672871438027
 20
115.8875764214185
 11
68.58672871438027
 21
158.5239340190644
 72
     1
 10
68.58672871438027
 20
158.5239340190644
 11
77.19568350175074
 21
158.5239340190644
 72
     1
 10
77.19568350175074
 20
158.5239340190644
 11
77.19568350175074
 21
123.032709171431
 97
        0
 92
        1
 93
        8
 72
     1
 10
118.2216301524375
 20
124.6140090423354
 11
106.4790144444251
 21
124.6140090423354
 72
     1
 10
106.4790144444251
 20
124.6140090423354
 11
104.1952591406723
 21
115.8875764214185
 72
     1
 10
104.1952591406723
 20
115.8875764214185
 11
95.08779870772477
 21
115.8875764214185
 72
     1
 10
95.08779870772477
 20
115.8875764214185
 11
108.4120587964174
 21
158.5239340190644
 72
     1
 10
108.4120587964174
 20
158.5239340190644
 11
116.2892748199968
 21
158.5239340190644
 72
     1
 10
116.2892748199968
 20
158.5239340190644
 11
129.7006958819659
 21
115.8875764214185
 72
     1
 10
129.7006958819659
 20
115.8875764214185
 11
120.5060744757419
 21
115.8875764214185
 72
     1
 10
120.5060744757419
 20
115.8875764214185
 11
118.2216301524375
 21
124.6140090423354
 97
        0
 92
        1
 93
        3
 72
     1
 10
108.353492134532
 20
131.7884251232906
 11
116.3185581509395
 21
131.7884251232906
 72
     1
 10
116.3185581509395
 20
131.7884251232906
 11
112.3360251427357
 21
146.9864738825386
 72
     1
 10
112.3360251427357
 20
146.9864738825386
 11
108.353492134532
 21
131.7884251232906
 97
        0
 92
        1
 93
        1
 72
     4
 94
        3
 73
     0
 74
     1
 95
       29
 96
       25
 40
0.0
 40
0.0
 40
0.0
 40
0.0
 40
1.0
 40
1.0
 40
1.0
 40
2.0
 40
2.0
 40
2.0
 40
3.0
 40
3.0
 40
3.0
 40
4.0
 40
4.0
 40
4.0
 40
5.0
 40
5.0
 40
5.0
 40
6.0
 40
6.0
 40
6.0
 40
7.0
 40
7.0
 40
7.0
 40
8.0
 40
8.0
 40
8.0
 40
8.0
 10
133.7125122211122
 20
115.8875764214185
 10
133.7125122211122
 20
115.8875764214185
 10
133.7125122211122
 20
158.5239340190644
 10
133.7125122211122
 20
158.5239340190644
 10
133.7125122211122
 20
158.5239340190644
 10
144.9865946340419
 20
158.5239340190644
 10
144.9865946340419
 20
158.5239340190644
 10
149.9651054040723
 20
158.5239340190644
 10
153.9280013550556
 20
156.9428064030479
 10
156.8759715065434
 20
153.7802066612391
 10
159.8432342054759
 20
150.6176069194302
 10
161.3563211407726
 20
146.2836739399145
 10
161.414887802658
 20
140.7784077226917
 10
161.414887802658
 20
140.7784077226917
 10
161.414887802658
 20
133.8675416202205
 10
161.414887802658
 20
133.8675416202205
 10
161.414887802658
 20
128.2647791364474
 10
159.9310841983039
 20
123.8622887115482
 10
156.9638214993715
 20
120.6607593650744
 10
154.0158513478837
 20
117.4785225660452
 10
149.9451238370761
 20
115.8875764214185
 10
144.7523279865005
 20
115.8875764214185
 10
144.7523279865005
 20
115.8875764214185
 10
133.7125122211122
 20
115.8875764214185
 10
133.7125122211122
 20
115.8875764214185
 97
        0
 92
        1
 93
        1
 72
     4
 94
        3
 73
     0
 74
     1
 95
       29
 96
       25
 40
0.0
 40
0.0
 40
0.0
 40
0.0
 40
1.0
 40
1.0
 40
1.0
 40
2.0
 40
2.0
 40
2.0
 40
3.0
 40
3.0
 40
3.0
 40
4.0
 40
4.0
 40
4.0
 40
5.0
 40
5.0
 40
5.0
 40
6.0
 40
6.0
 40
6.0
 40
7.0
 40
7.0
 40
7.0
 40
8.0
 40
8.0
 40
8.0
 40
8.0
 10
142.3221560280343
 20
151.3495179381092
 10
142.3221560280343
 20
151.3495179381092
 10
142.3221560280343
 20
123.032709171431
 10
142.3221560280343
 20
123.032709171431
 10
142.3221560280343
 20
123.032709171431
 10
144.8987446412139
 20
123.032709171431
 10
144.8987446412139
 20
123.032709171431
 10
147.7685110735959
 20
123.032709171431
 10
149.7894054184163
 20
123.7840849924424
 10
150.9607386561232
 20
125.2878701637927
 10
152.1317273840544
 20
126.810258863036
 10
152.7470218436264
 20
129.4261215906563
 10
152.8055885055117
 20
133.1358028564295
 10
152.8055885055117
 20
133.1358028564295
 10
152.8055885055117
 20
140.5441410751503
 10
152.8055885055117
 20
140.5441410751503
 10
152.8055885055117
 20
144.526674083354
 10
152.2488607078251
 20
147.2989442491858
 10
151.1364386417793
 20
148.8606070628698
 10
150.0236720659576
 20
150.4419069337742
 10
148.1299018284061
 20
151.2714864738914
 10
145.4554724389004
 20
151.3495179381092
 10
145.4554724389004
 20
151.3495179381092
 10
142.3221560280343
 20
151.3495179381092
 10
142.3221560280343
 20
151.3495179381092
 97
        0
 92
        1
 93
        1
 72
     4
 94
        3
 73
     0
 74
     1
 95
       56
 96
       52
 40
0.0
 40
0.0
 40
0.0
 40
0.0
 40
1.0
 40
1.0
 40
1.0
 40
2.0
 40
2.0
 40
2.0
 40
3.0
 40
3.0
 40
3.0
 40
4.0
 40
4.0
 40
4.0
 40
5.0
 40
5.0
 40
5.0
 40
6.0
 40
6.0
 40
6.0
 40
7.0
 40
7.0
 40
7.0
 40
8.0
 40
8.0
 40
8.0
 40
9.0
 40
9.0
 40
9.0
 40
10.0
 40
10.0
 40
10.0
 40
11.0
 40
11.0
 40
11.0
 40
12.0
 40
12.0
 40
12.0
 40
13.0
 40
13.0
 40
13.0
 40
14.0
 40
14.0
 40
14.0
 40
15.0
 40
15.0
 40
15.0
 40
16.0
 40
16.0
 40
16.0
 40
17.0
 40
17.0
 40
17.0
 40
17.0
 10
173.098936848785
 20
129.0065086837366
 10
173.098936848785
 20
131.7398492449034
 10
173.3624868272691
 20
133.9064712248855
 10
173.8892422744615
 20
135.5074081530103
 10
174.4363237984258
 20
137.1276376285797
 10
175.4023292097582
 20
138.6700078948191
 10
176.788636547562
 20
140.1341744419528
 10
178.2524585849199
 20
141.754748427298
 10
179.2287992895263
 20
143.0821445934406
 10
179.7169696418295
 20
144.1167074501565
 10
180.2047954843568
 20
145.1512703068724
 10
180.4490529153963
 20
146.1958239470864
 10
180.4490529153963
 20
147.2496793512469
 10
180.4490529153963
 20
150.5102921242697
 10
179.39485300146
 20
152.1405123833372
 10
177.2864531735875
 20
152.1405123833372
 10
176.3493865834219
 20
152.1405123833372
 10
175.568382921692
 20
151.6914438905869
 10
174.9434421883977
 20
150.7931346501984
 10
174.3191904746551
 20
149.8953421744736
 10
173.9870830507876
 20
148.6849070772137
 10
173.9478089363468
 20
147.1621738681947
 10
173.9478089363468
 20
147.1621738681947
 10
165.6609707893458
 20
147.1621738681947
 10
165.6609707893458
 20
147.1621738681947
 10
165.6999003940107
 20
150.9495420884099
 10
166.754100307947
 20
153.8873492015117
 10
168.8235705311546
 20
155.9766287368275
 10
170.9123333018067
 20
158.0653915074797
 10
173.7331793460258
 20
159.1099451476937
 10
177.2864531735875
 20
159.1099451476937
 10
180.9175862104791
 20
159.1099451476937
 10
183.7380877449223
 20
158.0946748384224
 10
185.7489913062446
 20
156.0643064747677
 10
187.7598948675668
 20
154.0535751683333
 10
188.76517439334
 20
151.2323846143385
 10
188.76517439334
 20
147.601079322559
 10
188.76517439334
 20
144.5948870189616
 10
187.5256282200254
 20
141.6472613772496
 10
185.0465358733962
 20
138.7578578876471
 10
185.0465358733962
 20
138.7578578876471
 10
182.6156748953784
 20
136.00488026926
 10
182.6156748953784
 20
136.00488026926
 10
181.8157231959797
 20
135.0485211316498
 10
181.2493491245708
 20
134.0532323893746
 10
180.9175862104791
 20
133.0186695326587
 10
180.5854787866116
 20
132.0030547136116
 10
180.4001325272332
 20
130.6656677639709
 10
180.3612029225683
 20
129.0065086837366
 10
180.3612029225683
 20
129.0065086837366
 10
173.098936848785
 20
129.0065086837366
 10
173.098936848785
 20
129.0065086837366
 97
        0
 92
        1
 93
        1
 72
     4
 94
        3
 73
     0
 74
     1
 95
       29
 96
       25
 40
0.0
 40
0.0
 40
0.0
 40
0.0
 40
1.0
 40
1.0
 40
1.0
 40
2.0
 40
2.0
 40
2.0
 40
3.0
 40
3.0
 40
3.0
 40
4.0
 40
4.0
 40
4.0
 40
5.0
 40
5.0
 40
5.0
 40
6.0
 40
6.0
 40
6.0
 40
7.0
 40
7.0
 40
7.0
 40
8.0
 40
8.0
 40
8.0
 40
8.0
 10
172.3375702442755
 20
120.0458094152782
 10
172.3375702442755
 20
121.3732055814209
 10
172.7571831511952
 20
122.4566888262998
 10
173.5967534748105
 20
123.2962591499151
 10
174.4556163458703
 20
124.1358294735303
 10
175.5390995907493
 20
124.5554423804501
 10
176.8472032094473
 20
124.5554423804501
 10
178.1938919230346
 20
124.5554423804501
 10
179.2873659514116
 20
124.126183199808
 10
180.1269362750269
 20
123.2669758189724
 10
180.9661620888664
 20
122.4274054953571
 10
181.3857749957861
 20
121.3539130339763
 10
181.3857749957861
 20
120.0458094152782
 10
181.3857749957861
 20
118.7573428538006
 10
180.9761528723645
 20
117.6835058826439
 10
180.1562196059696
 20
116.824643011584
 10
179.3362863395747
 20
115.9654356307484
 10
178.2331660374753
 20
115.5361764501064
 10
176.8472032094473
 20
115.5361764501064
 10
175.480532928864
 20
115.5361764501064
 10
174.3870589004869
 20
115.9654356307484
 10
173.5674701438678
 20
116.824643011584
 10
172.747536877473
 20
117.6835058826439
 10
172.3375702442755
 20
118.7573428538006
 10
172.3375702442755
 20
120.0458094152782
 97
        0
 75
     2
 76
     1
 98
        0
  0
SPLINE
  5
7B
330
47
100
AcDbEntity
  8
Layer 1
370
     0
100
AcDbSpline
210
0.0
220
0.0
230
1.0
 70
    11
 71
     3
 72
   104
 73
   100
 74
     0
 42
0.0000000001
 43
0.0000000001
 40
0.0
 40
0.0
 40
0.0
 40
0.0
 40
1.0
 40
1.0
 40
1.0
 40
2.0
 40
2.0
 40
2.0
 40
3.0
 40
3.0
 40
3.0
 40
4.0
 40
4.0
 40
4.0
 40
5.0
 40
5.0
 40
5.0
 40
6.0
 40
6.0
 40
6.0
 40
7.0
 40
7.0
 40
7.0
 40
8.0
 40
8.0
 40
8.0
 40
9.0
 40
9.0
 40
9.0
 40
10.0
 40
10.0
 40
10.0
 40
11.0
 40
11.0
 40
11.0
 40
12.0
 40
12.0
 40
12.0
 40
13.0
 40
13.0
 40
13.0
 40
14.0
 40
14.0
 40
14.0
 40
15.0
 40
15.0
 40
15.0
 40
16.0
 40
16.0
 40
16.0
 40
17.0
 40
17.0
 40
17.0
 40
18.0
 40
18.0
 40
18.0
 40
19.0
 40
19.0
 40
19.0
 40
20.0
 40
20.0
 40
20.0
 40
21.0
 40
21.0
 40
21.0
 40
22.0
 40
22.0
 40
22.0
 40
23.0
 40
23.0
 40
23.0
 40
24.0
 40
24.0
 40
24.0
 40
25.0
 40
25.0
 40
25.0
 40
26.0
 40
26.0
 40
26.0
 40
27.0
 40
27.0
 40
27.0
 40
28.0
 40
28.0
 40
28.0
 40
29.0
 40
29.0
 40
29.0
 40
30.0
 40
30.0
 40
30.0
 40
31.0
 40
31.0
 40
31.0
 40
32.0
 40
32.0
 40
32.0
 40
33.0
 40
33.0
 40
33.0
 40
33.0
 10
40.33933866752501
 20
180.0029127557403
 30
0.0
 10
40.00068555791737
 20
178.7159964882537
 30
0.0
 10
39.63653872490082
 20
177.4375207102741
 30
0.0
 10
39.24724267825115
 20
176.1674854218015
 30
0.0
 10
38.87448310083969
 20
174.8974501333289
 30
0.0
 10
38.47657430979512
 20
173.6189743553494
 30
0.0
 10
38.05351630511742
 20
172.3320580878628
 30
0.0
 10
38.05351630511742
 20
172.3320580878628
 30
0.0
 10
35.10692419273279
 20
172.3320580878628
 30
0.0
 10
35.10692419273279
 20
172.3320580878628
 30
0.0
 10
34.80203304115318
 20
173.043298519994
 30
0.0
 10
34.47199267594045
 20
173.8899312940131
 30
0.0
 10
34.1164585873188
 20
174.8721286648079
 30
0.0
 10
33.76092449869716
 20
175.8541537807149
 30
0.0
 10
33.38816492128571
 20
176.9209283014677
 30
0.0
 10
32.99886887463603
 20
178.0724522270664
 30
0.0
 10
32.62610929722458
 20
179.2408571316791
 30
0.0
 10
32.2368132505749
 20
180.4685177177288
 30
0.0
 10
31.83029171513543
 20
181.7554339852154
 30
0.0
 10
31.44099566848576
 20
183.0594034866039
 30
0.0
 10
31.0599678564552
 20
184.3716412226115
 30
0.0
 10
30.68720827904374
 20
185.692491703014
 30
0.0
 10
30.68720827904374
 20
185.692491703014
 30
0.0
 10
34.67525344366019
 20
185.692491703014
 30
0.0
 10
34.67525344366019
 20
185.692491703014
 30
0.0
 10
34.81064578554808
 20
185.0828816547427
 30
0.0
 10
34.95465087183089
 20
184.4140159250344
 30
0.0
 10
35.10692419273279
 20
183.6858945138892
 30
0.0
 10
35.27642300242451
 20
182.974654081758
 30
0.0
 10
35.44557730234042
 20
182.2380921811058
 30
0.0
 10
35.61507611203214
 20
181.4760365570447
 30
0.0
 10
35.80111139096207
 20
180.7139809329836
 30
0.0
 10
35.9874911796678
 20
179.9436570743033
 30
0.0
 10
36.17387096837353
 20
179.1647204712282
 30
0.0
 10
36.37713173609326
 20
178.402664847167
 30
0.0
 10
36.58004799403721
 20
177.6661029465149
 30
0.0
 10
36.78330876175695
 20
176.9548625143836
 30
0.0
 10
37.0034505084907
 20
177.6998649045429
 30
0.0
 10
37.21532402060534
 20
178.461920528604
 30
0.0
 10
37.41824027854928
 20
179.2408571316791
 30
0.0
 10
37.63838202528304
 20
180.0197937347543
 30
0.0
 10
37.84164279300278
 20
180.7818493588154
 30
0.0
 10
38.02802258170851
 20
181.5268517489746
 30
0.0
 10
38.23128334942825
 20
182.2889073730357
 30
0.0
 10
38.41731862835817
 20
183.017028784181
 30
0.0
 10
38.58681743804989
 20
183.7112159824102
 30
0.0
 10
38.77319722675562
 20
184.4224564145414
 30
0.0
 10
38.93373878227663
 20
185.0828816547427
 30
0.0
 10
39.06947563394032
 20
185.692491703014
 30
0.0
 10
39.06947563394032
 20
185.692491703014
 30
0.0
 10
41.81246246882942
 20
185.692491703014
 30
0.0
 10
41.81246246882942
 20
185.692491703014
 30
0.0
 10
41.94819932049311
 20
185.0828816547427
 30
0.0
 10
42.10047264139502
 20
184.4224564145414
 30
0.0
 10
42.26962694131094
 20
183.7112159824102
 30
0.0
 10
42.43912575100265
 20
183.017028784181
 30
0.0
 10
42.61689279531348
 20
182.2889073730357
 30
0.0
 10
42.8032725840192
 20
181.5268517489746
 30
0.0
 10
42.98930786294913
 20
180.7818493588154
 30
0.0
 10
43.18430039604976
 20
180.0197937347543
 30
0.0
 10
43.38721665399371
 20
179.2408571316791
 30
0.0
 10
43.59047742171344
 20
178.461920528604
 30
0.0
 10
43.80235093382809
 20
177.6998649045429
 30
0.0
 10
44.02249268056185
 20
176.9548625143836
 30
0.0
 10
44.22540893850579
 20
177.6661029465149
 30
0.0
 10
44.42866970622553
 20
178.402664847167
 30
0.0
 10
44.63193047394527
 20
179.1647204712282
 30
0.0
 10
44.83519124166501
 20
179.9436570743033
 30
0.0
 10
45.02157103037074
 20
180.7139809329836
 30
0.0
 10
45.19072533028665
 20
181.4760365570447
 30
0.0
 10
45.37710511899238
 20
182.2380921811058
 30
0.0
 10
45.5462594189083
 20
182.974654081758
 30
0.0
 10
45.698877249586
 20
183.6858945138892
 30
0.0
 10
45.86803154950192
 20
184.4140159250344
 30
0.0
 10
46.02064938017962
 20
185.0828816547427
 30
0.0
 10
46.15604172206752
 20
185.692491703014
 30
0.0
 10
46.15604172206752
 20
185.692491703014
 30
0.0
 10
50.09309943986614
 20
185.692491703014
 30
0.0
 10
50.09309943986614
 20
185.692491703014
 30
0.0
 10
49.72033986245468
 20
184.3716412226115
 30
0.0
 10
49.33104381580501
 20
183.0594034866039
 30
0.0
 10
48.92452228036553
 20
181.7554339852154
 30
0.0
 10
48.53522623371586
 20
180.4685177177288
 30
0.0
 10
48.14558567729039
 20
179.2408571316791
 30
0.0
 10
47.75628963064072
 20
178.0724522270664
 30
0.0
 10
47.38353005322926
 20
176.9209283014677
 30
0.0
 10
47.01111498559361
 20
175.8541537807149
 30
0.0
 10
46.63869991795795
 20
174.8721286648079
 30
0.0
 10
46.2828213195605
 20
173.8899312940131
 30
0.0
 10
45.95278095434778
 20
173.043298519994
 30
0.0
 10
45.64788980276817
 20
172.3320580878628
 30
0.0
 10
45.64788980276817
 20
172.3320580878628
 30
0.0
 10
42.70164220015933
 20
172.3320580878628
 30
0.0
 10
42.70164220015933
 20
172.3320580878628
 30
0.0
 10
42.27823968570584
 20
173.6189743553494
 30
0.0
 10
41.86344991564725
 20
174.8974501333289
 30
0.0
 10
41.45692838020778
 20
176.1674854218015
 30
0.0
 10
41.0504068447683
 20
177.4375207102741
 30
0.0
 10
40.67799177713264
 20
178.7159964882537
 30
0.0
 10
40.33933866752501
 20
180.0029127557403
 30
0.0
  0
SPLINE
  5
7C
330
47
100
AcDbEntity
  8
Layer 1
370
     0
100
AcDbSpline
210
0.0
220
0.0
230
1.0
 70
    11
 71
     3
 72
    59
 73
    55
 74
     0
 42
0.0000000001
 43
0.0000000001
 40
0.0
 40
0.0
 40
0.0
 40
0.0
 40
1.0
 40
1.0
 40
1.0
 40
2.0
 40
2.0
 40
2.0
 40
3.0
 40
3.0
 40
3.0
 40
4.0
 40
4.0
 40
4.0
 40
5.0
 40
5.0
 40
5.0
 40
6.0
 40
6.0
 40
6.0
 40
7.0
 40
7.0
 40
7.0
 40
8.0
 40
8.0
 40
8.0
 40
9.0
 40
9.0
 40
9.0
 40
10.0
 40
10.0
 40
10.0
 40
11.0
 40
11.0
 40
11.0
 40
12.0
 40
12.0
 40
12.0
 40
13.0
 40
13.0
 40
13.0
 40
14.0
 40
14.0
 40
14.0
 40
15.0
 40
15.0
 40
15.0
 40
16.0
 40
16.0
 40
16.0
 40
17.0
 40
17.0
 40
17.0
 40
18.0
 40
18.0
 40
18.0
 40
18.0
 10
52.12949672459729
 20
172.3320580878628
 30
0.0
 10
52.12949672459729
 20
172.3320580878628
 30
0.0
 10
52.12949672459729
 20
191.4328858422176
 30
0.0
 10
52.12949672459729
 20
191.4328858422176
 30
0.0
 10
52.12949672459729
 20
191.4328858422176
 30
0.0
 10
55.914281121494
 20
192.042495890489
 30
0.0
 10
55.914281121494
 20
192.042495890489
 30
0.0
 10
55.914281121494
 20
192.042495890489
 30
0.0
 10
55.914281121494
 20
185.6416765110841
 30
0.0
 10
55.914281121494
 20
185.6416765110841
 30
0.0
 10
56.16818482625578
 20
185.726253661042
 30
0.0
 10
56.4899569568494
 20
185.8025625763809
 30
0.0
 10
56.87925300349907
 20
185.8702587473248
 30
0.0
 10
57.28577453893855
 20
185.9550081521707
 30
0.0
 10
57.67507058558822
 20
185.9972105997057
 30
0.0
 10
58.04783016299967
 20
185.9972105997057
 30
0.0
 10
59.13165791765442
 20
185.9972105997057
 30
0.0
 10
60.02910588360344
 20
185.8449372788038
 30
0.0
 10
60.74017406084673
 20
185.5400461272242
 30
0.0
 10
61.46846772687984
 20
185.2522082095465
 30
0.0
 10
62.04414356223523
 20
184.8374184394879
 30
0.0
 10
62.46720156691293
 20
184.2955045621605
 30
0.0
 10
62.90748506038043
 20
183.7535906848331
 30
0.0
 10
63.21237621196004
 20
183.1100464236459
 30
0.0
 10
63.38187502165176
 20
182.3650440334867
 30
0.0
 10
63.56791030058169
 20
181.6200416433275
 30
0.0
 10
63.66127244982245
 20
180.7902898483224
 30
0.0
 10
63.66127244982245
 20
179.8757886484715
 30
0.0
 10
63.66127244982245
 20
179.8757886484715
 30
0.0
 10
63.66127244982245
 20
172.3320580878628
 30
0.0
 10
63.66127244982245
 20
172.3320580878628
 30
0.0
 10
63.66127244982245
 20
172.3320580878628
 30
0.0
 10
59.87648805292574
 20
172.3320580878628
 30
0.0
 10
59.87648805292574
 20
172.3320580878628
 30
0.0
 10
59.87648805292574
 20
172.3320580878628
 30
0.0
 10
59.87648805292574
 20
179.4186241759899
 30
0.0
 10
59.87648805292574
 20
179.4186241759899
 30
0.0
 10
59.87648805292574
 20
180.6378442725326
 30
0.0
 10
59.71560198762893
 20
181.5015302804536
 30
0.0
 10
59.39382985703531
 20
182.009509944865
 30
0.0
 10
59.08928321523149
 20
182.5174896092765
 30
0.0
 10
58.51360737987609
 20
182.7713933140383
 30
0.0
 10
57.66680235096911
 20
182.7713933140383
 30
0.0
 10
57.32814924136148
 20
182.7713933140383
 30
0.0
 10
57.00637711076786
 20
182.7376313560102
 30
0.0
 10
56.70148595918825
 20
182.6699351850663
 30
0.0
 10
56.41382029639845
 20
182.6191199931364
 30
0.0
 10
56.15130384724176
 20
182.5598643116994
 30
0.0
 10
55.914281121494
 20
182.4919958858676
 30
0.0
 10
55.914281121494
 20
182.4919958858676
 30
0.0
 10
55.914281121494
 20
172.3320580878628
 30
0.0
 10
55.914281121494
 20
172.3320580878628
 30
0.0
 10
55.914281121494
 20
172.3320580878628
 30
0.0
 10
52.12949672459729
 20
172.3320580878628
 30
0.0
 10
52.12949672459729
 20
172.3320580878628
 30
0.0
  0
SPLINE
  5
7D
330
47
100
AcDbEntity
  8
Layer 1
370
     0
100
AcDbSpline
210
0.0
220
0.0
230
1.0
 70
    11
 71
     3
 72
    71
 73
    67
 74
     0
 42
0.0000000001
 43
0.0000000001
 40
0.0
 40
0.0
 40
0.0
 40
0.0
 40
1.0
 40
1.0
 40
1.0
 40
2.0
 40
2.0
 40
2.0
 40
3.0
 40
3.0
 40
3.0
 40
4.0
 40
4.0
 40
4.0
 40
5.0
 40
5.0
 40
5.0
 40
6.0
 40
6.0
 40
6.0
 40
7.0
 40
7.0
 40
7.0
 40
8.0
 40
8.0
 40
8.0
 40
9.0
 40
9.0
 40
9.0
 40
10.0
 40
10.0
 40
10.0
 40
11.0
 40
11.0
 40
11.0
 40
12.0
 40
12.0
 40
12.0
 40
13.0
 40
13.0
 40
13.0
 40
14.0
 40
14.0
 40
14.0
 40
15.0
 40
15.0
 40
15.0
 40
16.0
 40
16.0
 40
16.0
 40
17.0
 40
17.0
 40
17.0
 40
18.0
 40
18.0
 40
18.0
 40
19.0
 40
19.0
 40
19.0
 40
20.0
 40
20.0
 40
20.0
 40
21.0
 40
21.0
 40
21.0
 40
22.0
 40
22.0
 40
22.0
 40
22.0
 10
66.45180163377141
 20
178.9106445115785
 30
0.0
 10
66.45180163377141
 20
180.0959303952052
 30
0.0
 10
66.62956867808224
 20
181.12894295793
 30
0.0
 10
66.98510276670389
 20
182.009509944865
 30
0.0
 10
67.35751783433955
 20
182.9069579108141
 30
0.0
 10
67.84017603022998
 20
183.6519603009733
 30
0.0
 10
68.43273284459939
 20
184.2446893702306
 30
0.0
 10
69.02563416874459
 20
184.8374184394879
 30
0.0
 10
69.70294038795986
 20
185.2859701675745
 30
0.0
 10
70.46499601202099
 20
185.5908613191541
 30
0.0
 10
71.24393261509613
 20
185.8957524707337
 30
0.0
 10
72.03975019718527
 20
186.0480257916356
 30
0.0
 10
72.85244875828843
 20
186.0480257916356
 30
0.0
 10
74.74897507404634
 20
186.0480257916356
 30
0.0
 10
76.24759259875968
 20
185.4639094667732
 30
0.0
 10
77.34830133242843
 20
184.2955045621605
 30
0.0
 10
78.4490100660972
 20
183.1439806365618
 30
0.0
 10
78.99919217804369
 20
181.4422745990167
 30
0.0
 10
78.99919217804369
 20
179.1900419397492
 30
0.0
 10
78.99919217804369
 20
178.9699001930155
 30
0.0
 10
78.99092394342458
 20
178.7244369777607
 30
0.0
 10
78.97369845463477
 20
178.453480039097
 30
0.0
 10
78.95681747562075
 20
178.1994040794473
 30
0.0
 10
78.93993649660675
 20
177.9708218432066
 30
0.0
 10
78.92305551759273
 20
177.7677333303747
 30
0.0
 10
78.92305551759273
 20
177.7677333303747
 30
0.0
 10
70.3378719047522
 20
177.7677333303747
 30
0.0
 10
70.3378719047522
 20
177.7677333303747
 30
0.0
 10
70.42262130959806
 20
176.9887967272996
 30
0.0
 10
70.78642363283882
 20
176.3707461895212
 30
0.0
 10
71.42996789402606
 20
175.9134094621518
 30
0.0
 10
72.0735121552133
 20
175.4562449896703
 30
0.0
 10
72.9371981631343
 20
175.2276627534296
 30
0.0
 10
74.02068140801325
 20
175.2276627534296
 30
0.0
 10
74.71521311601832
 20
175.2276627534296
 30
0.0
 10
75.39251933523359
 20
175.2869184348665
 30
0.0
 10
76.05294457543485
 20
175.4054297977404
 30
0.0
 10
76.73025079465012
 20
175.5409943945162
 30
0.0
 10
77.2804329065966
 20
175.7017082049251
 30
0.0
 10
77.70383542105009
 20
175.8880879936308
 30
0.0
 10
77.70383542105009
 20
175.8880879936308
 30
0.0
 10
78.21198734034944
 20
172.8147162837532
 30
0.0
 10
78.21198734034944
 20
172.8147162837532
 30
0.0
 10
78.0087265726297
 20
172.7130858998933
 30
0.0
 10
77.73759737907811
 20
172.6114555160335
 30
0.0
 10
77.39894426947048
 20
172.5098251321736
 30
0.0
 10
77.06029115986284
 20
172.4081947483137
 30
0.0
 10
76.67926334783228
 20
172.3236175983558
 30
0.0
 10
76.25620534315459
 20
172.2559214274118
 30
0.0
 10
75.84968380771511
 20
172.1711720225659
 30
0.0
 10
75.4094003142476
 20
172.103475851622
 30
0.0
 10
74.93535486275208
 20
172.0526606596921
 30
0.0
 10
74.46096490148075
 20
172.0018454677621
 30
0.0
 10
73.98691944998522
 20
171.9765239992411
 30
0.0
 10
73.5128739984897
 20
171.9765239992411
 30
0.0
 10
72.31053488096106
 20
171.9765239992411
 30
0.0
 10
71.26081359411013
 20
172.154291043552
 30
0.0
 10
70.36336562816112
 20
172.5098251321736
 30
0.0
 10
69.48279864122611
 20
172.8655314756831
 30
0.0
 10
68.7462367405739
 20
173.3480174166857
 30
0.0
 10
68.15333541642869
 20
173.957627464957
 30
0.0
 10
67.57765958107329
 20
174.5841184922423
 30
0.0
 10
67.1459888320007
 20
175.3208526477824
 30
0.0
 10
66.8579786594351
 20
176.1674854218015
 30
0.0
 10
66.58719397565932
 20
177.0141181958206
 30
0.0
 10
66.45180163377141
 20
177.9286193956715
 30
0.0
 10
66.45180163377141
 20
178.9106445115785
 30
0.0
  0
SPLINE
  5
7E
330
47
100
AcDbEntity
  8
Layer 1
370
     0
100
AcDbSpline
210
0.0
220
0.0
230
1.0
 70
    11
 71
     3
 72
    32
 73
    28
 74
     0
 42
0.0000000001
 43
0.0000000001
 40
0.0
 40
0.0
 40
0.0
 40
0.0
 40
1.0
 40
1.0
 40
1.0
 40
2.0
 40
2.0
 40
2.0
 40
3.0
 40
3.0
 40
3.0
 40
4.0
 40
4.0
 40
4.0
 40
5.0
 40
5.0
 40
5.0
 40
6.0
 40
6.0
 40
6.0
 40
7.0
 40
7.0
 40
7.0
 40
8.0
 40
8.0
 40
8.0
 40
9.0
 40
9.0
 40
9.0
 40
9.0
 10
75.34153188841576
 20
180.3584468443619
 30
0.0
 10
75.32465090940174
 20
180.6802189749555
 30
0.0
 10
75.2653952279648
 20
180.9933783611542
 30
0.0
 10
75.16376484410493
 20
181.2982695127339
 30
0.0
 10
75.07901543925908
 20
181.6031606643135
 30
0.0
 10
74.93535486275208
 20
181.8739453480893
 30
0.0
 10
74.73209409503234
 20
182.110968073837
 30
0.0
 10
74.5457143063266
 20
182.3481630544727
 30
0.0
 10
74.30042334595973
 20
182.5428110777975
 30
0.0
 10
73.99553219438013
 20
182.6952566535873
 30
0.0
 10
73.70752202181453
 20
182.8477022293771
 30
0.0
 10
73.34337518879798
 20
182.9238388898281
 30
0.0
 10
72.90309169533047
 20
182.9238388898281
 30
0.0
 10
72.48003369065277
 20
182.9238388898281
 30
0.0
 10
72.11588685763623
 20
182.8477022293771
 30
0.0
 10
71.81099570605662
 20
182.6952566535873
 30
0.0
 10
71.506104554477
 20
182.5598643116994
 30
0.0
 10
71.25220084971524
 20
182.3734845229937
 30
0.0
 10
71.0489400819955
 20
182.1364617972459
 30
0.0
 10
70.84567931427576
 20
181.8994390714982
 30
0.0
 10
70.68513775875473
 20
181.6200416433275
 30
0.0
 10
70.56628188610506
 20
181.2982695127339
 30
0.0
 10
70.46499601202099
 20
180.9933783611542
 30
0.0
 10
70.38851484179423
 20
180.6802189749555
 30
0.0
 10
70.3378719047522
 20
180.3584468443619
 30
0.0
 10
70.3378719047522
 20
180.3584468443619
 30
0.0
 10
75.34153188841576
 20
180.3584468443619
 30
0.0
 10
75.34153188841576
 20
180.3584468443619
 30
0.0
  0
SPLINE
  5
7F
330
47
100
AcDbEntity
  8
Layer 1
370
     0
100
AcDbSpline
210
0.0
220
0.0
230
1.0
 70
    11
 71
     3
 72
    47
 73
    43
 74
     0
 42
0.0000000001
 43
0.0000000001
 40
0.0
 40
0.0
 40
0.0
 40
0.0
 40
1.0
 40
1.0
 40
1.0
 40
2.0
 40
2.0
 40
2.0
 40
3.0
 40
3.0
 40
3.0
 40
4.0
 40
4.0
 40
4.0
 40
5.0
 40
5.0
 40
5.0
 40
6.0
 40
6.0
 40
6.0
 40
7.0
 40
7.0
 40
7.0
 40
8.0
 40
8.0
 40
8.0
 40
9.0
 40
9.0
 40
9.0
 40
10.0
 40
10.0
 40
10.0
 40
11.0
 40
11.0
 40
11.0
 40
12.0
 40
12.0
 40
12.0
 40
13.0
 40
13.0
 40
13.0
 40
14.0
 40
14.0
 40
14.0
 40
14.0
 10
89.97182853715167
 20
182.3397225649657
 30
0.0
 10
89.63317542754403
 20
182.4242997149236
 30
0.0
 10
89.23526663649945
 20
182.5090491197695
 30
0.0
 10
88.77775765424214
 20
182.5936262697275
 30
0.0
 10
88.32059318176063
 20
182.6952566535873
 30
0.0
 10
87.82966675125108
 20
182.7460718455173
 30
0.0
 10
87.30463385293773
 20
182.7460718455173
 30
0.0
 10
87.06761112718996
 20
182.7460718455173
 30
0.0
 10
86.77960095462436
 20
182.7207503769962
 30
0.0
 10
86.44094784501672
 20
182.6699351850663
 30
0.0
 10
86.1195202241989
 20
182.6360009721504
 30
0.0
 10
85.87388475405623
 20
182.5936262697275
 30
0.0
 10
85.70438594436452
 20
182.5428110777975
 30
0.0
 10
85.70438594436452
 20
182.5428110777975
 30
0.0
 10
85.70438594436452
 20
172.3320580878628
 30
0.0
 10
85.70438594436452
 20
172.3320580878628
 30
0.0
 10
85.70438594436452
 20
172.3320580878628
 30
0.0
 10
81.9199460572436
 20
172.3320580878628
 30
0.0
 10
81.9199460572436
 20
172.3320580878628
 30
0.0
 10
81.9199460572436
 20
172.3320580878628
 30
0.0
 10
81.9199460572436
 20
184.9812512708828
 30
0.0
 10
81.9199460572436
 20
184.9812512708828
 30
0.0
 10
82.59725227645887
 20
185.2182739966306
 30
0.0
 10
83.39306985854802
 20
185.4384157433643
 30
0.0
 10
84.30739880351105
 20
185.6416765110841
 30
0.0
 10
85.23895323726389
 20
185.8618182578178
 30
0.0
 10
86.2717935451008
 20
185.9718891311847
 30
0.0
 10
87.4062642367976
 20
185.9718891311847
 30
0.0
 10
87.60952500451732
 20
185.9718891311847
 30
0.0
 10
87.85516047466
 20
185.9550081521707
 30
0.0
 10
88.1428261374498
 20
185.9210739392547
 30
0.0
 10
88.4308363100154
 20
185.9041929602407
 30
0.0
 10
88.7185019728052
 20
185.8702587473248
 30
0.0
 10
89.00651214537079
 20
185.8194435553949
 30
0.0
 10
89.2945223179364
 20
185.7855093424789
 30
0.0
 10
89.58218798072619
 20
185.7348664054369
 30
0.0
 10
89.8701981532918
 20
185.6669979796051
 30
0.0
 10
90.15786381608159
 20
185.616355042563
 30
0.0
 10
90.40349928622426
 20
185.5484866167312
 30
0.0
 10
90.606760053944
 20
185.4639094667732
 30
0.0
 10
90.606760053944
 20
185.4639094667732
 30
0.0
 10
89.97182853715167
 20
182.3397225649657
 30
0.0
 10
89.97182853715167
 20
182.3397225649657
 30
0.0
  0
SPLINE
  5
80
330
47
100
AcDbEntity
  8
Layer 1
370
     0
100
AcDbSpline
210
0.0
220
0.0
230
1.0
 70
    11
 71
     3
 72
    71
 73
    67
 74
     0
 42
0.0000000001
 43
0.0000000001
 40
0.0
 40
0.0
 40
0.0
 40
0.0
 40
1.0
 40
1.0
 40
1.0
 40
2.0
 40
2.0
 40
2.0
 40
3.0
 40
3.0
 40
3.0
 40
4.0
 40
4.0
 40
4.0
 40
5.0
 40
5.0
 40
5.0
 40
6.0
 40
6.0
 40
6.0
 40
7.0
 40
7.0
 40
7.0
 40
8.0
 40
8.0
 40
8.0
 40
9.0
 40
9.0
 40
9.0
 40
10.0
 40
10.0
 40
10.0
 40
11.0
 40
11.0
 40
11.0
 40
12.0
 40
12.0
 40
12.0
 40
13.0
 40
13.0
 40
13.0
 40
14.0
 40
14.0
 40
14.0
 40
15.0
 40
15.0
 40
15.0
 40
16.0
 40
16.0
 40
16.0
 40
17.0
 40
17.0
 40
17.0
 40
18.0
 40
18.0
 40
18.0
 40
19.0
 40
19.0
 40
19.0
 40
20.0
 40
20.0
 40
20.0
 40
21.0
 40
21.0
 40
21.0
 40
22.0
 40
22.0
 40
22.0
 40
22.0
 10
91.75259956824206
 20
178.9106445115785
 30
0.0
 10
91.75259956824206
 20
180.0959303952052
 30
0.0
 10
91.93036661255287
 20
181.12894295793
 30
0.0
 10
92.28590070117453
 20
182.009509944865
 30
0.0
 10
92.65831576881018
 20
182.9069579108141
 30
0.0
 10
93.14097396470062
 20
183.6519603009733
 30
0.0
 10
93.73353077907002
 20
184.2446893702306
 30
0.0
 10
94.32643210321524
 20
184.8374184394879
 30
0.0
 10
95.00373832243051
 20
185.2859701675745
 30
0.0
 10
95.76579394649163
 20
185.5908613191541
 30
0.0
 10
96.54473054956676
 20
185.8957524707337
 30
0.0
 10
97.34054813165592
 20
186.0480257916356
 30
0.0
 10
98.15324669275908
 20
186.0480257916356
 30
0.0
 10
100.049773008517
 20
186.0480257916356
 30
0.0
 10
101.5483905332303
 20
185.4639094667732
 30
0.0
 10
102.6490992668991
 20
184.2955045621605
 30
0.0
 10
103.7498080005678
 20
183.1439806365618
 30
0.0
 10
104.2999901125143
 20
181.4422745990167
 30
0.0
 10
104.2999901125143
 20
179.1900419397492
 30
0.0
 10
104.2999901125143
 20
178.9699001930155
 30
0.0
 10
104.2917218778952
 20
178.7244369777607
 30
0.0
 10
104.2744963891054
 20
178.453480039097
 30
0.0
 10
104.2576154100914
 20
178.1994040794473
 30
0.0
 10
104.2407344310774
 20
177.9708218432066
 30
0.0
 10
104.2238534520634
 20
177.7677333303747
 30
0.0
 10
104.2238534520634
 20
177.7677333303747
 30
0.0
 10
95.63866983922284
 20
177.7677333303747
 30
0.0
 10
95.63866983922284
 20
177.7677333303747
 30
0.0
 10
95.7234192440687
 20
176.9887967272996
 30
0.0
 10
96.08722156730946
 20
176.3707461895212
 30
0.0
 10
96.7307658284967
 20
175.9134094621518
 30
0.0
 10
97.37431008968395
 20
175.4562449896703
 30
0.0
 10
98.23799609760493
 20
175.2276627534296
 30
0.0
 10
99.32147934248388
 20
175.2276627534296
 30
0.0
 10
100.016011050489
 20
175.2276627534296
 30
0.0
 10
100.6933172697042
 20
175.2869184348665
 30
0.0
 10
101.3537425099055
 20
175.4054297977404
 30
0.0
 10
102.0310487291208
 20
175.5409943945162
 30
0.0
 10
102.5812308410672
 20
175.7017082049251
 30
0.0
 10
103.0046333555207
 20
175.8880879936308
 30
0.0
 10
103.0046333555207
 20
175.8880879936308
 30
0.0
 10
103.5127852748201
 20
172.8147162837532
 30
0.0
 10
103.5127852748201
 20
172.8147162837532
 30
0.0
 10
103.3095245071003
 20
172.7130858998933
 30
0.0
 10
103.0383953135487
 20
172.6114555160335
 30
0.0
 10
102.6997422039411
 20
172.5098251321736
 30
0.0
 10
102.3610890943335
 20
172.4081947483137
 30
0.0
 10
101.9800612823029
 20
172.3236175983558
 30
0.0
 10
101.5570032776252
 20
172.2559214274118
 30
0.0
 10
101.1504817421857
 20
172.1711720225659
 30
0.0
 10
100.7101982487182
 20
172.103475851622
 30
0.0
 10
100.2361527972227
 20
172.0526606596921
 30
0.0
 10
99.76176283595139
 20
172.0018454677621
 30
0.0
 10
99.28771738445586
 20
171.9765239992411
 30
0.0
 10
98.81367193296033
 20
171.9765239992411
 30
0.0
 10
97.61133281543171
 20
171.9765239992411
 30
0.0
 10
96.56161152858078
 20
172.154291043552
 30
0.0
 10
95.66416356263176
 20
172.5098251321736
 30
0.0
 10
94.78359657569675
 20
172.8655314756831
 30
0.0
 10
94.04703467504454
 20
173.3480174166857
 30
0.0
 10
93.45413335089934
 20
173.957627464957
 30
0.0
 10
92.87845751554394
 20
174.5841184922423
 30
0.0
 10
92.44678676647133
 20
175.3208526477824
 30
0.0
 10
92.15877659390574
 20
176.1674854218015
 30
0.0
 10
91.88799191012995
 20
177.0141181958206
 30
0.0
 10
91.75259956824206
 20
177.9286193956715
 30
0.0
 10
91.75259956824206
 20
178.9106445115785
 30
0.0
  0
SPLINE
  5
81
330
47
100
AcDbEntity
  8
Layer 1
370
     0
100
AcDbSpline
210
0.0
220
0.0
230
1.0
 70
    11
 71
     3
 72
    32
 73
    28
 74
     0
 42
0.0000000001
 43
0.0000000001
 40
0.0
 40
0.0
 40
0.0
 40
0.0
 40
1.0
 40
1.0
 40
1.0
 40
2.0
 40
2.0
 40
2.0
 40
3.0
 40
3.0
 40
3.0
 40
4.0
 40
4.0
 40
4.0
 40
5.0
 40
5.0
 40
5.0
 40
6.0
 40
6.0
 40
6.0
 40
7.0
 40
7.0
 40
7.0
 40
8.0
 40
8.0
 40
8.0
 40
9.0
 40
9.0
 40
9.0
 40
9.0
 10
100.6423298228864
 20
180.3584468443619
 30
0.0
 10
100.6254488438724
 20
180.6802189749555
 30
0.0
 10
100.5661931624354
 20
180.9933783611542
 30
0.0
 10
100.4645627785756
 20
181.2982695127339
 30
0.0
 10
100.3798133737297
 20
181.6031606643135
 30
0.0
 10
100.2361527972227
 20
181.8739453480893
 30
0.0
 10
100.032892029503
 20
182.110968073837
 30
0.0
 10
99.84651224079725
 20
182.3481630544727
 30
0.0
 10
99.60122128043038
 20
182.5428110777975
 30
0.0
 10
99.29633012885077
 20
182.6952566535873
 30
0.0
 10
99.00831995628516
 20
182.8477022293771
 30
0.0
 10
98.64417312326862
 20
182.9238388898281
 30
0.0
 10
98.20388962980111
 20
182.9238388898281
 30
0.0
 10
97.78083162512343
 20
182.9238388898281
 30
0.0
 10
97.41668479210686
 20
182.8477022293771
 30
0.0
 10
97.11179364052725
 20
182.6952566535873
 30
0.0
 10
96.80690248894766
 20
182.5598643116994
 30
0.0
 10
96.55299878418587
 20
182.3734845229937
 30
0.0
 10
96.34973801646613
 20
182.1364617972459
 30
0.0
 10
96.1464772487464
 20
181.8994390714982
 30
0.0
 10
95.98593569322539
 20
181.6200416433275
 30
0.0
 10
95.8674243303515
 20
181.2982695127339
 30
0.0
 10
95.76579394649163
 20
180.9933783611542
 30
0.0
 10
95.68931277626488
 20
180.6802189749555
 30
0.0
 10
95.63866983922284
 20
180.3584468443619
 30
0.0
 10
95.63866983922284
 20
180.3584468443619
 30
0.0
 10
100.6423298228864
 20
180.3584468443619
 30
0.0
 10
100.6423298228864
 20
180.3584468443619
 30
0.0
  0
SPLINE
  5
82
330
47
100
AcDbEntity
  8
Layer 1
370
     0
100
AcDbSpline
210
0.0
220
0.0
230
1.0
 70
    11
 71
     3
 72
    80
 73
    76
 74
     0
 42
0.0000000001
 43
0.0000000001
 40
0.0
 40
0.0
 40
0.0
 40
0.0
 40
1.0
 40
1.0
 40
1.0
 40
2.0
 40
2.0
 40
2.0
 40
3.0
 40
3.0
 40
3.0
 40
4.0
 40
4.0
 40
4.0
 40
5.0
 40
5.0
 40
5.0
 40
6.0
 40
6.0
 40
6.0
 40
7.0
 40
7.0
 40
7.0
 40
8.0
 40
8.0
 40
8.0
 40
9.0
 40
9.0
 40
9.0
 40
10.0
 40
10.0
 40
10.0
 40
11.0
 40
11.0
 40
11.0
 40
12.0
 40
12.0
 40
12.0
 40
13.0
 40
13.0
 40
13.0
 40
14.0
 40
14.0
 40
14.0
 40
15.0
 40
15.0
 40
15.0
 40
16.0
 40
16.0
 40
16.0
 40
17.0
 40
17.0
 40
17.0
 40
18.0
 40
18.0
 40
18.0
 40
19.0
 40
19.0
 40
19.0
 40
20.0
 40
20.0
 40
20.0
 40
21.0
 40
21.0
 40
21.0
 40
22.0
 40
22.0
 40
22.0
 40
23.0
 40
23.0
 40
23.0
 40
24.0
 40
24.0
 40
24.0
 40
25.0
 40
25.0
 40
25.0
 40
25.0
 10
125.1845172310539
 20
185.692491703014
 30
0.0
 10
124.4224616069928
 20
183.1186591680408
 30
0.0
 10
123.6266440249036
 20
180.7055404434765
 30
0.0
 10
122.7970644847864
 20
178.453480039097
 30
0.0
 10
121.9671404348935
 20
176.2012473798295
 30
0.0
 10
121.0610797245495
 20
174.0168831463939
 30
0.0
 10
120.0792268635305
 20
171.9002150839023
 30
0.0
 10
119.723348265133
 20
171.138331714729
 30
0.0
 10
119.3678141765114
 20
170.4947874535418
 30
0.0
 10
119.0122800878897
 20
169.9699268101163
 30
0.0
 10
118.6567459992681
 20
169.428012932789
 30
0.0
 10
118.2671054428426
 20
168.9877294393215
 30
0.0
 10
117.8440474381649
 20
168.6490763297138
 30
0.0
 10
117.4206449237114
 20
168.2933699862043
 30
0.0
 10
116.937986727821
 20
168.0394662814425
 30
0.0
 10
116.3960728504936
 20
167.8870207056527
 30
0.0
 10
115.8710399521802
 20
167.7176941508489
 30
0.0
 10
115.2529894144019
 20
167.6331170008909
 30
0.0
 10
114.5419212371586
 20
167.6331170008909
 30
0.0
 10
113.9493644227892
 20
167.6331170008909
 30
0.0
 10
113.3988378010669
 20
167.6923726823279
 30
0.0
 10
112.8910303915434
 20
167.8108840452017
 30
0.0
 10
112.399759451258
 20
167.9125144290616
 30
0.0
 10
111.9935824255944
 20
168.0310257919355
 30
0.0
 10
111.6718102950007
 20
168.1664181338234
 30
0.0
 10
111.6718102950007
 20
168.1664181338234
 30
0.0
 10
112.332235535202
 20
171.1889746517711
 30
0.0
 10
112.332235535202
 20
171.1889746517711
 30
0.0
 10
112.7215315818517
 20
171.0535823098832
 30
0.0
 10
113.0687974358542
 20
170.9603924155303
 30
0.0
 10
113.373344077658
 20
170.9095772236004
 30
0.0
 10
113.6782352292376
 20
170.8589342865583
 30
0.0
 10
114.0000073598313
 20
170.8334405631494
 30
0.0
 10
114.3386604694389
 20
170.8334405631494
 30
0.0
 10
115.0159666886542
 20
170.8334405631494
 30
0.0
 10
115.5323868425726
 20
171.0198203518551
 30
0.0
 10
115.8882654409701
 20
171.3922354194908
 30
0.0
 10
116.2606805086057
 20
171.7477695081125
 30
0.0
 10
116.5738398948044
 20
172.2473086830169
 30
0.0
 10
116.8277435995662
 20
172.8908529442041
 30
0.0
 10
115.964402101421
 20
174.5841184922423
 30
0.0
 10
115.1007160935
 20
176.4806448080002
 30
0.0
 10
114.237030085579
 20
178.5804318914779
 30
0.0
 10
113.373344077658
 20
180.6970999539695
 30
0.0
 10
112.5606455165549
 20
183.0678439761109
 30
0.0
 10
111.7985898924937
 20
185.692491703014
 30
0.0
 10
111.7985898924937
 20
185.692491703014
 30
0.0
 10
115.8117842707433
 20
185.692491703014
 30
0.0
 10
115.8117842707433
 20
185.692491703014
 30
0.0
 10
115.981283080435
 20
185.0320664628127
 30
0.0
 10
116.1759311037599
 20
184.3123855411745
 30
0.0
 10
116.3960728504936
 20
183.5334489380994
 30
0.0
 10
116.6330955762414
 20
182.7713933140383
 30
0.0
 10
116.878731046384
 20
181.9924567109631
 30
0.0
 10
117.1326347511458
 20
181.196639128874
 30
0.0
 10
117.3868829656834
 20
180.4177025257989
 30
0.0
 10
117.6407866704452
 20
179.6556469017377
 30
0.0
 10
117.8946903752069
 20
178.9106445115785
 30
0.0
 10
118.1654750589827
 20
178.1656421214193
 30
0.0
 10
118.4197232735203
 20
177.488335902204
 30
0.0
 10
118.6567459992681
 20
176.8787258539327
 30
0.0
 10
118.8768877460018
 20
177.488335902204
 30
0.0
 10
119.1052977273547
 20
178.1656421214193
 30
0.0
 10
119.3426649628782
 20
178.9106445115785
 30
0.0
 10
119.579687688626
 20
179.6556469017377
 30
0.0
 10
119.8080976699789
 20
180.4177025257989
 30
0.0
 10
120.0282394167126
 20
181.196639128874
 30
0.0
 10
120.2652621424604
 20
181.9924567109631
 30
0.0
 10
120.4854038891941
 20
182.7713933140383
 30
0.0
 10
120.6886646569139
 20
183.5334489380994
 30
0.0
 10
120.9088064036476
 20
184.3123855411745
 30
0.0
 10
121.1034544269725
 20
185.0320664628127
 30
0.0
 10
121.2729532366642
 20
185.692491703014
 30
0.0
 10
121.2729532366642
 20
185.692491703014
 30
0.0
 10
125.1845172310539
 20
185.692491703014
 30
0.0
 10
125.1845172310539
 20
185.692491703014
 30
0.0
  0
SPLINE
  5
83
330
47
100
AcDbEntity
  8
Layer 1
370
     0
100
AcDbSpline
210
0.0
220
0.0
230
1.0
 70
    11
 71
     3
 72
    53
 73
    49
 74
     0
 42
0.0000000001
 43
0.0000000001
 40
0.0
 40
0.0
 40
0.0
 40
0.0
 40
1.0
 40
1.0
 40
1.0
 40
2.0
 40
2.0
 40
2.0
 40
3.0
 40
3.0
 40
3.0
 40
4.0
 40
4.0
 40
4.0
 40
5.0
 40
5.0
 40
5.0
 40
6.0
 40
6.0
 40
6.0
 40
7.0
 40
7.0
 40
7.0
 40
8.0
 40
8.0
 40
8.0
 40
9.0
 40
9.0
 40
9.0
 40
10.0
 40
10.0
 40
10.0
 40
11.0
 40
11.0
 40
11.0
 40
12.0
 40
12.0
 40
12.0
 40
13.0
 40
13.0
 40
13.0
 40
14.0
 40
14.0
 40
14.0
 40
15.0
 40
15.0
 40
15.0
 40
16.0
 40
16.0
 40
16.0
 40
16.0
 10
139.3628170539452
 20
179.0375963639594
 30
0.0
 10
139.3628170539452
 20
177.9878750771085
 30
0.0
 10
139.2101992232675
 20
177.0225586853276
 30
0.0
 10
138.9053080716879
 20
176.1419916983926
 30
0.0
 10
138.6007614298841
 20
175.2784779453595
 30
0.0
 10
138.1604779364166
 20
174.5334755552003
 30
0.0
 10
137.5848021010612
 20
173.906812273027
 30
0.0
 10
137.00878175593
 20
173.2972022247557
 30
0.0
 10
136.3145945577007
 20
172.8231567732602
 30
0.0
 10
135.5018959965975
 20
172.4845036636526
 30
0.0
 10
134.7060784145084
 20
172.1458505540449
 30
0.0
 10
133.8086304485594
 20
171.9765239992411
 30
0.0
 10
132.8095520987505
 20
171.9765239992411
 30
0.0
 10
131.8273547279556
 20
171.9765239992411
 30
0.0
 10
130.9299067620066
 20
172.1458505540449
 30
0.0
 10
130.1172082009034
 20
172.4845036636526
 30
0.0
 10
129.3210461090385
 20
172.8231567732602
 30
0.0
 10
128.6354716552041
 20
173.2972022247557
 30
0.0
 10
128.0597958198487
 20
173.906812273027
 30
0.0
 10
127.4837754747175
 20
174.5334755552003
 30
0.0
 10
127.0352237466309
 20
175.2784779453595
 30
0.0
 10
126.7134516160373
 20
176.1419916983926
 30
0.0
 10
126.3916794854436
 20
177.0225586853276
 30
0.0
 10
126.2307934201468
 20
177.9878750771085
 30
0.0
 10
126.2307934201468
 20
179.0375963639594
 30
0.0
 10
126.2307934201468
 20
180.0874899056982
 30
0.0
 10
126.3916794854436
 20
181.0441935530842
 30
0.0
 10
126.7134516160373
 20
181.9078795610052
 30
0.0
 10
127.0521047256449
 20
182.7713933140383
 30
0.0
 10
127.5092691981264
 20
183.5081274695784
 30
0.0
 10
128.0849450334818
 20
184.1177375178497
 30
0.0
 10
128.677846357627
 20
184.7271753112331
 30
0.0
 10
129.3720335558563
 20
185.2013930176165
 30
0.0
 10
130.1678511379455
 20
185.5400461272242
 30
0.0
 10
130.9805496990486
 20
185.8786992368318
 30
0.0
 10
131.8611166859836
 20
186.0480257916356
 30
0.0
 10
132.8095520987505
 20
186.0480257916356
 30
0.0
 10
133.7745239807556
 20
186.0480257916356
 30
0.0
 10
134.6550909676906
 20
185.8786992368318
 30
0.0
 10
135.4509085497797
 20
185.5400461272242
 30
0.0
 10
136.2639516206587
 20
185.2013930176165
 30
0.0
 10
136.9581388188879
 20
184.7271753112331
 30
0.0
 10
137.5338146542433
 20
184.1177375178497
 30
0.0
 10
138.1094904895987
 20
183.5081274695784
 30
0.0
 10
138.5583867274611
 20
182.7713933140383
 30
0.0
 10
138.8801588580548
 20
181.9078795610052
 30
0.0
 10
139.2019309886484
 20
181.0441935530842
 30
0.0
 10
139.3628170539452
 20
180.0874899056982
 30
0.0
 10
139.3628170539452
 20
179.0375963639594
 30
0.0
  0
SPLINE
  5
84
330
47
100
AcDbEntity
  8
Layer 1
370
     0
100
AcDbSpline
210
0.0
220
0.0
230
1.0
 70
    11
 71
     3
 72
    29
 73
    25
 74
     0
 42
0.0000000001
 43
0.0000000001
 40
0.0
 40
0.0
 40
0.0
 40
0.0
 40
1.0
 40
1.0
 40
1.0
 40
2.0
 40
2.0
 40
2.0
 40
3.0
 40
3.0
 40
3.0
 40
4.0
 40
4.0
 40
4.0
 40
5.0
 40
5.0
 40
5.0
 40
6.0
 40
6.0
 40
6.0
 40
7.0
 40
7.0
 40
7.0
 40
8.0
 40
8.0
 40
8.0
 40
8.0
 10
135.5018959965975
 20
179.0375963639594
 30
0.0
 10
135.5018959965975
 20
180.2060012685721
 30
0.0
 10
135.2648732708498
 20
181.120502468423
 30
0.0
 10
134.7908278193542
 20
181.7809277086243
 30
0.0
 10
134.3333188370969
 20
182.4582339278396
 30
0.0
 10
133.6728935968957
 20
182.7968870374472
 30
0.0
 10
132.8095520987505
 20
182.7968870374472
 30
0.0
 10
131.9458660908295
 20
182.7968870374472
 30
0.0
 10
131.2768281062333
 20
182.4582339278396
 30
0.0
 10
130.8027826547378
 20
181.7809277086243
 30
0.0
 10
130.3287372032423
 20
181.120502468423
 30
0.0
 10
130.0917144774945
 20
180.2060012685721
 30
0.0
 10
130.0917144774945
 20
179.0375963639594
 30
0.0
 10
130.0917144774945
 20
177.8691914593467
 30
0.0
 10
130.3287372032423
 20
176.9379815353697
 30
0.0
 10
130.8027826547378
 20
176.2436220822525
 30
0.0
 10
131.2768281062333
 20
175.5663158630372
 30
0.0
 10
131.9458660908295
 20
175.2276627534296
 30
0.0
 10
132.8095520987505
 20
175.2276627534296
 30
0.0
 10
133.6728935968957
 20
175.2276627534296
 30
0.0
 10
134.3333188370969
 20
175.5663158630372
 30
0.0
 10
134.7908278193542
 20
176.2436220822525
 30
0.0
 10
135.2648732708498
 20
176.9379815353697
 30
0.0
 10
135.5018959965975
 20
177.8691914593467
 30
0.0
 10
135.5018959965975
 20
179.0375963639594
 30
0.0
  0
SPLINE
  5
85
330
47
100
AcDbEntity
  8
Layer 1
370
     0
100
AcDbSpline
210
0.0
220
0.0
230
1.0
 70
    11
 71
     3
 72
    53
 73
    49
 74
     0
 42
0.0000000001
 43
0.0000000001
 40
0.0
 40
0.0
 40
0.0
 40
0.0
 40
1.0
 40
1.0
 40
1.0
 40
2.0
 40
2.0
 40
2.0
 40
3.0
 40
3.0
 40
3.0
 40
4.0
 40
4.0
 40
4.0
 40
5.0
 40
5.0
 40
5.0
 40
6.0
 40
6.0
 40
6.0
 40
7.0
 40
7.0
 40
7.0
 40
8.0
 40
8.0
 40
8.0
 40
9.0
 40
9.0
 40
9.0
 40
10.0
 40
10.0
 40
10.0
 40
11.0
 40
11.0
 40
11.0
 40
12.0
 40
12.0
 40
12.0
 40
13.0
 40
13.0
 40
13.0
 40
14.0
 40
14.0
 40
14.0
 40
15.0
 40
15.0
 40
15.0
 40
16.0
 40
16.0
 40
16.0
 40
16.0
 10
153.699246863927
 20
172.7892225603443
 30
0.0
 10
153.0557026027397
 20
172.6030150265265
 30
0.0
 10
152.2261230626225
 20
172.4336884717226
 30
0.0
 10
151.2101637337996
 20
172.2812428959328
 30
0.0
 10
150.1938598952009
 20
172.111916341129
 30
0.0
 10
149.127257629336
 20
172.0271669362832
 30
0.0
 10
148.0096679166533
 20
172.0271669362832
 30
0.0
 10
146.8751972249565
 20
172.0271669362832
 30
0.0
 10
145.9267618121896
 20
172.179612512073
 30
0.0
 10
145.1647061881285
 20
172.4845036636526
 30
0.0
 10
144.4198760528572
 20
172.7892225603443
 30
0.0
 10
143.8269747287119
 20
173.2126250747978
 30
0.0
 10
143.3866912352445
 20
173.7545389521252
 30
0.0
 10
142.9464077417769
 20
174.3133338084665
 30
0.0
 10
142.6332483555782
 20
174.9735867937799
 30
0.0
 10
142.4468685668725
 20
175.735642417841
 30
0.0
 10
142.2608332879426
 20
176.4976980419021
 30
0.0
 10
142.1674711387018
 20
177.3358903264142
 30
0.0
 10
142.1674711387018
 20
178.2502192713773
 30
0.0
 10
142.1674711387018
 20
178.2502192713773
 30
0.0
 10
142.1674711387018
 20
185.692491703014
 30
0.0
 10
142.1674711387018
 20
185.692491703014
 30
0.0
 10
142.1674711387018
 20
185.692491703014
 30
0.0
 10
145.9522555355985
 20
185.692491703014
 30
0.0
 10
145.9522555355985
 20
185.692491703014
 30
0.0
 10
145.9522555355985
 20
185.692491703014
 30
0.0
 10
145.9522555355985
 20
178.7075559987467
 30
0.0
 10
145.9522555355985
 20
178.7075559987467
 30
0.0
 10
145.9522555355985
 20
177.488335902204
 30
0.0
 10
146.1131416008953
 20
176.607768915269
 30
0.0
 10
146.434913731489
 20
176.0658550379416
 30
0.0
 10
146.7566858620826
 20
175.5239411606143
 30
0.0
 10
147.3575109110711
 20
175.2531564768385
 30
0.0
 10
148.2380778980061
 20
175.2531564768385
 30
0.0
 10
148.5092070915577
 20
175.2531564768385
 30
0.0
 10
148.7968727543475
 20
175.2615969663455
 30
0.0
 10
149.1017639059271
 20
175.2784779453595
 30
0.0
 10
149.4066550575067
 20
175.3124121582754
 30
0.0
 10
149.6774397412825
 20
175.3461741163034
 30
0.0
 10
149.9144624670303
 20
175.3801083292194
 30
0.0
 10
149.9144624670303
 20
175.3801083292194
 30
0.0
 10
149.9144624670303
 20
185.692491703014
 30
0.0
 10
149.9144624670303
 20
185.692491703014
 30
0.0
 10
149.9144624670303
 20
185.692491703014
 30
0.0
 10
153.699246863927
 20
185.692491703014
 30
0.0
 10
153.699246863927
 20
185.692491703014
 30
0.0
 10
153.699246863927
 20
185.692491703014
 30
0.0
 10
153.699246863927
 20
172.7892225603443
 30
0.0
 10
153.699246863927
 20
172.7892225603443
 30
0.0
  0
SPLINE
  5
86
330
47
100
AcDbEntity
  8
Layer 1
370
     0
100
AcDbSpline
210
0.0
220
0.0
230
1.0
 70
    11
 71
     3
 72
    38
 73
    34
 74
     0
 42
0.0000000001
 43
0.0000000001
 40
0.0
 40
0.0
 40
0.0
 40
0.0
 40
1.0
 40
1.0
 40
1.0
 40
2.0
 40
2.0
 40
2.0
 40
3.0
 40
3.0
 40
3.0
 40
4.0
 40
4.0
 40
4.0
 40
5.0
 40
5.0
 40
5.0
 40
6.0
 40
6.0
 40
6.0
 40
7.0
 40
7.0
 40
7.0
 40
8.0
 40
8.0
 40
8.0
 40
9.0
 40
9.0
 40
9.0
 40
10.0
 40
10.0
 40
10.0
 40
11.0
 40
11.0
 40
11.0
 40
11.0
 10
168.4590791883622
 20
174.9735867937799
 30
0.0
 10
168.8314942559979
 20
174.9735867937799
 30
0.0
 10
169.1873728543953
 20
174.9821995381748
 30
0.0
 10
169.526025964003
 20
174.9990805171888
 30
0.0
 10
169.8646790736106
 20
175.0159614962028
 30
0.0
 10
170.1354637573864
 20
175.0414552196117
 30
0.0
 10
170.3387245251061
 20
175.0752171776398
 30
0.0
 10
170.3387245251061
 20
175.0752171776398
 30
0.0
 10
170.3387245251061
 20
177.9455003746855
 30
0.0
 10
170.3387245251061
 20
177.9455003746855
 30
0.0
 10
170.1864512042042
 20
177.9792623327136
 30
0.0
 10
169.9576967130756
 20
178.0131965456295
 30
0.0
 10
169.652805561496
 20
178.0471307585454
 30
0.0
 10
169.3479144099163
 20
178.0808927165734
 30
0.0
 10
169.0688614915215
 20
178.0977736955874
 30
0.0
 10
168.8146132769839
 20
178.0977736955874
 30
0.0
 10
168.4590791883622
 20
178.0977736955874
 30
0.0
 10
168.1204260787546
 20
178.0724522270664
 30
0.0
 10
167.798653948161
 20
178.0216370351365
 30
0.0
 10
167.4937627965814
 20
177.9878750771085
 30
0.0
 10
167.2229781128056
 20
177.9115661617696
 30
0.0
 10
166.9859553870578
 20
177.7930547988957
 30
0.0
 10
166.7489326613101
 20
177.6745434360218
 30
0.0
 10
166.5625528726043
 20
177.513657370725
 30
0.0
 10
166.4271605307164
 20
177.3103966030053
 30
0.0
 10
166.2917681888285
 20
177.1073080901735
 30
0.0
 10
166.2238997629967
 20
176.8532321305238
 30
0.0
 10
166.2238997629967
 20
176.5485132338321
 30
0.0
 10
166.2238997629967
 20
175.9557841645748
 30
0.0
 10
166.4185477863215
 20
175.5409943945162
 30
0.0
 10
166.808188342747
 20
175.3037994138805
 30
0.0
 10
167.2143653684107
 20
175.0836576671468
 30
0.0
 10
167.764891990133
 20
174.9735867937799
 30
0.0
 10
168.4590791883622
 20
174.9735867937799
 30
0.0
  0
SPLINE
  5
87
330
47
100
AcDbEntity
  8
Layer 1
370
     0
100
AcDbSpline
210
0.0
220
0.0
230
1.0
 70
    11
 71
     3
 72
    86
 73
    82
 74
     0
 42
0.0000000001
 43
0.0000000001
 40
0.0
 40
0.0
 40
0.0
 40
0.0
 40
1.0
 40
1.0
 40
1.0
 40
2.0
 40
2.0
 40
2.0
 40
3.0
 40
3.0
 40
3.0
 40
4.0
 40
4.0
 40
4.0
 40
5.0
 40
5.0
 40
5.0
 40
6.0
 40
6.0
 40
6.0
 40
7.0
 40
7.0
 40
7.0
 40
8.0
 40
8.0
 40
8.0
 40
9.0
 40
9.0
 40
9.0
 40
10.0
 40
10.0
 40
10.0
 40
11.0
 40
11.0
 40
11.0
 40
12.0
 40
12.0
 40
12.0
 40
13.0
 40
13.0
 40
13.0
 40
14.0
 40
14.0
 40
14.0
 40
15.0
 40
15.0
 40
15.0
 40
16.0
 40
16.0
 40
16.0
 40
17.0
 40
17.0
 40
17.0
 40
18.0
 40
18.0
 40
18.0
 40
19.0
 40
19.0
 40
19.0
 40
20.0
 40
20.0
 40
20.0
 40
21.0
 40
21.0
 40
21.0
 40
22.0
 40
22.0
 40
22.0
 40
23.0
 40
23.0
 40
23.0
 40
24.0
 40
24.0
 40
24.0
 40
25.0
 40
25.0
 40
25.0
 40
26.0
 40
26.0
 40
26.0
 40
27.0
 40
27.0
 40
27.0
 40
27.0
 10
168.1541880367826
 20
186.0480257916356
 30
0.0
 10
169.2717777494654
 20
186.0480257916356
 30
0.0
 10
170.2033321832182
 20
185.9210739392547
 30
0.0
 10
170.9481623184896
 20
185.6669979796051
 30
0.0
 10
171.6933369635367
 20
185.4130942748433
 30
0.0
 10
172.2858937779061
 20
185.0489474418268
 30
0.0
 10
172.7261772713736
 20
184.5749019903312
 30
0.0
 10
173.1833417438551
 20
184.1006842839478
 30
0.0
 10
173.5051138744487
 20
183.5250084485924
 30
0.0
 10
173.6914936631545
 20
182.8477022293771
 30
0.0
 10
173.8778734518602
 20
182.1703960101619
 30
0.0
 10
173.9708910913251
 20
181.4167808756077
 30
0.0
 10
173.9708910913251
 20
180.5870290806027
 30
0.0
 10
173.9708910913251
 20
180.5870290806027
 30
0.0
 10
173.9708910913251
 20
172.7130858998933
 30
0.0
 10
173.9708910913251
 20
172.7130858998933
 30
0.0
 10
173.4289772139978
 20
172.5945745370194
 30
0.0
 10
172.6755343343316
 20
172.4590099402436
 30
0.0
 10
171.7102179425507
 20
172.3065643644539
 30
0.0
 10
170.7452460605456
 20
172.1374100645379
 30
0.0
 10
169.576668901045
 20
172.0526606596921
 30
0.0
 10
168.2051754836005
 20
172.0526606596921
 30
0.0
 10
167.3414894756795
 20
172.0526606596921
 30
0.0
 10
166.5539401282094
 20
172.128797320143
 30
0.0
 10
165.8428719509661
 20
172.2812428959328
 30
0.0
 10
165.1486847527368
 20
172.4336884717226
 30
0.0
 10
164.5475151939725
 20
172.6791516869774
 30
0.0
 10
164.0393632746732
 20
173.017804796585
 30
0.0
 10
163.5315558651496
 20
173.3735111400946
 30
0.0
 10
163.1419153087242
 20
173.8306756125761
 30
0.0
 10
162.8711306249484
 20
174.3894704689175
 30
0.0
 10
162.6000014313968
 20
174.9482653252589
 30
0.0
 10
162.4646090895089
 20
175.6340120339812
 30
0.0
 10
162.4646090895089
 20
176.4468828499722
 30
0.0
 10
162.4646090895089
 20
177.2258194530473
 30
0.0
 10
162.6172269201866
 20
177.8862446932486
 30
0.0
 10
162.9217735619904
 20
178.428158570576
 30
0.0
 10
163.243545692584
 20
178.9699001930155
 30
0.0
 10
163.6669482070375
 20
179.401743196976
 30
0.0
 10
164.1919811053509
 20
179.7235153275696
 30
0.0
 10
164.7166694938884
 20
180.0452874581632
 30
0.0
 10
165.3178390526528
 20
180.2738696944039
 30
0.0
 10
165.995145271868
 20
180.4092620362918
 30
0.0
 10
166.6724514910833
 20
180.5617076120816
 30
0.0
 10
167.3752514337075
 20
180.6378442725326
 30
0.0
 10
168.1035450997406
 20
180.6378442725326
 30
0.0
 10
168.5944715302501
 20
180.6378442725326
 30
0.0
 10
169.0264867890985
 20
180.6125228040116
 30
0.0
 10
169.3989018567342
 20
180.5617076120816
 30
0.0
 10
169.7881979033839
 20
180.5277733991657
 30
0.0
 10
170.1017017993584
 20
180.4769582072358
 30
0.0
 10
170.3387245251061
 20
180.4092620362918
 30
0.0
 10
170.3387245251061
 20
180.4092620362918
 30
0.0
 10
170.3387245251061
 20
180.7647961249135
 30
0.0
 10
170.3387245251061
 20
180.7647961249135
 30
0.0
 10
170.3387245251061
 20
181.4083403861007
 30
0.0
 10
170.1440765017813
 20
181.9247605400192
 30
0.0
 10
169.7544359453558
 20
182.3142288415568
 30
0.0
 10
169.3651398987062
 20
182.7036971430943
 30
0.0
 10
168.6878336794909
 20
182.898517421307
 30
0.0
 10
167.72251728771
 20
182.898517421307
 30
0.0
 10
167.0789730265228
 20
182.898517421307
 30
0.0
 10
166.4440415097305
 20
182.8477022293771
 30
0.0
 10
165.8173782275572
 20
182.7460718455173
 30
0.0
 10
165.1910594551598
 20
182.6614946955593
 30
0.0
 10
164.6491455778324
 20
182.5343705882905
 30
0.0
 10
164.1919811053509
 20
182.3650440334867
 30
0.0
 10
164.1919811053509
 20
182.3650440334867
 30
0.0
 10
163.7093229094605
 20
185.4130942748433
 30
0.0
 10
163.7093229094605
 20
185.4130942748433
 30
0.0
 10
163.9294646561942
 20
185.4807904457872
 30
0.0
 10
164.20024933997
 20
185.5484866167312
 30
0.0
 10
164.5220214705636
 20
185.616355042563
 30
0.0
 10
164.8606745801713
 20
185.700932192521
 30
0.0
 10
165.2248214131878
 20
185.768628363465
 30
0.0
 10
165.6141174598375
 20
185.8194435553949
 30
0.0
 10
166.0037580162629
 20
185.8871397263388
 30
0.0
 10
166.4102795517024
 20
185.9379549182688
 30
0.0
 10
166.8333375563801
 20
185.9718891311847
 30
0.0
 10
167.2736210498476
 20
186.0227043231146
 30
0.0
 10
167.7139045433151
 20
186.0480257916356
 30
0.0
 10
168.1541880367826
 20
186.0480257916356
 30
0.0
  0
SPLINE
  5
88
330
47
100
AcDbEntity
  8
Layer 1
370
     0
100
AcDbSpline
210
0.0
220
0.0
230
1.0
 70
    11
 71
     3
 72
    59
 73
    55
 74
     0
 42
0.0000000001
 43
0.0000000001
 40
0.0
 40
0.0
 40
0.0
 40
0.0
 40
1.0
 40
1.0
 40
1.0
 40
2.0
 40
2.0
 40
2.0
 40
3.0
 40
3.0
 40
3.0
 40
4.0
 40
4.0
 40
4.0
 40
5.0
 40
5.0
 40
5.0
 40
6.0
 40
6.0
 40
6.0
 40
7.0
 40
7.0
 40
7.0
 40
8.0
 40
8.0
 40
8.0
 40
9.0
 40
9.0
 40
9.0
 40
10.0
 40
10.0
 40
10.0
 40
11.0
 40
11.0
 40
11.0
 40
12.0
 40
12.0
 40
12.0
 40
13.0
 40
13.0
 40
13.0
 40
14.0
 40
14.0
 40
14.0
 40
15.0
 40
15.0
 40
15.0
 40
16.0
 40
16.0
 40
16.0
 40
17.0
 40
17.0
 40
17.0
 40
18.0
 40
18.0
 40
18.0
 40
18.0
 10
177.2661270968155
 20
189.0199393725413
 30
0.0
 10
177.2661270968155
 20
189.0199393725413
 30
0.0
 10
181.0509114937122
 20
189.6295494208126
 30
0.0
 10
181.0509114937122
 20
189.6295494208126
 30
0.0
 10
181.0509114937122
 20
189.6295494208126
 30
0.0
 10
181.0509114937122
 20
185.692491703014
 30
0.0
 10
181.0509114937122
 20
185.692491703014
 30
0.0
 10
181.0509114937122
 20
185.692491703014
 30
0.0
 10
185.5974070048943
 20
185.692491703014
 30
0.0
 10
185.5974070048943
 20
185.692491703014
 30
0.0
 10
185.5974070048943
 20
185.692491703014
 30
0.0
 10
185.5974070048943
 20
182.5428110777975
 30
0.0
 10
185.5974070048943
 20
182.5428110777975
 30
0.0
 10
185.5974070048943
 20
182.5428110777975
 30
0.0
 10
181.0509114937122
 20
182.5428110777975
 30
0.0
 10
181.0509114937122
 20
182.5428110777975
 30
0.0
 10
181.0509114937122
 20
182.5428110777975
 30
0.0
 10
181.0509114937122
 20
177.8438699908257
 30
0.0
 10
181.0509114937122
 20
177.8438699908257
 30
0.0
 10
181.0509114937122
 20
177.0480524087365
 30
0.0
 10
181.1863038356001
 20
176.4129486370563
 30
0.0
 10
181.4570885193759
 20
175.9389031855607
 30
0.0
 10
181.7450986919415
 20
175.4646854791773
 30
0.0
 10
182.3125062926778
 20
175.2276627534296
 30
0.0
 10
183.158966811809
 20
175.2276627534296
 30
0.0
 10
183.5654883472484
 20
175.2276627534296
 30
0.0
 10
183.980278117307
 20
175.2615969663455
 30
0.0
 10
184.4036806317605
 20
175.3292931372894
 30
0.0
 10
184.843964125228
 20
175.4138702872474
 30
0.0
 10
185.2418729162726
 20
175.5239411606143
 30
0.0
 10
185.5974070048943
 20
175.6595057573901
 30
0.0
 10
185.5974070048943
 20
175.6595057573901
 30
0.0
 10
186.1307081378267
 20
172.7130858998933
 30
0.0
 10
186.1307081378267
 20
172.7130858998933
 30
0.0
 10
185.6735436653452
 20
172.5267061111876
 30
0.0
 10
185.1657362558217
 20
172.3659923007787
 30
0.0
 10
184.6069413994803
 20
172.2304277040029
 30
0.0
 10
184.0481465431389
 20
172.095035362115
 30
0.0
 10
183.3622275795287
 20
172.0271669362832
 30
0.0
 10
182.5495290184255
 20
172.0271669362832
 30
0.0
 10
181.5163442008128
 20
172.0271669362832
 30
0.0
 10
180.6612709372867
 20
172.1627315330589
 30
0.0
 10
179.9839647180715
 20
172.4336884717226
 30
0.0
 10
179.3066584988562
 20
172.7215263894003
 30
0.0
 10
178.7647446215288
 20
173.1109946909379
 30
0.0
 10
178.3582230860893
 20
173.6020933763353
 30
0.0
 10
177.9520460604257
 20
174.1100730407468
 30
0.0
 10
177.6640358878601
 20
174.7196830890181
 30
0.0
 10
177.4948815879441
 20
175.4309235211493
 30
0.0
 10
177.3422637572664
 20
176.1419916983926
 30
0.0
 10
177.2661270968155
 20
176.9295410458626
 30
0.0
 10
177.2661270968155
 20
177.7930547988957
 30
0.0
 10
177.2661270968155
 20
177.7930547988957
 30
0.0
 10
177.2661270968155
 20
189.0199393725413
 30
0.0
 10
177.2661270968155
 20
189.0199393725413
 30
0.0
  0
HATCH
  5
89
330
47
100
AcDbEntity
  8
Layer 1
 62
     7
420
 16777215
100
AcDbHatch
 10
0.0
 20
0.0
 30
0.0
210
0.0
220
0.0
230
1.0
  2
SOLID
 70
     1
 71
     0
 91
       14
 92
        1
 93
        1
 72
     4
 94
        3
 73
     0
 74
     1
 95
      104
 96
      100
 40
0.0
 40
0.0
 40
0.0
 40
0.0
 40
1.0
 40
1.0
 40
1.0
 40
2.0
 40
2.0
 40
2.0
 40
3.0
 40
3.0
 40
3.0
 40
4.0
 40
4.0
 40
4.0
 40
5.0
 40
5.0
 40
5.0
 40
6.0
 40
6.0
 40
6.0
 40
7.0
 40
7.0
 40
7.0
 40
8.0
 40
8.0
 40
8.0
 40
9.0
 40
9.0
 40
9.0
 40
10.0
 40
10.0
 40
10.0
 40
11.0
 40
11.0
 40
11.0
 40
12.0
 40
12.0
 40
12.0
 40
13.0
 40
13.0
 40
13.0
 40
14.0
 40
14.0
 40
14.0
 40
15.0
 40
15.0
 40
15.0
 40
16.0
 40
16.0
 40
16.0
 40
17.0
 40
17.0
 40
17.0
 40
18.0
 40
18.0
 40
18.0
 40
19.0
 40
19.0
 40
19.0
 40
20.0
 40
20.0
 40
20.0
 40
21.0
 40
21.0
 40
21.0
 40
22.0
 40
22.0
 40
22.0
 40
23.0
 40
23.0
 40
23.0
 40
24.0
 40
24.0
 40
24.0
 40
25.0
 40
25.0
 40
25.0
 40
26.0
 40
26.0
 40
26.0
 40
27.0
 40
27.0
 40
27.0
 40
28.0
 40
28.0
 40
28.0
 40
29.0
 40
29.0
 40
29.0
 40
30.0
 40
30.0
 40
30.0
 40
31.0
 40
31.0
 40
31.0
 40
32.0
 40
32.0
 40
32.0
 40
33.0
 40
33.0
 40
33.0
 40
33.0
 10
40.33933866752501
 20
180.0029127557403
 10
40.00068555791737
 20
178.7159964882537
 10
39.63653872490082
 20
177.4375207102741
 10
39.24724267825115
 20
176.1674854218015
 10
38.87448310083969
 20
174.8974501333289
 10
38.47657430979512
 20
173.6189743553494
 10
38.05351630511742
 20
172.3320580878628
 10
38.05351630511742
 20
172.3320580878628
 10
35.10692419273279
 20
172.3320580878628
 10
35.10692419273279
 20
172.3320580878628
 10
34.80203304115318
 20
173.043298519994
 10
34.47199267594045
 20
173.8899312940131
 10
34.1164585873188
 20
174.8721286648079
 10
33.76092449869716
 20
175.8541537807149
 10
33.38816492128571
 20
176.9209283014677
 10
32.99886887463603
 20
178.0724522270664
 10
32.62610929722458
 20
179.2408571316791
 10
32.2368132505749
 20
180.4685177177288
 10
31.83029171513543
 20
181.7554339852154
 10
31.44099566848576
 20
183.0594034866039
 10
31.0599678564552
 20
184.3716412226115
 10
30.68720827904374
 20
185.692491703014
 10
30.68720827904374
 20
185.692491703014
 10
34.67525344366019
 20
185.692491703014
 10
34.67525344366019
 20
185.692491703014
 10
34.81064578554808
 20
185.0828816547427
 10
34.95465087183089
 20
184.4140159250344
 10
35.10692419273279
 20
183.6858945138892
 10
35.27642300242451
 20
182.974654081758
 10
35.44557730234042
 20
182.2380921811058
 10
35.61507611203214
 20
181.4760365570447
 10
35.80111139096207
 20
180.7139809329836
 10
35.9874911796678
 20
179.9436570743033
 10
36.17387096837353
 20
179.1647204712282
 10
36.37713173609326
 20
178.402664847167
 10
36.58004799403721
 20
177.6661029465149
 10
36.78330876175695
 20
176.9548625143836
 10
37.0034505084907
 20
177.6998649045429
 10
37.21532402060534
 20
178.461920528604
 10
37.41824027854928
 20
179.2408571316791
 10
37.63838202528304
 20
180.0197937347543
 10
37.84164279300278
 20
180.7818493588154
 10
38.02802258170851
 20
181.5268517489746
 10
38.23128334942825
 20
182.2889073730357
 10
38.41731862835817
 20
183.017028784181
 10
38.58681743804989
 20
183.7112159824102
 10
38.77319722675562
 20
184.4224564145414
 10
38.93373878227663
 20
185.0828816547427
 10
39.06947563394032
 20
185.692491703014
 10
39.06947563394032
 20
185.692491703014
 10
41.81246246882942
 20
185.692491703014
 10
41.81246246882942
 20
185.692491703014
 10
41.94819932049311
 20
185.0828816547427
 10
42.10047264139502
 20
184.4224564145414
 10
42.26962694131094
 20
183.7112159824102
 10
42.43912575100265
 20
183.017028784181
 10
42.61689279531348
 20
182.2889073730357
 10
42.8032725840192
 20
181.5268517489746
 10
42.98930786294913
 20
180.7818493588154
 10
43.18430039604976
 20
180.0197937347543
 10
43.38721665399371
 20
179.2408571316791
 10
43.59047742171344
 20
178.461920528604
 10
43.80235093382809
 20
177.6998649045429
 10
44.02249268056185
 20
176.9548625143836
 10
44.22540893850579
 20
177.6661029465149
 10
44.42866970622553
 20
178.402664847167
 10
44.63193047394527
 20
179.1647204712282
 10
44.83519124166501
 20
179.9436570743033
 10
45.02157103037074
 20
180.7139809329836
 10
45.19072533028665
 20
181.4760365570447
 10
45.37710511899238
 20
182.2380921811058
 10
45.5462594189083
 20
182.974654081758
 10
45.698877249586
 20
183.6858945138892
 10
45.86803154950192
 20
184.4140159250344
 10
46.02064938017962
 20
185.0828816547427
 10
46.15604172206752
 20
185.692491703014
 10
46.15604172206752
 20
185.692491703014
 10
50.09309943986614
 20
185.692491703014
 10
50.09309943986614
 20
185.692491703014
 10
49.72033986245468
 20
184.3716412226115
 10
49.33104381580501
 20
183.0594034866039
 10
48.92452228036553
 20
181.7554339852154
 10
48.53522623371586
 20
180.4685177177288
 10
48.14558567729039
 20
179.2408571316791
 10
47.75628963064072
 20
178.0724522270664
 10
47.38353005322926
 20
176.9209283014677
 10
47.01111498559361
 20
175.8541537807149
 10
46.63869991795795
 20
174.8721286648079
 10
46.2828213195605
 20
173.8899312940131
 10
45.95278095434778
 20
173.043298519994
 10
45.64788980276817
 20
172.3320580878628
 10
45.64788980276817
 20
172.3320580878628
 10
42.70164220015933
 20
172.3320580878628
 10
42.70164220015933
 20
172.3320580878628
 10
42.27823968570584
 20
173.6189743553494
 10
41.86344991564725
 20
174.8974501333289
 10
41.45692838020778
 20
176.1674854218015
 10
41.0504068447683
 20
177.4375207102741
 10
40.67799177713264
 20
178.7159964882537
 10
40.33933866752501
 20
180.0029127557403
 97
        0
 92
        1
 93
        1
 72
     4
 94
        3
 73
     0
 74
     1
 95
       59
 96
       55
 40
0.0
 40
0.0
 40
0.0
 40
0.0
 40
1.0
 40
1.0
 40
1.0
 40
2.0
 40
2.0
 40
2.0
 40
3.0
 40
3.0
 40
3.0
 40
4.0
 40
4.0
 40
4.0
 40
5.0
 40
5.0
 40
5.0
 40
6.0
 40
6.0
 40
6.0
 40
7.0
 40
7.0
 40
7.0
 40
8.0
 40
8.0
 40
8.0
 40
9.0
 40
9.0
 40
9.0
 40
10.0
 40
10.0
 40
10.0
 40
11.0
 40
11.0
 40
11.0
 40
12.0
 40
12.0
 40
12.0
 40
13.0
 40
13.0
 40
13.0
 40
14.0
 40
14.0
 40
14.0
 40
15.0
 40
15.0
 40
15.0
 40
16.0
 40
16.0
 40
16.0
 40
17.0
 40
17.0
 40
17.0
 40
18.0
 40
18.0
 40
18.0
 40
18.0
 10
52.12949672459729
 20
172.3320580878628
 10
52.12949672459729
 20
172.3320580878628
 10
52.12949672459729
 20
191.4328858422176
 10
52.12949672459729
 20
191.4328858422176
 10
52.12949672459729
 20
191.4328858422176
 10
55.914281121494
 20
192.042495890489
 10
55.914281121494
 20
192.042495890489
 10
55.914281121494
 20
192.042495890489
 10
55.914281121494
 20
185.6416765110841
 10
55.914281121494
 20
185.6416765110841
 10
56.16818482625578
 20
185.726253661042
 10
56.4899569568494
 20
185.8025625763809
 10
56.87925300349907
 20
185.8702587473248
 10
57.28577453893855
 20
185.9550081521707
 10
57.67507058558822
 20
185.9972105997057
 10
58.04783016299967
 20
185.9972105997057
 10
59.13165791765442
 20
185.9972105997057
 10
60.02910588360344
 20
185.8449372788038
 10
60.74017406084673
 20
185.5400461272242
 10
61.46846772687984
 20
185.2522082095465
 10
62.04414356223523
 20
184.8374184394879
 10
62.46720156691293
 20
184.2955045621605
 10
62.90748506038043
 20
183.7535906848331
 10
63.21237621196004
 20
183.1100464236459
 10
63.38187502165176
 20
182.3650440334867
 10
63.56791030058169
 20
181.6200416433275
 10
63.66127244982245
 20
180.7902898483224
 10
63.66127244982245
 20
179.8757886484715
 10
63.66127244982245
 20
179.8757886484715
 10
63.66127244982245
 20
172.3320580878628
 10
63.66127244982245
 20
172.3320580878628
 10
63.66127244982245
 20
172.3320580878628
 10
59.87648805292574
 20
172.3320580878628
 10
59.87648805292574
 20
172.3320580878628
 10
59.87648805292574
 20
172.3320580878628
 10
59.87648805292574
 20
179.4186241759899
 10
59.87648805292574
 20
179.4186241759899
 10
59.87648805292574
 20
180.6378442725326
 10
59.71560198762893
 20
181.5015302804536
 10
59.39382985703531
 20
182.009509944865
 10
59.08928321523149
 20
182.5174896092765
 10
58.51360737987609
 20
182.7713933140383
 10
57.66680235096911
 20
182.7713933140383
 10
57.32814924136148
 20
182.7713933140383
 10
57.00637711076786
 20
182.7376313560102
 10
56.70148595918825
 20
182.6699351850663
 10
56.41382029639845
 20
182.6191199931364
 10
56.15130384724176
 20
182.5598643116994
 10
55.914281121494
 20
182.4919958858676
 10
55.914281121494
 20
182.4919958858676
 10
55.914281121494
 20
172.3320580878628
 10
55.914281121494
 20
172.3320580878628
 10
55.914281121494
 20
172.3320580878628
 10
52.12949672459729
 20
172.3320580878628
 10
52.12949672459729
 20
172.3320580878628
 97
        0
 92
        1
 93
        1
 72
     4
 94
        3
 73
     0
 74
     1
 95
       71
 96
       67
 40
0.0
 40
0.0
 40
0.0
 40
0.0
 40
1.0
 40
1.0
 40
1.0
 40
2.0
 40
2.0
 40
2.0
 40
3.0
 40
3.0
 40
3.0
 40
4.0
 40
4.0
 40
4.0
 40
5.0
 40
5.0
 40
5.0
 40
6.0
 40
6.0
 40
6.0
 40
7.0
 40
7.0
 40
7.0
 40
8.0
 40
8.0
 40
8.0
 40
9.0
 40
9.0
 40
9.0
 40
10.0
 40
10.0
 40
10.0
 40
11.0
 40
11.0
 40
11.0
 40
12.0
 40
12.0
 40
12.0
 40
13.0
 40
13.0
 40
13.0
 40
14.0
 40
14.0
 40
14.0
 40
15.0
 40
15.0
 40
15.0
 40
16.0
 40
16.0
 40
16.0
 40
17.0
 40
17.0
 40
17.0
 40
18.0
 40
18.0
 40
18.0
 40
19.0
 40
19.0
 40
19.0
 40
20.0
 40
20.0
 40
20.0
 40
21.0
 40
21.0
 40
21.0
 40
22.0
 40
22.0
 40
22.0
 40
22.0
 10
66.45180163377141
 20
178.9106445115785
 10
66.45180163377141
 20
180.0959303952052
 10
66.62956867808224
 20
181.12894295793
 10
66.98510276670389
 20
182.009509944865
 10
67.35751783433955
 20
182.9069579108141
 10
67.84017603022998
 20
183.6519603009733
 10
68.43273284459939
 20
184.2446893702306
 10
69.02563416874459
 20
184.8374184394879
 10
69.70294038795986
 20
185.2859701675745
 10
70.46499601202099
 20
185.5908613191541
 10
71.24393261509613
 20
185.8957524707337
 10
72.03975019718527
 20
186.0480257916356
 10
72.85244875828843
 20
186.0480257916356
 10
74.74897507404634
 20
186.0480257916356
 10
76.24759259875968
 20
185.4639094667732
 10
77.34830133242843
 20
184.2955045621605
 10
78.4490100660972
 20
183.1439806365618
 10
78.99919217804369
 20
181.4422745990167
 10
78.99919217804369
 20
179.1900419397492
 10
78.99919217804369
 20
178.9699001930155
 10
78.99092394342458
 20
178.7244369777607
 10
78.97369845463477
 20
178.453480039097
 10
78.95681747562075
 20
178.1994040794473
 10
78.93993649660675
 20
177.9708218432066
 10
78.92305551759273
 20
177.7677333303747
 10
78.92305551759273
 20
177.7677333303747
 10
70.3378719047522
 20
177.7677333303747
 10
70.3378719047522
 20
177.7677333303747
 10
70.42262130959806
 20
176.9887967272996
 10
70.78642363283882
 20
176.3707461895212
 10
71.42996789402606
 20
175.9134094621518
 10
72.0735121552133
 20
175.4562449896703
 10
72.9371981631343
 20
175.2276627534296
 10
74.02068140801325
 20
175.2276627534296
 10
74.71521311601832
 20
175.2276627534296
 10
75.39251933523359
 20
175.2869184348665
 10
76.05294457543485
 20
175.4054297977404
 10
76.73025079465012
 20
175.5409943945162
 10
77.2804329065966
 20
175.7017082049251
 10
77.70383542105009
 20
175.8880879936308
 10
77.70383542105009
 20
175.8880879936308
 10
78.21198734034944
 20
172.8147162837532
 10
78.21198734034944
 20
172.8147162837532
 10
78.0087265726297
 20
172.7130858998933
 10
77.73759737907811
 20
172.6114555160335
 10
77.39894426947048
 20
172.5098251321736
 10
77.06029115986284
 20
172.4081947483137
 10
76.67926334783228
 20
172.3236175983558
 10
76.25620534315459
 20
172.2559214274118
 10
75.84968380771511
 20
172.1711720225659
 10
75.4094003142476
 20
172.103475851622
 10
74.93535486275208
 20
172.0526606596921
 10
74.46096490148075
 20
172.0018454677621
 10
73.98691944998522
 20
171.9765239992411
 10
73.5128739984897
 20
171.9765239992411
 10
72.31053488096106
 20
171.9765239992411
 10
71.26081359411013
 20
172.154291043552
 10
70.36336562816112
 20
172.5098251321736
 10
69.48279864122611
 20
172.8655314756831
 10
68.7462367405739
 20
173.3480174166857
 10
68.15333541642869
 20
173.957627464957
 10
67.57765958107329
 20
174.5841184922423
 10
67.1459888320007
 20
175.3208526477824
 10
66.8579786594351
 20
176.1674854218015
 10
66.58719397565932
 20
177.0141181958206
 10
66.45180163377141
 20
177.9286193956715
 10
66.45180163377141
 20
178.9106445115785
 97
        0
 92
        1
 93
        1
 72
     4
 94
        3
 73
     0
 74
     1
 95
       32
 96
       28
 40
0.0
 40
0.0
 40
0.0
 40
0.0
 40
1.0
 40
1.0
 40
1.0
 40
2.0
 40
2.0
 40
2.0
 40
3.0
 40
3.0
 40
3.0
 40
4.0
 40
4.0
 40
4.0
 40
5.0
 40
5.0
 40
5.0
 40
6.0
 40
6.0
 40
6.0
 40
7.0
 40
7.0
 40
7.0
 40
8.0
 40
8.0
 40
8.0
 40
9.0
 40
9.0
 40
9.0
 40
9.0
 10
75.34153188841576
 20
180.3584468443619
 10
75.32465090940174
 20
180.6802189749555
 10
75.2653952279648
 20
180.9933783611542
 10
75.16376484410493
 20
181.2982695127339
 10
75.07901543925908
 20
181.6031606643135
 10
74.93535486275208
 20
181.8739453480893
 10
74.73209409503234
 20
182.110968073837
 10
74.5457143063266
 20
182.3481630544727
 10
74.30042334595973
 20
182.5428110777975
 10
73.99553219438013
 20
182.6952566535873
 10
73.70752202181453
 20
182.8477022293771
 10
73.34337518879798
 20
182.9238388898281
 10
72.90309169533047
 20
182.9238388898281
 10
72.48003369065277
 20
182.9238388898281
 10
72.11588685763623
 20
182.8477022293771
 10
71.81099570605662
 20
182.6952566535873
 10
71.506104554477
 20
182.5598643116994
 10
71.25220084971524
 20
182.3734845229937
 10
71.0489400819955
 20
182.1364617972459
 10
70.84567931427576
 20
181.8994390714982
 10
70.68513775875473
 20
181.6200416433275
 10
70.56628188610506
 20
181.2982695127339
 10
70.46499601202099
 20
180.9933783611542
 10
70.38851484179423
 20
180.6802189749555
 10
70.3378719047522
 20
180.3584468443619
 10
70.3378719047522
 20
180.3584468443619
 10
75.34153188841576
 20
180.3584468443619
 10
75.34153188841576
 20
180.3584468443619
 97
        0
 92
        1
 93
        1
 72
     4
 94
        3
 73
     0
 74
     1
 95
       47
 96
       43
 40
0.0
 40
0.0
 40
0.0
 40
0.0
 40
1.0
 40
1.0
 40
1.0
 40
2.0
 40
2.0
 40
2.0
 40
3.0
 40
3.0
 40
3.0
 40
4.0
 40
4.0
 40
4.0
 40
5.0
 40
5.0
 40
5.0
 40
6.0
 40
6.0
 40
6.0
 40
7.0
 40
7.0
 40
7.0
 40
8.0
 40
8.0
 40
8.0
 40
9.0
 40
9.0
 40
9.0
 40
10.0
 40
10.0
 40
10.0
 40
11.0
 40
11.0
 40
11.0
 40
12.0
 40
12.0
 40
12.0
 40
13.0
 40
13.0
 40
13.0
 40
14.0
 40
14.0
 40
14.0
 40
14.0
 10
89.97182853715167
 20
182.3397225649657
 10
89.63317542754403
 20
182.4242997149236
 10
89.23526663649945
 20
182.5090491197695
 10
88.77775765424214
 20
182.5936262697275
 10
88.32059318176063
 20
182.6952566535873
 10
87.82966675125108
 20
182.7460718455173
 10
87.30463385293773
 20
182.7460718455173
 10
87.06761112718996
 20
182.7460718455173
 10
86.77960095462436
 20
182.7207503769962
 10
86.44094784501672
 20
182.6699351850663
 10
86.1195202241989
 20
182.6360009721504
 10
85.87388475405623
 20
182.5936262697275
 10
85.70438594436452
 20
182.5428110777975
 10
85.70438594436452
 20
182.5428110777975
 10
85.70438594436452
 20
172.3320580878628
 10
85.70438594436452
 20
172.3320580878628
 10
85.70438594436452
 20
172.3320580878628
 10
81.9199460572436
 20
172.3320580878628
 10
81.9199460572436
 20
172.3320580878628
 10
81.9199460572436
 20
172.3320580878628
 10
81.9199460572436
 20
184.9812512708828
 10
81.9199460572436
 20
184.9812512708828
 10
82.59725227645887
 20
185.2182739966306
 10
83.39306985854802
 20
185.4384157433643
 10
84.30739880351105
 20
185.6416765110841
 10
85.23895323726389
 20
185.8618182578178
 10
86.2717935451008
 20
185.9718891311847
 10
87.4062642367976
 20
185.9718891311847
 10
87.60952500451732
 20
185.9718891311847
 10
87.85516047466
 20
185.9550081521707
 10
88.1428261374498
 20
185.9210739392547
 10
88.4308363100154
 20
185.9041929602407
 10
88.7185019728052
 20
185.8702587473248
 10
89.00651214537079
 20
185.8194435553949
 10
89.2945223179364
 20
185.7855093424789
 10
89.58218798072619
 20
185.7348664054369
 10
89.8701981532918
 20
185.6669979796051
 10
90.15786381608159
 20
185.616355042563
 10
90.40349928622426
 20
185.5484866167312
 10
90.606760053944
 20
185.4639094667732
 10
90.606760053944
 20
185.4639094667732
 10
89.97182853715167
 20
182.3397225649657
 10
89.97182853715167
 20
182.3397225649657
 97
        0
 92
        1
 93
        1
 72
     4
 94
        3
 73
     0
 74
     1
 95
       71
 96
       67
 40
0.0
 40
0.0
 40
0.0
 40
0.0
 40
1.0
 40
1.0
 40
1.0
 40
2.0
 40
2.0
 40
2.0
 40
3.0
 40
3.0
 40
3.0
 40
4.0
 40
4.0
 40
4.0
 40
5.0
 40
5.0
 40
5.0
 40
6.0
 40
6.0
 40
6.0
 40
7.0
 40
7.0
 40
7.0
 40
8.0
 40
8.0
 40
8.0
 40
9.0
 40
9.0
 40
9.0
 40
10.0
 40
10.0
 40
10.0
 40
11.0
 40
11.0
 40
11.0
 40
12.0
 40
12.0
 40
12.0
 40
13.0
 40
13.0
 40
13.0
 40
14.0
 40
14.0
 40
14.0
 40
15.0
 40
15.0
 40
15.0
 40
16.0
 40
16.0
 40
16.0
 40
17.0
 40
17.0
 40
17.0
 40
18.0
 40
18.0
 40
18.0
 40
19.0
 40
19.0
 40
19.0
 40
20.0
 40
20.0
 40
20.0
 40
21.0
 40
21.0
 40
21.0
 40
22.0
 40
22.0
 40
22.0
 40
22.0
 10
91.75259956824206
 20
178.9106445115785
 10
91.75259956824206
 20
180.0959303952052
 10
91.93036661255287
 20
181.12894295793
 10
92.28590070117453
 20
182.009509944865
 10
92.65831576881018
 20
182.9069579108141
 10
93.14097396470062
 20
183.6519603009733
 10
93.73353077907002
 20
184.2446893702306
 10
94.32643210321524
 20
184.8374184394879
 10
95.00373832243051
 20
185.2859701675745
 10
95.76579394649163
 20
185.5908613191541
 10
96.54473054956676
 20
185.8957524707337
 10
97.34054813165592
 20
186.0480257916356
 10
98.15324669275908
 20
186.0480257916356
 10
100.049773008517
 20
186.0480257916356
 10
101.5483905332303
 20
185.4639094667732
 10
102.6490992668991
 20
184.2955045621605
 10
103.7498080005678
 20
183.1439806365618
 10
104.2999901125143
 20
181.4422745990167
 10
104.2999901125143
 20
179.1900419397492
 10
104.2999901125143
 20
178.9699001930155
 10
104.2917218778952
 20
178.7244369777607
 10
104.2744963891054
 20
178.453480039097
 10
104.2576154100914
 20
178.1994040794473
 10
104.2407344310774
 20
177.9708218432066
 10
104.2238534520634
 20
177.7677333303747
 10
104.2238534520634
 20
177.7677333303747
 10
95.63866983922284
 20
177.7677333303747
 10
95.63866983922284
 20
177.7677333303747
 10
95.7234192440687
 20
176.9887967272996
 10
96.08722156730946
 20
176.3707461895212
 10
96.7307658284967
 20
175.9134094621518
 10
97.37431008968395
 20
175.4562449896703
 10
98.23799609760493
 20
175.2276627534296
 10
99.32147934248388
 20
175.2276627534296
 10
100.016011050489
 20
175.2276627534296
 10
100.6933172697042
 20
175.2869184348665
 10
101.3537425099055
 20
175.4054297977404
 10
102.0310487291208
 20
175.5409943945162
 10
102.5812308410672
 20
175.7017082049251
 10
103.0046333555207
 20
175.8880879936308
 10
103.0046333555207
 20
175.8880879936308
 10
103.5127852748201
 20
172.8147162837532
 10
103.5127852748201
 20
172.8147162837532
 10
103.3095245071003
 20
172.7130858998933
 10
103.0383953135487
 20
172.6114555160335
 10
102.6997422039411
 20
172.5098251321736
 10
102.3610890943335
 20
172.4081947483137
 10
101.9800612823029
 20
172.3236175983558
 10
101.5570032776252
 20
172.2559214274118
 10
101.1504817421857
 20
172.1711720225659
 10
100.7101982487182
 20
172.103475851622
 10
100.2361527972227
 20
172.0526606596921
 10
99.76176283595139
 20
172.0018454677621
 10
99.28771738445586
 20
171.9765239992411
 10
98.81367193296033
 20
171.9765239992411
 10
97.61133281543171
 20
171.9765239992411
 10
96.56161152858078
 20
172.154291043552
 10
95.66416356263176
 20
172.5098251321736
 10
94.78359657569675
 20
172.8655314756831
 10
94.04703467504454
 20
173.3480174166857
 10
93.45413335089934
 20
173.957627464957
 10
92.87845751554394
 20
174.5841184922423
 10
92.44678676647133
 20
175.3208526477824
 10
92.15877659390574
 20
176.1674854218015
 10
91.88799191012995
 20
177.0141181958206
 10
91.75259956824206
 20
177.9286193956715
 10
91.75259956824206
 20
178.9106445115785
 97
        0
 92
        1
 93
        1
 72
     4
 94
        3
 73
     0
 74
     1
 95
       32
 96
       28
 40
0.0
 40
0.0
 40
0.0
 40
0.0
 40
1.0
 40
1.0
 40
1.0
 40
2.0
 40
2.0
 40
2.0
 40
3.0
 40
3.0
 40
3.0
 40
4.0
 40
4.0
 40
4.0
 40
5.0
 40
5.0
 40
5.0
 40
6.0
 40
6.0
 40
6.0
 40
7.0
 40
7.0
 40
7.0
 40
8.0
 40
8.0
 40
8.0
 40
9.0
 40
9.0
 40
9.0
 40
9.0
 10
100.6423298228864
 20
180.3584468443619
 10
100.6254488438724
 20
180.6802189749555
 10
100.5661931624354
 20
180.9933783611542
 10
100.4645627785756
 20
181.2982695127339
 10
100.3798133737297
 20
181.6031606643135
 10
100.2361527972227
 20
181.8739453480893
 10
100.032892029503
 20
182.110968073837
 10
99.84651224079725
 20
182.3481630544727
 10
99.60122128043038
 20
182.5428110777975
 10
99.29633012885077
 20
182.6952566535873
 10
99.00831995628516
 20
182.8477022293771
 10
98.64417312326862
 20
182.9238388898281
 10
98.20388962980111
 20
182.9238388898281
 10
97.78083162512343
 20
182.9238388898281
 10
97.41668479210686
 20
182.8477022293771
 10
97.11179364052725
 20
182.6952566535873
 10
96.80690248894766
 20
182.5598643116994
 10
96.55299878418587
 20
182.3734845229937
 10
96.34973801646613
 20
182.1364617972459
 10
96.1464772487464
 20
181.8994390714982
 10
95.98593569322539
 20
181.6200416433275
 10
95.8674243303515
 20
181.2982695127339
 10
95.76579394649163
 20
180.9933783611542
 10
95.68931277626488
 20
180.6802189749555
 10
95.63866983922284
 20
180.3584468443619
 10
95.63866983922284
 20
180.3584468443619
 10
100.6423298228864
 20
180.3584468443619
 10
100.6423298228864
 20
180.3584468443619
 97
        0
 92
        1
 93
        1
 72
     4
 94
        3
 73
     0
 74
     1
 95
       80
 96
       76
 40
0.0
 40
0.0
 40
0.0
 40
0.0
 40
1.0
 40
1.0
 40
1.0
 40
2.0
 40
2.0
 40
2.0
 40
3.0
 40
3.0
 40
3.0
 40
4.0
 40
4.0
 40
4.0
 40
5.0
 40
5.0
 40
5.0
 40
6.0
 40
6.0
 40
6.0
 40
7.0
 40
7.0
 40
7.0
 40
8.0
 40
8.0
 40
8.0
 40
9.0
 40
9.0
 40
9.0
 40
10.0
 40
10.0
 40
10.0
 40
11.0
 40
11.0
 40
11.0
 40
12.0
 40
12.0
 40
12.0
 40
13.0
 40
13.0
 40
13.0
 40
14.0
 40
14.0
 40
14.0
 40
15.0
 40
15.0
 40
15.0
 40
16.0
 40
16.0
 40
16.0
 40
17.0
 40
17.0
 40
17.0
 40
18.0
 40
18.0
 40
18.0
 40
19.0
 40
19.0
 40
19.0
 40
20.0
 40
20.0
 40
20.0
 40
21.0
 40
21.0
 40
21.0
 40
22.0
 40
22.0
 40
22.0
 40
23.0
 40
23.0
 40
23.0
 40
24.0
 40
24.0
 40
24.0
 40
25.0
 40
25.0
 40
25.0
 40
25.0
 10
125.1845172310539
 20
185.692491703014
 10
124.4224616069928
 20
183.1186591680408
 10
123.6266440249036
 20
180.7055404434765
 10
122.7970644847864
 20
178.453480039097
 10
121.9671404348935
 20
176.2012473798295
 10
121.0610797245495
 20
174.0168831463939
 10
120.0792268635305
 20
171.9002150839023
 10
119.723348265133
 20
171.138331714729
 10
119.3678141765114
 20
170.4947874535418
 10
119.0122800878897
 20
169.9699268101163
 10
118.6567459992681
 20
169.428012932789
 10
118.2671054428426
 20
168.9877294393215
 10
117.8440474381649
 20
168.6490763297138
 10
117.4206449237114
 20
168.2933699862043
 10
116.937986727821
 20
168.0394662814425
 10
116.3960728504936
 20
167.8870207056527
 10
115.8710399521802
 20
167.7176941508489
 10
115.2529894144019
 20
167.6331170008909
 10
114.5419212371586
 20
167.6331170008909
 10
113.9493644227892
 20
167.6331170008909
 10
113.3988378010669
 20
167.6923726823279
 10
112.8910303915434
 20
167.8108840452017
 10
112.399759451258
 20
167.9125144290616
 10
111.9935824255944
 20
168.0310257919355
 10
111.6718102950007
 20
168.1664181338234
 10
111.6718102950007
 20
168.1664181338234
 10
112.332235535202
 20
171.1889746517711
 10
112.332235535202
 20
171.1889746517711
 10
112.7215315818517
 20
171.0535823098832
 10
113.0687974358542
 20
170.9603924155303
 10
113.373344077658
 20
170.9095772236004
 10
113.6782352292376
 20
170.8589342865583
 10
114.0000073598313
 20
170.8334405631494
 10
114.3386604694389
 20
170.8334405631494
 10
115.0159666886542
 20
170.8334405631494
 10
115.5323868425726
 20
171.0198203518551
 10
115.8882654409701
 20
171.3922354194908
 10
116.2606805086057
 20
171.7477695081125
 10
116.5738398948044
 20
172.2473086830169
 10
116.8277435995662
 20
172.8908529442041
 10
115.964402101421
 20
174.5841184922423
 10
115.1007160935
 20
176.4806448080002
 10
114.237030085579
 20
178.5804318914779
 10
113.373344077658
 20
180.6970999539695
 10
112.5606455165549
 20
183.0678439761109
 10
111.7985898924937
 20
185.692491703014
 10
111.7985898924937
 20
185.692491703014
 10
115.8117842707433
 20
185.692491703014
 10
115.8117842707433
 20
185.692491703014
 10
115.981283080435
 20
185.0320664628127
 10
116.1759311037599
 20
184.3123855411745
 10
116.3960728504936
 20
183.5334489380994
 10
116.6330955762414
 20
182.7713933140383
 10
116.878731046384
 20
181.9924567109631
 10
117.1326347511458
 20
181.196639128874
 10
117.3868829656834
 20
180.4177025257989
 10
117.6407866704452
 20
179.6556469017377
 10
117.8946903752069
 20
178.9106445115785
 10
118.1654750589827
 20
178.1656421214193
 10
118.4197232735203
 20
177.488335902204
 10
118.6567459992681
 20
176.8787258539327
 10
118.8768877460018
 20
177.488335902204
 10
119.1052977273547
 20
178.1656421214193
 10
119.3426649628782
 20
178.9106445115785
 10
119.579687688626
 20
179.6556469017377
 10
119.8080976699789
 20
180.4177025257989
 10
120.0282394167126
 20
181.196639128874
 10
120.2652621424604
 20
181.9924567109631
 10
120.4854038891941
 20
182.7713933140383
 10
120.6886646569139
 20
183.5334489380994
 10
120.9088064036476
 20
184.3123855411745
 10
121.1034544269725
 20
185.0320664628127
 10
121.2729532366642
 20
185.692491703014
 10
121.2729532366642
 20
185.692491703014
 10
125.1845172310539
 20
185.692491703014
 10
125.1845172310539
 20
185.692491703014
 97
        0
 92
        1
 93
        1
 72
     4
 94
        3
 73
     0
 74
     1
 95
       53
 96
       49
 40
0.0
 40
0.0
 40
0.0
 40
0.0
 40
1.0
 40
1.0
 40
1.0
 40
2.0
 40
2.0
 40
2.0
 40
3.0
 40
3.0
 40
3.0
 40
4.0
 40
4.0
 40
4.0
 40
5.0
 40
5.0
 40
5.0
 40
6.0
 40
6.0
 40
6.0
 40
7.0
 40
7.0
 40
7.0
 40
8.0
 40
8.0
 40
8.0
 40
9.0
 40
9.0
 40
9.0
 40
10.0
 40
10.0
 40
10.0
 40
11.0
 40
11.0
 40
11.0
 40
12.0
 40
12.0
 40
12.0
 40
13.0
 40
13.0
 40
13.0
 40
14.0
 40
14.0
 40
14.0
 40
15.0
 40
15.0
 40
15.0
 40
16.0
 40
16.0
 40
16.0
 40
16.0
 10
139.3628170539452
 20
179.0375963639594
 10
139.3628170539452
 20
177.9878750771085
 10
139.2101992232675
 20
177.0225586853276
 10
138.9053080716879
 20
176.1419916983926
 10
138.6007614298841
 20
175.2784779453595
 10
138.1604779364166
 20
174.5334755552003
 10
137.5848021010612
 20
173.906812273027
 10
137.00878175593
 20
173.2972022247557
 10
136.3145945577007
 20
172.8231567732602
 10
135.5018959965975
 20
172.4845036636526
 10
134.7060784145084
 20
172.1458505540449
 10
133.8086304485594
 20
171.9765239992411
 10
132.8095520987505
 20
171.9765239992411
 10
131.8273547279556
 20
171.9765239992411
 10
130.9299067620066
 20
172.1458505540449
 10
130.1172082009034
 20
172.4845036636526
 10
129.3210461090385
 20
172.8231567732602
 10
128.6354716552041
 20
173.2972022247557
 10
128.0597958198487
 20
173.906812273027
 10
127.4837754747175
 20
174.5334755552003
 10
127.0352237466309
 20
175.2784779453595
 10
126.7134516160373
 20
176.1419916983926
 10
126.3916794854436
 20
177.0225586853276
 10
126.2307934201468
 20
177.9878750771085
 10
126.2307934201468
 20
179.0375963639594
 10
126.2307934201468
 20
180.0874899056982
 10
126.3916794854436
 20
181.0441935530842
 10
126.7134516160373
 20
181.9078795610052
 10
127.0521047256449
 20
182.7713933140383
 10
127.5092691981264
 20
183.5081274695784
 10
128.0849450334818
 20
184.1177375178497
 10
128.677846357627
 20
184.7271753112331
 10
129.3720335558563
 20
185.2013930176165
 10
130.1678511379455
 20
185.5400461272242
 10
130.9805496990486
 20
185.8786992368318
 10
131.8611166859836
 20
186.0480257916356
 10
132.8095520987505
 20
186.0480257916356
 10
133.7745239807556
 20
186.0480257916356
 10
134.6550909676906
 20
185.8786992368318
 10
135.4509085497797
 20
185.5400461272242
 10
136.2639516206587
 20
185.2013930176165
 10
136.9581388188879
 20
184.7271753112331
 10
137.5338146542433
 20
184.1177375178497
 10
138.1094904895987
 20
183.5081274695784
 10
138.5583867274611
 20
182.7713933140383
 10
138.8801588580548
 20
181.9078795610052
 10
139.2019309886484
 20
181.0441935530842
 10
139.3628170539452
 20
180.0874899056982
 10
139.3628170539452
 20
179.0375963639594
 97
        0
 92
        1
 93
        1
 72
     4
 94
        3
 73
     0
 74
     1
 95
       29
 96
       25
 40
0.0
 40
0.0
 40
0.0
 40
0.0
 40
1.0
 40
1.0
 40
1.0
 40
2.0
 40
2.0
 40
2.0
 40
3.0
 40
3.0
 40
3.0
 40
4.0
 40
4.0
 40
4.0
 40
5.0
 40
5.0
 40
5.0
 40
6.0
 40
6.0
 40
6.0
 40
7.0
 40
7.0
 40
7.0
 40
8.0
 40
8.0
 40
8.0
 40
8.0
 10
135.5018959965975
 20
179.0375963639594
 10
135.5018959965975
 20
180.2060012685721
 10
135.2648732708498
 20
181.120502468423
 10
134.7908278193542
 20
181.7809277086243
 10
134.3333188370969
 20
182.4582339278396
 10
133.6728935968957
 20
182.7968870374472
 10
132.8095520987505
 20
182.7968870374472
 10
131.9458660908295
 20
182.7968870374472
 10
131.2768281062333
 20
182.4582339278396
 10
130.8027826547378
 20
181.7809277086243
 10
130.3287372032423
 20
181.120502468423
 10
130.0917144774945
 20
180.2060012685721
 10
130.0917144774945
 20
179.0375963639594
 10
130.0917144774945
 20
177.8691914593467
 10
130.3287372032423
 20
176.9379815353697
 10
130.8027826547378
 20
176.2436220822525
 10
131.2768281062333
 20
175.5663158630372
 10
131.9458660908295
 20
175.2276627534296
 10
132.8095520987505
 20
175.2276627534296
 10
133.6728935968957
 20
175.2276627534296
 10
134.3333188370969
 20
175.5663158630372
 10
134.7908278193542
 20
176.2436220822525
 10
135.2648732708498
 20
176.9379815353697
 10
135.5018959965975
 20
177.8691914593467
 10
135.5018959965975
 20
179.0375963639594
 97
        0
 92
        1
 93
        1
 72
     4
 94
        3
 73
     0
 74
     1
 95
       53
 96
       49
 40
0.0
 40
0.0
 40
0.0
 40
0.0
 40
1.0
 40
1.0
 40
1.0
 40
2.0
 40
2.0
 40
2.0
 40
3.0
 40
3.0
 40
3.0
 40
4.0
 40
4.0
 40
4.0
 40
5.0
 40
5.0
 40
5.0
 40
6.0
 40
6.0
 40
6.0
 40
7.0
 40
7.0
 40
7.0
 40
8.0
 40
8.0
 40
8.0
 40
9.0
 40
9.0
 40
9.0
 40
10.0
 40
10.0
 40
10.0
 40
11.0
 40
11.0
 40
11.0
 40
12.0
 40
12.0
 40
12.0
 40
13.0
 40
13.0
 40
13.0
 40
14.0
 40
14.0
 40
14.0
 40
15.0
 40
15.0
 40
15.0
 40
16.0
 40
16.0
 40
16.0
 40
16.0
 10
153.699246863927
 20
172.7892225603443
 10
153.0557026027397
 20
172.6030150265265
 10
152.2261230626225
 20
172.4336884717226
 10
151.2101637337996
 20
172.2812428959328
 10
150.1938598952009
 20
172.111916341129
 10
149.127257629336
 20
172.0271669362832
 10
148.0096679166533
 20
172.0271669362832
 10
146.8751972249565
 20
172.0271669362832
 10
145.9267618121896
 20
172.179612512073
 10
145.1647061881285
 20
172.4845036636526
 10
144.4198760528572
 20
172.7892225603443
 10
143.8269747287119
 20
173.2126250747978
 10
143.3866912352445
 20
173.7545389521252
 10
142.9464077417769
 20
174.3133338084665
 10
142.6332483555782
 20
174.9735867937799
 10
142.4468685668725
 20
175.735642417841
 10
142.2608332879426
 20
176.4976980419021
 10
142.1674711387018
 20
177.3358903264142
 10
142.1674711387018
 20
178.2502192713773
 10
142.1674711387018
 20
178.2502192713773
 10
142.1674711387018
 20
185.692491703014
 10
142.1674711387018
 20
185.692491703014
 10
142.1674711387018
 20
185.692491703014
 10
145.9522555355985
 20
185.692491703014
 10
145.9522555355985
 20
185.692491703014
 10
145.9522555355985
 20
185.692491703014
 10
145.9522555355985
 20
178.7075559987467
 10
145.9522555355985
 20
178.7075559987467
 10
145.9522555355985
 20
177.488335902204
 10
146.1131416008953
 20
176.607768915269
 10
146.434913731489
 20
176.0658550379416
 10
146.7566858620826
 20
175.5239411606143
 10
147.3575109110711
 20
175.2531564768385
 10
148.2380778980061
 20
175.2531564768385
 10
148.5092070915577
 20
175.2531564768385
 10
148.7968727543475
 20
175.2615969663455
 10
149.1017639059271
 20
175.2784779453595
 10
149.4066550575067
 20
175.3124121582754
 10
149.6774397412825
 20
175.3461741163034
 10
149.9144624670303
 20
175.3801083292194
 10
149.9144624670303
 20
175.3801083292194
 10
149.9144624670303
 20
185.692491703014
 10
149.9144624670303
 20
185.692491703014
 10
149.9144624670303
 20
185.692491703014
 10
153.699246863927
 20
185.692491703014
 10
153.699246863927
 20
185.692491703014
 10
153.699246863927
 20
185.692491703014
 10
153.699246863927
 20
172.7892225603443
 10
153.699246863927
 20
172.7892225603443
 97
        0
 92
        1
 93
        1
 72
     4
 94
        3
 73
     0
 74
     1
 95
       38
 96
       34
 40
0.0
 40
0.0
 40
0.0
 40
0.0
 40
1.0
 40
1.0
 40
1.0
 40
2.0
 40
2.0
 40
2.0
 40
3.0
 40
3.0
 40
3.0
 40
4.0
 40
4.0
 40
4.0
 40
5.0
 40
5.0
 40
5.0
 40
6.0
 40
6.0
 40
6.0
 40
7.0
 40
7.0
 40
7.0
 40
8.0
 40
8.0
 40
8.0
 40
9.0
 40
9.0
 40
9.0
 40
10.0
 40
10.0
 40
10.0
 40
11.0
 40
11.0
 40
11.0
 40
11.0
 10
168.4590791883622
 20
174.9735867937799
 10
168.8314942559979
 20
174.9735867937799
 10
169.1873728543953
 20
174.9821995381748
 10
169.526025964003
 20
174.9990805171888
 10
169.8646790736106
 20
175.0159614962028
 10
170.1354637573864
 20
175.0414552196117
 10
170.3387245251061
 20
175.0752171776398
 10
170.3387245251061
 20
175.0752171776398
 10
170.3387245251061
 20
177.9455003746855
 10
170.3387245251061
 20
177.9455003746855
 10
170.1864512042042
 20
177.9792623327136
 10
169.9576967130756
 20
178.0131965456295
 10
169.652805561496
 20
178.0471307585454
 10
169.3479144099163
 20
178.0808927165734
 10
169.0688614915215
 20
178.0977736955874
 10
168.8146132769839
 20
178.0977736955874
 10
168.4590791883622
 20
178.0977736955874
 10
168.1204260787546
 20
178.0724522270664
 10
167.798653948161
 20
178.0216370351365
 10
167.4937627965814
 20
177.9878750771085
 10
167.2229781128056
 20
177.9115661617696
 10
166.9859553870578
 20
177.7930547988957
 10
166.7489326613101
 20
177.6745434360218
 10
166.5625528726043
 20
177.513657370725
 10
166.4271605307164
 20
177.3103966030053
 10
166.2917681888285
 20
177.1073080901735
 10
166.2238997629967
 20
176.8532321305238
 10
166.2238997629967
 20
176.5485132338321
 10
166.2238997629967
 20
175.9557841645748
 10
166.4185477863215
 20
175.5409943945162
 10
166.808188342747
 20
175.3037994138805
 10
167.2143653684107
 20
175.0836576671468
 10
167.764891990133
 20
174.9735867937799
 10
168.4590791883622
 20
174.9735867937799
 97
        0
 92
        1
 93
        1
 72
     4
 94
        3
 73
     0
 74
     1
 95
       86
 96
       82
 40
0.0
 40
0.0
 40
0.0
 40
0.0
 40
1.0
 40
1.0
 40
1.0
 40
2.0
 40
2.0
 40
2.0
 40
3.0
 40
3.0
 40
3.0
 40
4.0
 40
4.0
 40
4.0
 40
5.0
 40
5.0
 40
5.0
 40
6.0
 40
6.0
 40
6.0
 40
7.0
 40
7.0
 40
7.0
 40
8.0
 40
8.0
 40
8.0
 40
9.0
 40
9.0
 40
9.0
 40
10.0
 40
10.0
 40
10.0
 40
11.0
 40
11.0
 40
11.0
 40
12.0
 40
12.0
 40
12.0
 40
13.0
 40
13.0
 40
13.0
 40
14.0
 40
14.0
 40
14.0
 40
15.0
 40
15.0
 40
15.0
 40
16.0
 40
16.0
 40
16.0
 40
17.0
 40
17.0
 40
17.0
 40
18.0
 40
18.0
 40
18.0
 40
19.0
 40
19.0
 40
19.0
 40
20.0
 40
20.0
 40
20.0
 40
21.0
 40
21.0
 40
21.0
 40
22.0
 40
22.0
 40
22.0
 40
23.0
 40
23.0
 40
23.0
 40
24.0
 40
24.0
 40
24.0
 40
25.0
 40
25.0
 40
25.0
 40
26.0
 40
26.0
 40
26.0
 40
27.0
 40
27.0
 40
27.0
 40
27.0
 10
168.1541880367826
 20
186.0480257916356
 10
169.2717777494654
 20
186.0480257916356
 10
170.2033321832182
 20
185.9210739392547
 10
170.9481623184896
 20
185.6669979796051
 10
171.6933369635367
 20
185.4130942748433
 10
172.2858937779061
 20
185.0489474418268
 10
172.7261772713736
 20
184.5749019903312
 10
173.1833417438551
 20
184.1006842839478
 10
173.5051138744487
 20
183.5250084485924
 10
173.6914936631545
 20
182.8477022293771
 10
173.8778734518602
 20
182.1703960101619
 10
173.9708910913251
 20
181.4167808756077
 10
173.9708910913251
 20
180.5870290806027
 10
173.9708910913251
 20
180.5870290806027
 10
173.9708910913251
 20
172.7130858998933
 10
173.9708910913251
 20
172.7130858998933
 10
173.4289772139978
 20
172.5945745370194
 10
172.6755343343316
 20
172.4590099402436
 10
171.7102179425507
 20
172.3065643644539
 10
170.7452460605456
 20
172.1374100645379
 10
169.576668901045
 20
172.0526606596921
 10
168.2051754836005
 20
172.0526606596921
 10
167.3414894756795
 20
172.0526606596921
 10
166.5539401282094
 20
172.128797320143
 10
165.8428719509661
 20
172.2812428959328
 10
165.1486847527368
 20
172.4336884717226
 10
164.5475151939725
 20
172.6791516869774
 10
164.0393632746732
 20
173.017804796585
 10
163.5315558651496
 20
173.3735111400946
 10
163.1419153087242
 20
173.8306756125761
 10
162.8711306249484
 20
174.3894704689175
 10
162.6000014313968
 20
174.9482653252589
 10
162.4646090895089
 20
175.6340120339812
 10
162.4646090895089
 20
176.4468828499722
 10
162.4646090895089
 20
177.2258194530473
 10
162.6172269201866
 20
177.8862446932486
 10
162.9217735619904
 20
178.428158570576
 10
163.243545692584
 20
178.9699001930155
 10
163.6669482070375
 20
179.401743196976
 10
164.1919811053509
 20
179.7235153275696
 10
164.7166694938884
 20
180.0452874581632
 10
165.3178390526528
 20
180.2738696944039
 10
165.995145271868
 20
180.4092620362918
 10
166.6724514910833
 20
180.5617076120816
 10
167.3752514337075
 20
180.6378442725326
 10
168.1035450997406
 20
180.6378442725326
 10
168.5944715302501
 20
180.6378442725326
 10
169.0264867890985
 20
180.6125228040116
 10
169.3989018567342
 20
180.5617076120816
 10
169.7881979033839
 20
180.5277733991657
 10
170.1017017993584
 20
180.4769582072358
 10
170.3387245251061
 20
180.4092620362918
 10
170.3387245251061
 20
180.4092620362918
 10
170.3387245251061
 20
180.7647961249135
 10
170.3387245251061
 20
180.7647961249135
 10
170.3387245251061
 20
181.4083403861007
 10
170.1440765017813
 20
181.9247605400192
 10
169.7544359453558
 20
182.3142288415568
 10
169.3651398987062
 20
182.7036971430943
 10
168.6878336794909
 20
182.898517421307
 10
167.72251728771
 20
182.898517421307
 10
167.0789730265228
 20
182.898517421307
 10
166.4440415097305
 20
182.8477022293771
 10
165.8173782275572
 20
182.7460718455173
 10
165.1910594551598
 20
182.6614946955593
 10
164.6491455778324
 20
182.5343705882905
 10
164.1919811053509
 20
182.3650440334867
 10
164.1919811053509
 20
182.3650440334867
 10
163.7093229094605
 20
185.4130942748433
 10
163.7093229094605
 20
185.4130942748433
 10
163.9294646561942
 20
185.4807904457872
 10
164.20024933997
 20
185.5484866167312
 10
164.5220214705636
 20
185.616355042563
 10
164.8606745801713
 20
185.700932192521
 10
165.2248214131878
 20
185.768628363465
 10
165.6141174598375
 20
185.8194435553949
 10
166.0037580162629
 20
185.8871397263388
 10
166.4102795517024
 20
185.9379549182688
 10
166.8333375563801
 20
185.9718891311847
 10
167.2736210498476
 20
186.0227043231146
 10
167.7139045433151
 20
186.0480257916356
 10
168.1541880367826
 20
186.0480257916356
 97
        0
 92
        1
 93
        1
 72
     4
 94
        3
 73
     0
 74
     1
 95
       59
 96
       55
 40
0.0
 40
0.0
 40
0.0
 40
0.0
 40
1.0
 40
1.0
 40
1.0
 40
2.0
 40
2.0
 40
2.0
 40
3.0
 40
3.0
 40
3.0
 40
4.0
 40
4.0
 40
4.0
 40
5.0
 40
5.0
 40
5.0
 40
6.0
 40
6.0
 40
6.0
 40
7.0
 40
7.0
 40
7.0
 40
8.0
 40
8.0
 40
8.0
 40
9.0
 40
9.0
 40
9.0
 40
10.0
 40
10.0
 40
10.0
 40
11.0
 40
11.0
 40
11.0
 40
12.0
 40
12.0
 40
12.0
 40
13.0
 40
13.0
 40
13.0
 40
14.0
 40
14.0
 40
14.0
 40
15.0
 40
15.0
 40
15.0
 40
16.0
 40
16.0
 40
16.0
 40
17.0
 40
17.0
 40
17.0
 40
18.0
 40
18.0
 40
18.0
 40
18.0
 10
177.2661270968155
 20
189.0199393725413
 10
177.2661270968155
 20
189.0199393725413
 10
181.0509114937122
 20
189.6295494208126
 10
181.0509114937122
 20
189.6295494208126
 10
181.0509114937122
 20
189.6295494208126
 10
181.0509114937122
 20
185.692491703014
 10
181.0509114937122
 20
185.692491703014
 10
181.0509114937122
 20
185.692491703014
 10
185.5974070048943
 20
185.692491703014
 10
185.5974070048943
 20
185.692491703014
 10
185.5974070048943
 20
185.692491703014
 10
185.5974070048943
 20
182.5428110777975
 10
185.5974070048943
 20
182.5428110777975
 10
185.5974070048943
 20
182.5428110777975
 10
181.0509114937122
 20
182.5428110777975
 10
181.0509114937122
 20
182.5428110777975
 10
181.0509114937122
 20
182.5428110777975
 10
181.0509114937122
 20
177.8438699908257
 10
181.0509114937122
 20
177.8438699908257
 10
181.0509114937122
 20
177.0480524087365
 10
181.1863038356001
 20
176.4129486370563
 10
181.4570885193759
 20
175.9389031855607
 10
181.7450986919415
 20
175.4646854791773
 10
182.3125062926778
 20
175.2276627534296
 10
183.158966811809
 20
175.2276627534296
 10
183.5654883472484
 20
175.2276627534296
 10
183.980278117307
 20
175.2615969663455
 10
184.4036806317605
 20
175.3292931372894
 10
184.843964125228
 20
175.4138702872474
 10
185.2418729162726
 20
175.5239411606143
 10
185.5974070048943
 20
175.6595057573901
 10
185.5974070048943
 20
175.6595057573901
 10
186.1307081378267
 20
172.7130858998933
 10
186.1307081378267
 20
172.7130858998933
 10
185.6735436653452
 20
172.5267061111876
 10
185.1657362558217
 20
172.3659923007787
 10
184.6069413994803
 20
172.2304277040029
 10
184.0481465431389
 20
172.095035362115
 10
183.3622275795287
 20
172.0271669362832
 10
182.5495290184255
 20
172.0271669362832
 10
181.5163442008128
 20
172.0271669362832
 10
180.6612709372867
 20
172.1627315330589
 10
179.9839647180715
 20
172.4336884717226
 10
179.3066584988562
 20
172.7215263894003
 10
178.7647446215288
 20
173.1109946909379
 10
178.3582230860893
 20
173.6020933763353
 10
177.9520460604257
 20
174.1100730407468
 10
177.6640358878601
 20
174.7196830890181
 10
177.4948815879441
 20
175.4309235211493
 10
177.3422637572664
 20
176.1419916983926
 10
177.2661270968155
 20
176.9295410458626
 10
177.2661270968155
 20
177.7930547988957
 10
177.2661270968155
 20
177.7930547988957
 10
177.2661270968155
 20
189.0199393725413
 10
177.2661270968155
 20
189.0199393725413
 97
        0
 75
     2
 76
     1
 98
        0
  0
ENDBLK
  5
4A
330
47
100
AcDbEntity
  8
0
100
AcDbBlockEnd
  0
ENDSEC
  0
SECTION
  2
ENTITIES
  0
INSERT
  5
3D
330
1F
100
AcDbEntity
  8
Layer 1
100
AcDbBlockReference
  2
block 2
 10
0.0
 20
0.0
 30
0.0
  0
ENDSEC
  0
SECTION
  2
OBJECTS
  0
DICTIONARY
  5
C
330
0
100
AcDbDictionary
281
     1
  3
ACAD_GROUP
350
D
  3
ACAD_LAYOUT
350
1A
  3
ACAD_MLINESTYLE
350
17
  3
ACAD_PLOTSETTINGS
350
19
  3
ACAD_PLOTSTYLENAME
350
E
  3
ACAD_TABLESTYLE
350
8A
  3
ACAD_VISUALSTYLE
350
2A
  0
DICTIONARY
  5
D
102
{ACAD_REACTORS
330
C
102
}
330
C
100
AcDbDictionary
281
     1
  0
DICTIONARY
  5
1A
102
{ACAD_REACTORS
330
C
102
}
330
C
100
AcDbDictionary
281
     1
  3
Layout1
350
1E
  3
Layout2
350
26
  3
Model
350
22
  0
DICTIONARY
  5
17
102
{ACAD_REACTORS
330
C
102
}
330
C
100
AcDbDictionary
281
     1
  3
Standard
350
18
  0
DICTIONARY
  5
19
102
{ACAD_REACTORS
330
C
102
}
330
C
100
AcDbDictionary
281
     1
  0
ACDBDICTIONARYWDFLT
  5
E
102
{ACAD_REACTORS
330
C
102
}
330
C
100
AcDbDictionary
281
     1
  3
Normal
350
F
100
AcDbDictionaryWithDefault
340
F
  0
DICTIONARY
  5
8A
102
{ACAD_REACTORS
330
C
102
}
330
C
100
AcDbDictionary
281
     1
  0
DICTIONARY
  5
2A
102
{ACAD_REACTORS
330
C
102
}
330
C
100
AcDbDictionary
281
     1
  3
2dWireframe
350
2F
  3
3D Hidden
350
31
  3
3dWireframe
350
30
  3
Basic
350
32
  3
Brighten
350
36
  3
ColorChange
350
3A
  3
Conceptual
350
34
  3
Dim
350
35
  3
Facepattern
350
39
  3
Flat
350
2B
  3
FlatWithEdges
350
2C
  3
Gouraud
350
2D
  3
GouraudWithEdges
350
2E
  3
Linepattern
350
38
  3
Realistic
350
33
  3
Thicken
350
37
  0
LAYOUT
  5
1E
102
{ACAD_REACTORS
330
1A
102
}
330
1A
100
AcDbPlotSettings
  1

  2
none_device
  4

  6

 40
0.0
 41
0.0
 42
0.0
 43
0.0
 44
0.0
 45
0.0
 46
0.0
 47
0.0
 48
0.0
 49
0.0
140
0.0
141
0.0
142
1.0
143
1.0
 70
   688
 72
     0
 73
     0
 74
     5
  7

 75
    16
 76
     0
 77
     2
 78
   300
147
1.0
148
0.0
149
0.0
100
AcDbLayout
  1
Layout1
 70
     1
 71
     1
 10
0.0
 20
0.0
 11
12.0
 21
9.0
 12
0.0
 22
0.0
 32
0.0
 14
1.000000000000000E+20
 24
1.000000000000000E+20
 34
1.000000000000000E+20
 15
-1.000000000000000E+20
 25
-1.000000000000000E+20
 35
-1.000000000000000E+20
146
0.0
 13
0.0
 23
0.0
 33
0.0
 16
1.0
 26
0.0
 36
0.0
 17
0.0
 27
1.0
 37
0.0
 76
     0
330
1B
  0
LAYOUT
  5
26
102
{ACAD_REACTORS
330
1A
102
}
330
1A
100
AcDbPlotSettings
  1

  2
none_device
  4

  6

 40
0.0
 41
0.0
 42
0.0
 43
0.0
 44
0.0
 45
0.0
 46
0.0
 47
0.0
 48
0.0
 49
0.0
140
0.0
141
0.0
142
1.0
143
1.0
 70
   688
 72
     0
 73
     0
 74
     5
  7

 75
    16
 76
     0
 77
     2
 78
   300
147
1.0
148
0.0
149
0.0
100
AcDbLayout
  1
Layout2
 70
     1
 71
     2
 10
0.0
 20
0.0
 11
0.0
 21
0.0
 12
0.0
 22
0.0
 32
0.0
 14
0.0
 24
0.0
 34
0.0
 15
0.0
 25
0.0
 35
0.0
146
0.0
 13
0.0
 23
0.0
 33
0.0
 16
1.0
 26
0.0
 36
0.0
 17
0.0
 27
1.0
 37
0.0
 76
     0
330
23
  0
LAYOUT
  5
22
102
{ACAD_REACTORS
330
1A
102
}
330
1A
100
AcDbPlotSettings
  1

  2
none_device
  4

  6

 40
0.0
 41
0.0
 42
0.0
 43
0.0
 44
0.0
 45
0.0
 46
0.0
 47
0.0
 48
0.0
 49
0.0
140
0.0
141
0.0
142
1.0
143
1.0
 70
  1712
 72
     0
 73
     0
 74
     0
  7

 75
     0
 76
     0
 77
     2
 78
   300
147
1.0
148
0.0
149
0.0
100
AcDbLayout
  1
Model
 70
     1
 71
     0
 10
0.0
 20
0.0
 11
12.0
 21
9.0
 12
0.0
 22
0.0
 32
0.0
 14
1.000000000000000E+20
 24
1.000000000000000E+20
 34
1.000000000000000E+20
 15
-1.000000000000000E+20
 25
-1.000000000000000E+20
 35
-1.000000000000000E+20
146
0.0
 13
0.0
 23
0.0
 33
0.0
 16
1.0
 26
0.0
 36
0.0
 17
0.0
 27
1.0
 37
0.0
 76
     0
330
1F
331
29
  0
MLINESTYLE
  5
18
102
{ACAD_REACTORS
330
17
102
}
330
17
100
AcDbMlineStyle
  2
Standard
 70
     0
  3

 62
   256
 51
90.0
 52
90.0
 71
     2
 49
0.5
 62
   256
  6
BYLAYER
 49
-0.5
 62
   256
  6
BYLAYER
  0
ACDBPLACEHOLDER
  5
F
102
{ACAD_REACTORS
330
E
102
}
330
E
  0
VISUALSTYLE
  5
2F
102
{ACAD_REACTORS
330
2A
102
}
330
2A
100
AcDbVisualStyle
  2
2dWireframe
 70
     4
 71
     0
 72
     2
 73
     0
 90
        0
 40
-0.6
 41
-30.0
 62
     5
 63
     7
421
 16777215
 74
     1
 91
        4
 64
     7
 65
   257
 75
     1
175
     1
 42
1.0
 92
        0
 66
   257
 43
1.0
 76
     1
 77
     6
 78
     2
 67
     7
 79
     5
170
     0
171
     0
290
     0
174
     0
 93
        1
 44
0.0
173
     0
291
     0
 45
0.0
1001
ACAD
1000
AcDbSavedByObjectVersion
1070
     0
  0
VISUALSTYLE
  5
31
102
{ACAD_REACTORS
330
2A
102
}
330
2A
100
AcDbVisualStyle
  2
3D Hidden
 70
     6
 71
     1
 72
     2
 73
     2
 90
        0
 40
-0.6
 41
-30.0
 62
     5
 63
     7
421
 16777215
 74
     2
 91
        2
 64
     7
 65
   257
 75
     2
175
     1
 42
40.0
 92
        0
 66
   257
 43
1.0
 76
     1
 77
     6
 78
     2
 67
     7
 79
     3
170
     0
171
     0
290
     0
174
     0
 93
        1
 44
0.0
173
     0
291
     0
 45
0.0
1001
ACAD
1000
AcDbSavedByObjectVersion
1070
     0
  0
VISUALSTYLE
  5
30
102
{ACAD_REACTORS
330
2A
102
}
330
2A
100
AcDbVisualStyle
  2
3dWireframe
 70
     5
 71
     0
 72
     2
 73
     0
 90
        0
 40
-0.6
 41
-30.0
 62
     5
 63
     7
421
 16777215
 74
     1
 91
        4
 64
     7
 65
   257
 75
     1
175
     1
 42
1.0
 92
        0
 66
   257
 43
1.0
 76
     1
 77
     6
 78
     2
 67
     7
 79
     5
170
     0
171
     0
290
     0
174
     0
 93
        1
 44
0.0
173
     0
291
     0
 45
0.0
1001
ACAD
1000
AcDbSavedByObjectVersion
1070
     0
  0
VISUALSTYLE
  5
32
102
{ACAD_REACTORS
330
2A
102
}
330
2A
100
AcDbVisualStyle
  2
Basic
 70
     7
 71
     1
 72
     0
 73
     1
 90
        0
 40
-0.6
 41
-30.0
 62
     5
 63
     7
421
 16777215
 74
     0
 91
        4
 64
     7
 65
   257
 75
     1
175
     1
 42
1.0
 92
        8
 66
     7
 43
1.0
 76
     1
 77
     6
 78
     2
 67
     7
 79
     5
170
     0
171
     0
290
     0
174
     0
 93
        1
 44
0.0
173
     0
291
     1
 45
0.0
1001
ACAD
1000
AcDbSavedByObjectVersion
1070
     0
  0
VISUALSTYLE
  5
36
102
{ACAD_REACTORS
330
2A
102
}
330
2A
100
AcDbVisualStyle
  2
Brighten
 70
    12
 71
     2
 72
     2
 73
     0
 90
        0
 40
-0.6
 41
-30.0
 62
     5
 63
     7
421
 16777215
 74
     1
 91
        4
 64
     7
 65
   257
 75
     1
175
     1
 42
1.0
 92
        8
 66
     7
 43
1.0
 76
     1
 77
     6
 78
     2
 67
     7
 79
     5
170
     0
171
     0
290
     0
174
     0
 93
        1
 44
50.0
173
     0
291
     1
 45
0.0
1001
ACAD
1000
AcDbSavedByObjectVersion
1070
     0
  0
VISUALSTYLE
  5
3A
102
{ACAD_REACTORS
330
2A
102
}
330
2A
100
AcDbVisualStyle
  2
ColorChange
 70
    16
 71
     2
 72
     2
 73
     3
 90
        0
 40
-0.6
 41
-30.0
 62
     5
 63
     8
421
  8421504
 74
     1
 91
        4
 64
     7
 65
   257
 75
     1
175
     1
 42
1.0
 92
        8
 66
     8
424
  8421504
 43
1.0
 76
     1
 77
     6
 78
     2
 67
     7
 79
     5
170
     0
171
     0
290
     0
174
     0
 93
        1
 44
0.0
173
     0
291
     1
 45
0.0
1001
ACAD
1000
AcDbSavedByObjectVersion
1070
     0
  0
VISUALSTYLE
  5
34
102
{ACAD_REACTORS
330
2A
102
}
330
2A
100
AcDbVisualStyle
  2
Conceptual
 70
     9
 71
     3
 72
     2
 73
     0
 90
        0
 40
-0.6
 41
-30.0
 62
     5
 63
     7
421
 16777215
 74
     2
 91
        2
 64
     7
 65
   257
 75
     1
175
     1
 42
40.0
 92
        8
 66
     7
 43
1.0
 76
     1
 77
     6
 78
     2
 67
     7
 79
     3
170
     0
171
     0
290
     0
174
     0
 93
        1
 44
0.0
173
     0
291
     0
 45
0.0
1001
ACAD
1000
AcDbSavedByObjectVersion
1070
     0
  0
VISUALSTYLE
  5
35
102
{ACAD_REACTORS
330
2A
102
}
330
2A
100
AcDbVisualStyle
  2
Dim
 70
    11
 71
     2
 72
     2
 73
     0
 90
        0
 40
-0.6
 41
-30.0
 62
     5
 63
     7
421
 16777215
 74
     1
 91
        4
 64
     7
 65
   257
 75
     1
175
     1
 42
1.0
 92
        8
 66
     7
 43
1.0
 76
     1
 77
     6
 78
     2
 67
     7
 79
     5
170
     0
171
     0
290
     0
174
     0
 93
        1
 44
-50.0
173
     0
291
     1
 45
0.0
1001
ACAD
1000
AcDbSavedByObjectVersion
1070
     0
  0
VISUALSTYLE
  5
39
102
{ACAD_REACTORS
330
2A
102
}
330
2A
100
AcDbVisualStyle
  2
Facepattern
 70
    15
 71
     2
 72
     2
 73
     0
 90
        0
 40
-0.6
 41
-30.0
 62
     5
 63
     7
421
 16777215
 74
     1
 91
        4
 64
     7
 65
   257
 75
     1
175
     1
 42
1.0
 92
        8
 66
     7
 43
1.0
 76
     1
 77
     6
 78
     2
 67
     7
 79
     5
170
     0
171
     0
290
     0
174
     0
 93
        1
 44
0.0
173
     0
291
     1
 45
0.0
1001
ACAD
1000
AcDbSavedByObjectVersion
1070
     0
  0
VISUALSTYLE
  5
2B
102
{ACAD_REACTORS
330
2A
102
}
330
2A
100
AcDbVisualStyle
  2
Flat
 70
     0
 71
     2
 72
     1
 73
     1
 90
        2
 40
-0.6
 41
30.0
 62
     5
 63
     7
421
 16777215
 74
     0
 91
        4
 64
     7
 65
   257
 75
     1
175
     1
 42
1.0
 92
        8
 66
     7
 43
1.0
 76
     1
 77
     6
 78
     2
 67
     7
 79
     5
170
     0
171
     0
290
     0
174
     0
 93
       13
 44
0.0
173
     0
291
     1
 45
0.0
1001
ACAD
1000
AcDbSavedByObjectVersion
1070
     0
  0
VISUALSTYLE
  5
2C
102
{ACAD_REACTORS
330
2A
102
}
330
2A
100
AcDbVisualStyle
  2
FlatWithEdges
 70
     1
 71
     2
 72
     1
 73
     1
 90
        2
 40
-0.6
 41
30.0
 62
     5
 63
     7
421
 16777215
 74
     1
 91
        4
 64
     7
 65
   257
 75
     1
175
     1
 42
1.0
 92
        0
 66
   257
 43
1.0
 76
     1
 77
     6
 78
     2
 67
     7
 79
     5
170
     0
171
     0
290
     0
174
     0
 93
       13
 44
0.0
173
     0
291
     1
 45
0.0
1001
ACAD
1000
AcDbSavedByObjectVersion
1070
     0
  0
VISUALSTYLE
  5
2D
102
{ACAD_REACTORS
330
2A
102
}
330
2A
100
AcDbVisualStyle
  2
Gouraud
 70
     2
 71
     2
 72
     2
 73
     1
 90
        2
 40
-0.6
 41
30.0
 62
     5
 63
     7
421
 16777215
 74
     0
 91
        4
 64
     7
 65
   257
 75
     1
175
     1
 42
1.0
 92
        0
 66
     7
 43
1.0
 76
     1
 77
     6
 78
     2
 67
     7
 79
     5
170
     0
171
     0
290
     0
174
     0
 93
       13
 44
0.0
173
     0
291
     1
 45
0.0
1001
ACAD
1000
AcDbSavedByObjectVersion
1070
     0
  0
VISUALSTYLE
  5
2E
102
{ACAD_REACTORS
330
2A
102
}
330
2A
100
AcDbVisualStyle
  2
GouraudWithEdges
 70
     3
 71
     2
 72
     2
 73
     1
 90
        2
 40
-0.6
 41
30.0
 62
     5
 63
     7
421
 16777215
 74
     1
 91
        4
 64
     7
 65
   257
 75
     1
175
     1
 42
1.0
 92
        0
 66
   257
 43
1.0
 76
     1
 77
     6
 78
     2
 67
     7
 79
     5
170
     0
171
     0
290
     0
174
     0
 93
       13
 44
0.0
173
     0
291
     1
 45
0.0
1001
ACAD
1000
AcDbSavedByObjectVersion
1070
     0
  0
VISUALSTYLE
  5
38
102
{ACAD_REACTORS
330
2A
102
}
330
2A
100
AcDbVisualStyle
  2
Linepattern
 70
    14
 71
     2
 72
     2
 73
     0
 90
        0
 40
-0.6
 41
-30.0
 62
     5
 63
     7
421
 16777215
 74
     1
 91
        4
 64
     7
 65
   257
 75
     7
175
     7
 42
1.0
 92
        8
 66
     7
 43
1.0
 76
     1
 77
     6
 78
     2
 67
     7
 79
     5
170
     0
171
     0
290
     0
174
     0
 93
        1
 44
0.0
173
     0
291
     1
 45
0.0
1001
ACAD
1000
AcDbSavedByObjectVersion
1070
     0
  0
VISUALSTYLE
  5
33
102
{ACAD_REACTORS
330
2A
102
}
330
2A
100
AcDbVisualStyle
  2
Realistic
 70
     8
 71
     2
 72
     2
 73
     0
 90
        0
 40
-0.6
 41
-30.0
 62
     5
 63
     7
421
 16777215
 74
     1
 91
        0
 64
     7
 65
   257
 75
     1
175
     1
 42
1.0
 92
        8
 66
     8
424
  7895160
 43
1.0
 76
     1
 77
     6
 78
     2
 67
     7
 79
     5
170
     0
171
     0
290
     0
174
     0
 93
       13
 44
0.0
173
     0
291
     0
 45
0.0
1001
ACAD
1000
AcDbSavedByObjectVersion
1070
     0
  0
VISUALSTYLE
  5
37
102
{ACAD_REACTORS
330
2A
102
}
330
2A
100
AcDbVisualStyle
  2
Thicken
 70
    13
 71
     2
 72
     2
 73
     0
 90
        0
 40
-0.6
 41
-30.0
 62
     5
 63
     7
421
 16777215
 74
     1
 91
        4
 64
     7
 65
   257
 75
     1
175
     1
 42
1.0
 92
       12
 66
     7
 43
1.0
 76
     1
 77
     6
 78
     2
 67
     7
 79
     5
170
     0
171
     0
290
     0
174
     0
 93
        1
 44
0.0
173
     0
291
     1
 45
0.0
1001
ACAD
1000
AcDbSavedByObjectVersion
1070
     0
  0
ENDSEC
  0
EOF
