<svg width="816" height="294" viewBox="0 0 816 294" fill="none" xmlns="http://www.w3.org/2000/svg">
<path d="M223.933 65.2C223.933 63.8 224.533 61.7 225.733 59.3C229.333 51.6 233.633 45.6 235.233 42.3C237.633 37.4 237.633 33.4 234.933 30.5C233.833 29.4 232.433 29.5 231.133 31.2C229.333 33.5 227.533 36.6 225.733 40C223.833 43.4 221.833 47.3 217.333 54.7C213.033 61.8 209.733 67.1 207.133 67.1C206.333 67.1 206.233 66.4 206.233 65.2C206.233 63.7 206.633 61.8 207.433 59.7C209.533 55 211.933 50.4 215.333 45C217.633 41.3 218.833 38.3 218.833 35.9C218.833 34.2 217.633 31.9 216.833 30.8C215.833 29.4 214.233 29.6 213.033 31.2C207.333 39.1 201.833 50.1 199.333 56.3C198.333 58.8 198.033 61.2 198.033 63.3C198.033 67.7 200.133 71.1 204.833 71.1C209.133 71.1 213.133 68.4 215.933 65.4C216.633 68.7 219.133 71.5 223.133 71.6C230.133 71.8 237.333 64.1 244.133 52.8C250.433 42.2 252.133 37.8 252.733 34.1C253.133 31.7 252.433 30 250.633 30C248.833 30 240.633 34.5 238.733 52.3C233.533 61.2 228.133 67.4 225.233 67.4C224.333 67.4 223.933 66.6 223.933 65.2ZM289.168 60.8C290.668 57.8 289.968 55.5 289.468 54.3C288.668 52.6 287.068 52.8 286.368 54.3C283.368 60.4 278.068 67.5 274.568 67.5C273.168 67.5 272.668 66.2 272.668 64.1C272.668 62.5 273.068 60.4 273.968 58.2C275.068 55.8 277.568 51.6 283.068 41.8C283.868 40.4 284.168 39 284.168 37.6C284.168 33.7 281.268 30.6 278.368 30.6C276.468 30.6 272.968 31.8 269.968 34C270.968 32.6 277.168 23.3 279.168 20C281.568 15.8 282.768 12.1 282.768 9.4C282.768 8 282.468 6.7 281.968 5.59999C281.068 3.6 279.568 3.2 277.968 5.2C269.868 15.6 250.068 49.1 246.068 59.6C243.568 66.2 244.968 68.6 246.568 70.5C247.768 72 249.268 71.7 250.068 69.9C252.468 63.9 256.068 57 259.468 51.4C264.768 42.8 274.268 36.5 275.168 36.5C275.868 36.5 274.368 38.9 272.468 42.2C268.668 48.1 263.768 56.8 263.768 63.1C263.768 68.3 266.768 71.6 273.368 71.6C279.768 71.6 286.268 66.6 289.168 60.8ZM298.663 48.4C302.763 40.3 309.563 34.5 311.363 35.9C312.363 36.7 310.063 41.6 307.263 45.2C305.263 47.9 302.563 50.8 299.963 50.8C299.263 50.8 298.563 50.6 297.763 50.2C297.963 49.7 298.163 49.3 298.663 48.4ZM354.463 54.3C353.463 52.1 351.963 52.5 351.063 54.4C348.063 61.4 342.363 67.5 338.763 67.5C337.363 67.5 336.563 65.8 336.563 63.2C336.563 62 336.863 60.2 337.263 58.9C339.063 53.8 343.963 47 348.263 42C349.463 40.7 349.963 39.4 349.963 38.2C349.963 35.7 348.263 33 346.963 31.3C345.763 29.7 344.363 30.4 342.763 31.4C339.463 33.5 336.863 34.9 334.063 35.6C335.163 32.3 335.963 29.3 335.963 27.2C335.963 25 335.163 23.7 333.063 23.7C329.663 23.8 322.963 31.1 322.963 36.4C322.963 38.2 323.963 39.7 325.763 40.8C320.463 53 310.063 67.4 300.063 67.4C297.263 67.4 295.463 64.4 295.463 59.8C295.463 58 295.763 55.9 296.363 53.9C298.663 55.5 301.063 56.1 303.463 56.1C307.863 56.1 311.663 53.6 314.563 50C317.263 46.5 318.763 42.4 318.763 39.5C318.763 38.3 318.363 37.1 317.863 36.2C316.263 34.2 314.363 32.7 311.663 31C310.663 30.4 309.563 30.2 308.263 30.2C302.563 30.2 294.363 35.8 289.163 46C287.163 50 286.163 54 286.163 57.5C286.163 65.4 291.263 71.4 300.463 71.3C312.663 71.1 323.363 58.9 331.563 41.8C333.763 41.7 336.263 41.3 338.963 40.1C334.963 44.8 331.063 50.3 329.363 55.7C328.663 57.8 328.363 59.6 328.363 61.2C328.363 67.1 331.863 71.5 338.163 71.5C344.063 71.5 351.463 67.2 353.963 61C355.263 58.2 354.963 55.4 354.463 54.3ZM375.716 35.9C376.816 36.8 374.716 41.5 371.816 45.4C369.816 48.1 366.616 51.1 364.216 51.1C363.516 51.1 362.816 50.9 362.016 50.4C366.816 40.8 374.216 34.7 375.716 35.9ZM383.216 39.9C383.216 38.6 382.816 37.1 382.216 36.2C380.816 34.2 378.816 32.6 376.016 31C375.016 30.4 373.916 30.2 372.516 30.2C366.716 30.2 358.616 35.5 353.416 46.1C351.316 50.1 350.316 54 350.316 57.6C350.316 65.6 355.416 71.7 364.716 71.6C372.516 71.5 380.516 66.8 384.716 60.7C386.516 58 386.416 55.1 386.116 54.2C385.316 52.2 384.016 52.4 382.916 54C378.816 60.2 372.116 67.6 364.516 67.6C361.516 67.6 359.716 64.5 359.716 60.1C359.716 58.3 360.016 56.2 360.616 54.2C362.916 55.7 365.316 56.4 367.716 56.4C376.516 56.4 383.216 45.9 383.216 39.9ZM445.02 53.4C444.62 52.1 443.12 52.3 441.82 54.1C438.62 58.6 433.42 63.7 427.32 67.4C431.42 57.9 436.62 48.2 439.52 42.6C440.82 40.1 441.32 37.9 441.32 35.9C441.32 33.8 440.92 32.3 439.42 30.8C438.32 29.7 437.02 29.9 435.62 31.7C433.22 35.3 430.52 41.4 423.82 52.7C418.92 61 414.42 66.9 411.82 66.9C409.22 66.9 410.12 62.9 411.52 59.3C413.42 54.6 415.52 50.5 418.92 45.1C421.22 41.4 422.42 38.5 422.42 36C422.42 34.4 421.52 32.6 420.52 31.2C419.42 29.6 417.92 29.7 416.62 31.4C410.42 39.9 405.52 50 403.22 56.3C402.32 58.8 401.92 61.2 401.92 63.3C401.92 67.5 404.12 71.3 409.12 71.3C412.12 71.3 414.72 70.4 417.32 68.5L415.82 72C406.12 75.9 398.02 82 394.92 90.6C394.32 92.4 394.02 94.1 394.02 95.3C394.02 98.5 395.52 101.5 397.02 103.6C399.42 106.8 401.52 106.8 403.82 105.9C412.52 102.6 419.32 86.6 424.82 73.4C433.02 70 439.62 66.3 443.62 60.2C445.32 57.6 445.52 55 445.02 53.4ZM413.22 78.5C410.82 83.9 408.42 88.8 406.32 92.5C403.52 97.4 401.42 100.3 400.72 99.7C399.72 98.8 400.42 94.7 402.92 90C405.02 86.1 408.42 81.8 413.22 78.5ZM522.52 54.3C521.42 52.4 520.02 52.5 519.12 54.4C515.52 61.1 509.62 67.6 506.22 67.6C504.92 67.6 504.32 66.6 504.32 64.8C504.32 63.1 504.92 61 505.92 58.9C508.32 53.1 513.12 46.5 515.02 42.4C516.22 40 516.62 37.9 516.62 36C516.62 33.8 515.92 32 514.92 30.8C513.62 29.3 512.02 29.6 510.82 31.4C507.12 36.7 505.02 42.7 498.92 52.3C493.82 60.6 488.72 66.9 485.92 66.9C485.02 66.9 484.72 65.9 484.72 64.5C484.72 63 485.12 61.2 485.82 59.3C487.82 54.6 490.02 50.6 493.42 45.1C495.52 41.4 496.72 38.4 496.72 36C496.72 34.6 496.12 32.6 494.92 31.2C493.52 29.6 492.22 29.7 491.02 31.5L487.32 36.9C484.22 41.4 479.62 45.8 475.12 46.6C475.52 40.5 473.92 37.9 471.92 35.8C471.42 35.3 470.92 34.9 470.42 34.3C468.22 31.4 466.22 30.4 462.82 30.6C456.62 31.1 450.02 37.1 446.32 43.5C443.72 48 442.22 53.2 442.22 57.4C442.22 60.6 443.02 63.7 444.92 66.2C447.72 70 451.52 71.3 454.82 71.3C463.22 71.3 471.52 60.2 474.22 50.6C476.32 50.6 478.32 50.2 480.32 49.5C479.12 51.8 478.12 54.3 477.42 56.3C476.62 58.7 476.22 61.1 476.22 63.2C476.22 67.5 478.12 71.3 483.32 71.3C488.32 71.3 492.92 68 496.22 64.4C496.82 68.6 499.72 71.7 505.42 71.7C511.62 71.7 518.72 66.7 521.62 60.9C523.12 58 523.12 55.3 522.52 54.3ZM467.62 44.9C466.52 43.6 466.02 41 466.02 39.2C466.02 37.6 466.92 36.8 467.52 36.8C468.22 36.8 469.02 37.4 469.02 38.9C469.02 40.2 468.62 42.6 467.62 44.9ZM450.02 61.9C450.02 58.2 451.52 52.7 454.12 48C456.02 44.8 457.82 42.3 459.92 40.3C460.82 43.1 463.42 46.6 466.02 48.3C465.22 50.6 464.32 52.9 462.72 55.7C458.92 62.5 454.62 66.1 452.12 66.1C450.52 66.1 450.02 64.7 450.02 61.9ZM545.358 46.3C541.758 51.3 539.958 56.9 539.958 61.2C539.958 67.1 543.158 71.4 549.058 71.4C553.058 71.4 557.558 68.3 560.458 65.5C561.258 69.2 564.158 71.8 569.158 71.8C575.258 71.8 581.658 66.5 584.258 61C585.658 58.1 585.058 55.4 584.658 54.5C583.658 52.4 582.758 52.5 581.658 54.5C578.358 61 573.358 67.8 569.758 67.8C568.758 67.8 568.358 66.9 568.358 65.4C568.358 58.7 576.758 47.8 579.358 42.3C581.958 37.1 581.058 32.7 579.358 30.7C578.158 29.3 576.458 29.4 575.258 31.4L573.358 34.5C572.458 31.9 570.258 30.1 566.658 30.1C561.558 30.1 553.358 34.8 545.358 46.3ZM550.358 67C549.358 67 548.958 65.8 548.958 64C548.958 60.8 550.658 55.5 553.658 50.8C558.758 42.6 565.658 36.3 567.658 36.3C568.658 36.3 568.858 37 568.858 38.2C568.858 40.8 567.058 45.7 563.158 52.5C558.258 60.9 553.658 67 550.358 67ZM580.58 60.3C580.58 67.2 585.18 71.5 590.48 71.5C598.88 71.5 605.58 62.9 606.98 59.9C608.08 57.6 608.48 56.1 607.98 54C607.28 51.3 604.98 51.5 603.88 53.9C600.38 61.4 595.18 67.7 591.28 67.7C589.58 67.7 588.58 65.6 588.58 62.6C588.58 60.4 589.18 57.8 590.38 55.1C593.88 47.5 599.58 37.6 603.38 31.1C605.58 30.8 608.18 30.6 609.98 30.8C612.38 31.1 613.08 29.9 612.08 28.1C611.38 26.9 609.68 25.3 606.58 24.9C607.78 22.1 608.18 19.8 608.18 18C608.18 16.8 607.78 15.1 607.08 13.9C605.98 12 604.78 11.9 603.28 14.1C600.98 17.4 598.88 20.7 595.78 26.1C593.58 26.3 590.88 26.4 588.58 26.3C586.28 26.2 585.28 27.2 586.68 29.3C587.48 30.5 589.28 31.6 592.38 32C588.38 39.2 584.58 47.1 582.58 52C581.18 55.3 580.58 58.1 580.58 60.3Z" fill="black"/>
<path d="M235.95 194.797L256.287 107.141H283.514L248.65 228H223.25L188.636 107.141H215.696L235.95 194.797ZM319.29 207.746H362.122V228H294.886V107.141H319.29V207.746ZM435.584 203.264H402.298L395.823 228H370.008L407.776 107.141H430.105L468.123 228H442.059L435.584 203.264ZM407.61 182.927H430.188L418.899 139.846L407.61 182.927ZM479.495 228V107.141H511.453C525.564 107.141 536.798 111.623 545.154 120.588C553.566 129.553 557.854 141.838 558.021 157.443V177.033C558.021 192.915 553.815 205.394 545.403 214.47C537.047 223.49 525.509 228 510.789 228H479.495ZM503.899 127.478V207.746H511.204C519.339 207.746 525.066 205.616 528.387 201.354C531.707 197.038 533.45 189.623 533.616 179.108V158.107C533.616 146.818 532.039 138.96 528.885 134.533C525.73 130.051 520.363 127.699 512.781 127.478H503.899ZM591.141 190.812C591.141 183.065 591.888 176.923 593.382 172.385C594.931 167.792 597.671 163.42 601.6 159.27C605.75 154.676 608.517 150.913 609.9 147.98C611.284 145.048 611.976 142.087 611.976 139.099C611.976 129.857 608.987 125.236 603.011 125.236C600.354 125.236 598.141 126.509 596.37 129.055C594.599 131.6 593.659 135.031 593.548 139.348H570.057C570.167 128.612 573.156 120.284 579.021 114.362C584.943 108.441 592.939 105.48 603.011 105.48C613.304 105.48 621.3 108.358 627 114.113C632.7 119.813 635.55 127.81 635.55 138.103C635.55 146.625 632.036 154.981 625.008 163.171L618.118 170.974C615.849 173.685 614.244 176.507 613.304 179.44C612.363 182.318 611.837 186.109 611.727 190.812H591.141ZM588.982 216.213C588.982 212.45 590.172 209.379 592.552 206.999C594.987 204.619 598.058 203.43 601.766 203.43C605.584 203.43 608.683 204.647 611.062 207.082C613.442 209.462 614.632 212.505 614.632 216.213C614.632 219.865 613.47 222.909 611.146 225.344C608.821 227.779 605.695 228.996 601.766 228.996C597.892 228.996 594.793 227.779 592.469 225.344C590.145 222.909 588.982 219.865 588.982 216.213Z" fill="black"/>
</svg>
