<svg width="923" height="421" viewBox="0 0 923 421" fill="none" xmlns="http://www.w3.org/2000/svg">
<path d="M292.133 73.8086H263.012V130H239.906V56.0352H292.133V73.8086ZM290.561 112.227C294.252 108.535 296.918 104.867 298.559 101.221C300.245 97.5749 301.225 93.3366 301.498 88.5059L301.703 83.4473L302.113 56.0352H359.74V112.227H370.815V152.422H347.709V130H307.651V152.422H283.998L283.93 112.227H290.561ZM317.084 112.227H336.772V73.8086H324.945L324.877 79.8926C324.558 93.1999 321.96 103.978 317.084 112.227ZM414.496 131.367C403.149 131.367 393.966 127.995 386.947 121.25C379.929 114.46 376.42 105.641 376.42 94.7949V92.8809C376.42 85.3158 377.81 78.6393 380.59 72.8516C383.415 67.0638 387.517 62.5977 392.895 59.4531C398.272 56.263 404.652 54.668 412.035 54.668C422.426 54.668 430.629 57.9036 436.645 64.375C442.66 70.8008 445.668 79.7786 445.668 91.3086V100.264H399.867C400.688 104.411 402.488 107.669 405.268 110.039C408.048 112.409 411.648 113.594 416.068 113.594C423.36 113.594 429.057 111.042 433.158 105.938L443.686 118.379C440.815 122.344 436.736 125.511 431.449 127.881C426.208 130.205 420.557 131.367 414.496 131.367ZM411.899 72.4414C405.154 72.4414 401.143 76.9076 399.867 85.8398H423.109V84.0625C423.201 80.3711 422.266 77.5228 420.307 75.5176C418.347 73.4668 415.544 72.4414 411.899 72.4414ZM554.633 73.6719H531.322V130H508.149V73.6719H485.18V56.0352H554.633V73.6719ZM587.992 76.3379H599.818C606.654 76.3379 612.67 77.4544 617.865 79.6875C623.061 81.9206 627.026 85.0879 629.76 89.1895C632.494 93.291 633.861 98.0534 633.861 103.477C633.861 111.452 630.762 117.878 624.565 122.754C618.412 127.585 610.004 130 599.34 130H564.818V56.0352H587.992V76.3379ZM667.973 130H644.799V56.0352H667.973V130ZM587.992 94.043V112.363H599.682C603.191 112.363 605.925 111.566 607.885 109.971C609.89 108.33 610.893 106.12 610.893 103.34C610.893 100.605 610.004 98.3724 608.227 96.6406C606.449 94.9089 603.601 94.043 599.682 94.043H587.992Z" fill="black"/>
<path d="M288.484 268.797L308.82 181.141H336.047L301.184 302H275.783L241.169 181.141H268.23L288.484 268.797ZM371.823 281.746H414.655V302H347.419V181.141H371.823V281.746ZM488.117 277.264H454.831L448.357 302H422.541L460.31 181.141H482.639L520.656 302H494.592L488.117 277.264ZM460.144 256.927H482.722L471.433 213.846L460.144 256.927ZM532.028 302V181.141H563.986C578.098 181.141 589.332 185.623 597.688 194.588C606.099 203.553 610.388 215.838 610.554 231.443V251.033C610.554 266.915 606.348 279.394 597.937 288.47C589.581 297.49 578.042 302 563.322 302H532.028ZM556.433 201.478V281.746H563.737C571.872 281.746 577.6 279.616 580.92 275.354C584.24 271.038 585.984 263.623 586.15 253.108V232.107C586.15 220.818 584.572 212.96 581.418 208.533C578.264 204.051 572.896 201.699 565.315 201.478H556.433ZM643.674 264.812C643.674 257.065 644.421 250.923 645.915 246.385C647.465 241.792 650.204 237.42 654.133 233.27C658.283 228.676 661.05 224.913 662.434 221.98C663.817 219.048 664.509 216.087 664.509 213.099C664.509 203.857 661.521 199.236 655.544 199.236C652.888 199.236 650.674 200.509 648.903 203.055C647.133 205.6 646.192 209.031 646.081 213.348H622.59C622.701 202.612 625.689 194.284 631.555 188.362C637.476 182.441 645.472 179.48 655.544 179.48C665.837 179.48 673.833 182.358 679.533 188.113C685.233 193.813 688.083 201.81 688.083 212.103C688.083 220.625 684.569 228.981 677.541 237.171L670.651 244.974C668.383 247.685 666.778 250.507 665.837 253.44C664.896 256.318 664.371 260.109 664.26 264.812H643.674ZM641.516 290.213C641.516 286.45 642.706 283.379 645.085 280.999C647.52 278.619 650.591 277.43 654.299 277.43C658.117 277.43 661.216 278.647 663.596 281.082C665.975 283.462 667.165 286.505 667.165 290.213C667.165 293.865 666.003 296.909 663.679 299.344C661.355 301.779 658.228 302.996 654.299 302.996C650.425 302.996 647.326 301.779 645.002 299.344C642.678 296.909 641.516 293.865 641.516 290.213Z" fill="black"/>
</svg>
